<svg width="93" height="125" viewBox="0 0 93 125" fill="none" xmlns="http://www.w3.org/2000/svg">
<rect width="93" height="95" rx="20" fill="#5C0E0A"/>
<path d="M17.9357 112.974C18.2903 113.03 18.6123 113.175 18.9017 113.408C19.2003 113.641 19.4337 113.931 19.6017 114.276C19.779 114.621 19.8677 114.99 19.8677 115.382C19.8677 115.877 19.7417 116.325 19.4897 116.726C19.2377 117.118 18.869 117.431 18.3837 117.664C17.9077 117.888 17.343 118 16.6897 118H13.0497V108.242H16.5497C17.2123 108.242 17.777 108.354 18.2437 108.578C18.7103 108.793 19.0603 109.087 19.2937 109.46C19.527 109.833 19.6437 110.253 19.6437 110.72C19.6437 111.299 19.485 111.779 19.1677 112.162C18.8597 112.535 18.449 112.806 17.9357 112.974ZM14.3237 112.456H16.4657C17.063 112.456 17.525 112.316 17.8517 112.036C18.1783 111.756 18.3417 111.369 18.3417 110.874C18.3417 110.379 18.1783 109.992 17.8517 109.712C17.525 109.432 17.0537 109.292 16.4377 109.292H14.3237V112.456ZM16.5777 116.95C17.2123 116.95 17.707 116.801 18.0617 116.502C18.4163 116.203 18.5937 115.788 18.5937 115.256C18.5937 114.715 18.407 114.29 18.0337 113.982C17.6603 113.665 17.161 113.506 16.5357 113.506H14.3237V116.95H16.5777ZM24.9816 118.126C24.263 118.126 23.6096 117.963 23.0216 117.636C22.443 117.309 21.9856 116.847 21.6496 116.25C21.323 115.643 21.1596 114.943 21.1596 114.15C21.1596 113.366 21.3276 112.675 21.6636 112.078C22.009 111.471 22.4756 111.009 23.0636 110.692C23.6516 110.365 24.3096 110.202 25.0376 110.202C25.7656 110.202 26.4236 110.365 27.0116 110.692C27.5996 111.009 28.0616 111.467 28.3976 112.064C28.743 112.661 28.9156 113.357 28.9156 114.15C28.9156 114.943 28.7383 115.643 28.3836 116.25C28.0383 116.847 27.567 117.309 26.9696 117.636C26.3723 117.963 25.7096 118.126 24.9816 118.126ZM24.9816 117.006C25.439 117.006 25.8683 116.899 26.2696 116.684C26.671 116.469 26.993 116.147 27.2356 115.718C27.4876 115.289 27.6136 114.766 27.6136 114.15C27.6136 113.534 27.4923 113.011 27.2496 112.582C27.007 112.153 26.6896 111.835 26.2976 111.63C25.9056 111.415 25.481 111.308 25.0236 111.308C24.557 111.308 24.1276 111.415 23.7356 111.63C23.353 111.835 23.045 112.153 22.8116 112.582C22.5783 113.011 22.4616 113.534 22.4616 114.15C22.4616 114.775 22.5736 115.303 22.7976 115.732C23.031 116.161 23.339 116.483 23.7216 116.698C24.1043 116.903 24.5243 117.006 24.9816 117.006ZM33.9367 118.126C33.218 118.126 32.5647 117.963 31.9767 117.636C31.398 117.309 30.9407 116.847 30.6047 116.25C30.278 115.643 30.1147 114.943 30.1147 114.15C30.1147 113.366 30.2827 112.675 30.6187 112.078C30.964 111.471 31.4307 111.009 32.0187 110.692C32.6067 110.365 33.2647 110.202 33.9927 110.202C34.7207 110.202 35.3787 110.365 35.9667 110.692C36.5547 111.009 37.0167 111.467 37.3527 112.064C37.698 112.661 37.8707 113.357 37.8707 114.15C37.8707 114.943 37.6934 115.643 37.3387 116.25C36.9934 116.847 36.522 117.309 35.9247 117.636C35.3274 117.963 34.6647 118.126 33.9367 118.126ZM33.9367 117.006C34.394 117.006 34.8234 116.899 35.2247 116.684C35.626 116.469 35.948 116.147 36.1907 115.718C36.4427 115.289 36.5687 114.766 36.5687 114.15C36.5687 113.534 36.4474 113.011 36.2047 112.582C35.962 112.153 35.6447 111.835 35.2527 111.63C34.8607 111.415 34.436 111.308 33.9787 111.308C33.512 111.308 33.0827 111.415 32.6907 111.63C32.308 111.835 32 112.153 31.7667 112.582C31.5334 113.011 31.4167 113.534 31.4167 114.15C31.4167 114.775 31.5287 115.303 31.7527 115.732C31.986 116.161 32.294 116.483 32.6767 116.698C33.0594 116.903 33.4794 117.006 33.9367 117.006ZM41.0998 111.378V115.9C41.0998 116.273 41.1791 116.539 41.3378 116.698C41.4964 116.847 41.7718 116.922 42.1638 116.922H43.1018V118H41.9538C41.2444 118 40.7124 117.837 40.3578 117.51C40.0031 117.183 39.8258 116.647 39.8258 115.9V111.378H38.8318V110.328H39.8258V108.396H41.0998V110.328H43.1018V111.378H41.0998ZM47.7394 118.098C47.0954 118.098 46.5167 117.986 46.0034 117.762C45.4994 117.529 45.1027 117.211 44.8134 116.81C44.524 116.399 44.3747 115.928 44.3654 115.396H45.7234C45.77 115.853 45.9567 116.241 46.2834 116.558C46.6194 116.866 47.1047 117.02 47.7394 117.02C48.346 117.02 48.822 116.871 49.1674 116.572C49.522 116.264 49.6994 115.872 49.6994 115.396C49.6994 115.023 49.5967 114.719 49.3914 114.486C49.186 114.253 48.9294 114.075 48.6214 113.954C48.3134 113.833 47.898 113.702 47.3754 113.562C46.7314 113.394 46.2134 113.226 45.8214 113.058C45.4387 112.89 45.1074 112.629 44.8274 112.274C44.5567 111.91 44.4214 111.425 44.4214 110.818C44.4214 110.286 44.5567 109.815 44.8274 109.404C45.098 108.993 45.476 108.676 45.9614 108.452C46.456 108.228 47.0207 108.116 47.6554 108.116C48.57 108.116 49.3167 108.345 49.8954 108.802C50.4834 109.259 50.8147 109.866 50.8894 110.622H49.4894C49.4427 110.249 49.2467 109.922 48.9014 109.642C48.556 109.353 48.0987 109.208 47.5294 109.208C46.9974 109.208 46.5634 109.348 46.2274 109.628C45.8914 109.899 45.7234 110.281 45.7234 110.776C45.7234 111.131 45.8214 111.42 46.0174 111.644C46.2227 111.868 46.47 112.041 46.7594 112.162C47.058 112.274 47.4734 112.405 48.0054 112.554C48.6494 112.731 49.1674 112.909 49.5594 113.086C49.9514 113.254 50.2874 113.52 50.5674 113.884C50.8474 114.239 50.9874 114.724 50.9874 115.34C50.9874 115.816 50.8614 116.264 50.6094 116.684C50.3574 117.104 49.984 117.445 49.4894 117.706C48.9947 117.967 48.4114 118.098 47.7394 118.098ZM54.4162 111.378V115.9C54.4162 116.273 54.4955 116.539 54.6542 116.698C54.8128 116.847 55.0882 116.922 55.4802 116.922H56.4182V118H55.2702C54.5608 118 54.0288 117.837 53.6742 117.51C53.3195 117.183 53.1422 116.647 53.1422 115.9V111.378H52.1482V110.328H53.1422V108.396H54.4162V110.328H56.4182V111.378H54.4162ZM59.2358 111.574C59.4598 111.135 59.7771 110.795 60.1878 110.552C60.6078 110.309 61.1165 110.188 61.7138 110.188V111.504H61.3778C59.9498 111.504 59.2358 112.279 59.2358 113.828V118H57.9618V110.328H59.2358V111.574ZM62.7084 114.136C62.7084 113.352 62.8671 112.666 63.1844 112.078C63.5018 111.481 63.9358 111.019 64.4864 110.692C65.0464 110.365 65.6671 110.202 66.3484 110.202C67.0204 110.202 67.6038 110.347 68.0984 110.636C68.5931 110.925 68.9618 111.289 69.2044 111.728V110.328H70.4924V118H69.2044V116.572C68.9524 117.02 68.5744 117.393 68.0704 117.692C67.5758 117.981 66.9971 118.126 66.3344 118.126C65.6531 118.126 65.0371 117.958 64.4864 117.622C63.9358 117.286 63.5018 116.815 63.1844 116.208C62.8671 115.601 62.7084 114.911 62.7084 114.136ZM69.2044 114.15C69.2044 113.571 69.0878 113.067 68.8544 112.638C68.6211 112.209 68.3038 111.882 67.9024 111.658C67.5104 111.425 67.0764 111.308 66.6004 111.308C66.1244 111.308 65.6904 111.42 65.2984 111.644C64.9064 111.868 64.5938 112.195 64.3604 112.624C64.1271 113.053 64.0104 113.557 64.0104 114.136C64.0104 114.724 64.1271 115.237 64.3604 115.676C64.5938 116.105 64.9064 116.437 65.2984 116.67C65.6904 116.894 66.1244 117.006 66.6004 117.006C67.0764 117.006 67.5104 116.894 67.9024 116.67C68.3038 116.437 68.6211 116.105 68.8544 115.676C69.0878 115.237 69.2044 114.729 69.2044 114.15ZM73.9194 111.742C74.1714 111.303 74.5447 110.939 75.0394 110.65C75.5434 110.351 76.1267 110.202 76.7894 110.202C77.4707 110.202 78.0867 110.365 78.6374 110.692C79.1974 111.019 79.636 111.481 79.9534 112.078C80.2707 112.666 80.4294 113.352 80.4294 114.136C80.4294 114.911 80.2707 115.601 79.9534 116.208C79.636 116.815 79.1974 117.286 78.6374 117.622C78.0867 117.958 77.4707 118.126 76.7894 118.126C76.136 118.126 75.5574 117.981 75.0534 117.692C74.5587 117.393 74.1807 117.025 73.9194 116.586V121.64H72.6454V110.328H73.9194V111.742ZM79.1274 114.136C79.1274 113.557 79.0107 113.053 78.7774 112.624C78.544 112.195 78.2267 111.868 77.8254 111.644C77.4334 111.42 76.9994 111.308 76.5234 111.308C76.0567 111.308 75.6227 111.425 75.2214 111.658C74.8294 111.882 74.512 112.213 74.2694 112.652C74.036 113.081 73.9194 113.581 73.9194 114.15C73.9194 114.729 74.036 115.237 74.2694 115.676C74.512 116.105 74.8294 116.437 75.2214 116.67C75.6227 116.894 76.0567 117.006 76.5234 117.006C76.9994 117.006 77.4334 116.894 77.8254 116.67C78.2267 116.437 78.544 116.105 78.7774 115.676C79.0107 115.237 79.1274 114.724 79.1274 114.136Z" fill="white"/>
<path d="M51.5338 42.6412C51.5338 40.4702 49.9794 39.2717 47.2491 39.2717H42.227V46.2661H46.4619C49.7302 46.2563 51.5338 44.9596 51.5338 42.6412ZM69.8185 41.3838C68.8719 38.3483 68.7324 34.6251 68.842 31.7468C68.9516 28.7506 66.5801 26 63.3915 26H30.6285C27.4299 26 25.0683 28.7604 25.1779 31.7468C25.2776 34.6251 25.148 38.3483 24.2014 41.3838C23.2448 44.4291 21.6406 46.3545 19 46.6001V49.3999C21.6306 49.6455 23.2448 51.5709 24.2014 54.6162C25.148 57.6517 25.2875 61.3749 25.1779 64.2532C25.0683 67.2494 27.4399 70 30.6285 70H63.3815C66.5801 70 68.9416 67.2396 68.832 64.2532C68.7324 61.3749 68.8619 57.6517 69.8085 54.6162C70.7651 51.5709 72.3694 49.6455 75 49.3999V46.6001C72.3794 46.3545 70.7651 44.4291 69.8185 41.3838ZM48.2157 59.7048H38.4605V36.2952H48.1658C52.4804 36.2952 55.3103 38.5939 55.3103 42.1304C55.3103 44.6158 53.4071 46.8359 50.9758 47.219V47.3467C54.284 47.7004 56.506 49.9598 56.506 53.0739C56.506 57.2096 53.3872 59.7048 48.2157 59.7048ZM47.2192 49.0266H42.227V56.7283H47.4384C50.8463 56.7283 52.6498 55.3825 52.6498 52.848C52.6498 50.3233 50.7964 49.0266 47.2192 49.0266Z" fill="white"/>
</svg>
