<svg width="93" height="125" viewBox="0 0 93 125" fill="none" xmlns="http://www.w3.org/2000/svg">
<rect width="93" height="95" rx="20" fill="#5C0E0A"/>
<path d="M33.978 113.114C33.978 112.162 34.1926 111.308 34.622 110.552C35.0513 109.787 35.6346 109.189 36.372 108.76C37.1186 108.331 37.9446 108.116 38.85 108.116C39.914 108.116 40.8426 108.373 41.636 108.886C42.4293 109.399 43.008 110.127 43.372 111.07H41.846C41.5753 110.482 41.1833 110.029 40.67 109.712C40.166 109.395 39.5593 109.236 38.85 109.236C38.1686 109.236 37.5573 109.395 37.016 109.712C36.4746 110.029 36.05 110.482 35.742 111.07C35.434 111.649 35.28 112.33 35.28 113.114C35.28 113.889 35.434 114.57 35.742 115.158C36.05 115.737 36.4746 116.185 37.016 116.502C37.5573 116.819 38.1686 116.978 38.85 116.978C39.5593 116.978 40.166 116.824 40.67 116.516C41.1833 116.199 41.5753 115.746 41.846 115.158H43.372C43.008 116.091 42.4293 116.815 41.636 117.328C40.8426 117.832 39.914 118.084 38.85 118.084C37.9446 118.084 37.1186 117.874 36.372 117.454C35.6346 117.025 35.0513 116.432 34.622 115.676C34.1926 114.92 33.978 114.066 33.978 113.114ZM48.3624 118.098C47.7184 118.098 47.1398 117.986 46.6264 117.762C46.1224 117.529 45.7258 117.211 45.4364 116.81C45.1471 116.399 44.9978 115.928 44.9884 115.396H46.3464C46.3931 115.853 46.5798 116.241 46.9064 116.558C47.2424 116.866 47.7278 117.02 48.3624 117.02C48.9691 117.02 49.4451 116.871 49.7904 116.572C50.1451 116.264 50.3224 115.872 50.3224 115.396C50.3224 115.023 50.2198 114.719 50.0144 114.486C49.8091 114.253 49.5524 114.075 49.2444 113.954C48.9364 113.833 48.5211 113.702 47.9984 113.562C47.3544 113.394 46.8364 113.226 46.4444 113.058C46.0618 112.89 45.7304 112.629 45.4504 112.274C45.1798 111.91 45.0444 111.425 45.0444 110.818C45.0444 110.286 45.1798 109.815 45.4504 109.404C45.7211 108.993 46.0991 108.676 46.5844 108.452C47.0791 108.228 47.6438 108.116 48.2784 108.116C49.1931 108.116 49.9398 108.345 50.5184 108.802C51.1064 109.259 51.4378 109.866 51.5124 110.622H50.1124C50.0658 110.249 49.8698 109.922 49.5244 109.642C49.1791 109.353 48.7218 109.208 48.1524 109.208C47.6204 109.208 47.1864 109.348 46.8504 109.628C46.5144 109.899 46.3464 110.281 46.3464 110.776C46.3464 111.131 46.4444 111.42 46.6404 111.644C46.8458 111.868 47.0931 112.041 47.3824 112.162C47.6811 112.274 48.0964 112.405 48.6284 112.554C49.2724 112.731 49.7904 112.909 50.1824 113.086C50.5744 113.254 50.9104 113.52 51.1904 113.884C51.4704 114.239 51.6104 114.724 51.6104 115.34C51.6104 115.816 51.4844 116.264 51.2324 116.684C50.9804 117.104 50.6071 117.445 50.1124 117.706C49.6178 117.967 49.0344 118.098 48.3624 118.098ZM56.5792 118.098C55.9352 118.098 55.3566 117.986 54.8432 117.762C54.3392 117.529 53.9426 117.211 53.6532 116.81C53.3639 116.399 53.2146 115.928 53.2052 115.396H54.5632C54.6099 115.853 54.7966 116.241 55.1232 116.558C55.4592 116.866 55.9446 117.02 56.5792 117.02C57.1859 117.02 57.6619 116.871 58.0072 116.572C58.3619 116.264 58.5392 115.872 58.5392 115.396C58.5392 115.023 58.4366 114.719 58.2312 114.486C58.0259 114.253 57.7692 114.075 57.4612 113.954C57.1532 113.833 56.7379 113.702 56.2152 113.562C55.5712 113.394 55.0532 113.226 54.6612 113.058C54.2786 112.89 53.9472 112.629 53.6672 112.274C53.3966 111.91 53.2612 111.425 53.2612 110.818C53.2612 110.286 53.3966 109.815 53.6672 109.404C53.9379 108.993 54.3159 108.676 54.8012 108.452C55.2959 108.228 55.8606 108.116 56.4952 108.116C57.4099 108.116 58.1566 108.345 58.7352 108.802C59.3232 109.259 59.6546 109.866 59.7292 110.622H58.3292C58.2826 110.249 58.0866 109.922 57.7412 109.642C57.3959 109.353 56.9386 109.208 56.3692 109.208C55.8372 109.208 55.4032 109.348 55.0672 109.628C54.7312 109.899 54.5632 110.281 54.5632 110.776C54.5632 111.131 54.6612 111.42 54.8572 111.644C55.0626 111.868 55.3099 112.041 55.5992 112.162C55.8979 112.274 56.3132 112.405 56.8452 112.554C57.4892 112.731 58.0072 112.909 58.3992 113.086C58.7912 113.254 59.1272 113.52 59.4072 113.884C59.6872 114.239 59.8272 114.724 59.8272 115.34C59.8272 115.816 59.7012 116.264 59.4492 116.684C59.1972 117.104 58.8239 117.445 58.3292 117.706C57.8346 117.967 57.2512 118.098 56.5792 118.098Z" fill="white"/>
<path d="M21 19L25.471 69.8269L46.5 76L67.6593 69.8297L72 19H21ZM58.6833 60.9577L46.5198 64.3891H46.5L34.3252 60.9577L33.4837 51.9318H39.4563L39.8813 56.2808L46.4972 58.102L53.1272 56.278L53.8213 47.5855H33.223L32.6932 41.8684H54.3398L54.8328 36.1513H32.118L31.6193 30.4342H61.3863L58.6833 60.9577Z" fill="white"/>
</svg>
