<svg width="93" height="125" viewBox="0 0 93 125" fill="none" xmlns="http://www.w3.org/2000/svg">
<rect width="93" height="95" rx="20" fill="#5C0E0A"/>
<path d="M31.6711 108.242V109.278H27.4291V112.568H30.8731V113.604H27.4291V118H26.1551V108.242H31.6711ZM33.8678 109.082C33.6252 109.082 33.4198 108.998 33.2518 108.83C33.0838 108.662 32.9998 108.457 32.9998 108.214C32.9998 107.971 33.0838 107.766 33.2518 107.598C33.4198 107.43 33.6252 107.346 33.8678 107.346C34.1012 107.346 34.2972 107.43 34.4558 107.598C34.6238 107.766 34.7078 107.971 34.7078 108.214C34.7078 108.457 34.6238 108.662 34.4558 108.83C34.2972 108.998 34.1012 109.082 33.8678 109.082ZM34.4838 110.328V118H33.2098V110.328H34.4838ZM39.8191 110.202C40.4818 110.202 41.0605 110.347 41.5551 110.636C42.0591 110.925 42.4325 111.289 42.6751 111.728V110.328H43.9631V118.168C43.9631 118.868 43.8138 119.489 43.5151 120.03C43.2165 120.581 42.7871 121.01 42.2271 121.318C41.6765 121.626 41.0325 121.78 40.2951 121.78C39.2871 121.78 38.4471 121.542 37.7751 121.066C37.1031 120.59 36.7065 119.941 36.5851 119.12H37.8451C37.9851 119.587 38.2745 119.96 38.7131 120.24C39.1518 120.529 39.6791 120.674 40.2951 120.674C40.9951 120.674 41.5645 120.455 42.0031 120.016C42.4511 119.577 42.6751 118.961 42.6751 118.168V116.558C42.4231 117.006 42.0498 117.379 41.5551 117.678C41.0605 117.977 40.4818 118.126 39.8191 118.126C39.1378 118.126 38.5171 117.958 37.9571 117.622C37.4065 117.286 36.9725 116.815 36.6551 116.208C36.3378 115.601 36.1791 114.911 36.1791 114.136C36.1791 113.352 36.3378 112.666 36.6551 112.078C36.9725 111.481 37.4065 111.019 37.9571 110.692C38.5171 110.365 39.1378 110.202 39.8191 110.202ZM42.6751 114.15C42.6751 113.571 42.5585 113.067 42.3251 112.638C42.0918 112.209 41.7745 111.882 41.3731 111.658C40.9811 111.425 40.5471 111.308 40.0711 111.308C39.5951 111.308 39.1611 111.42 38.7691 111.644C38.3771 111.868 38.0645 112.195 37.8311 112.624C37.5978 113.053 37.4811 113.557 37.4811 114.136C37.4811 114.724 37.5978 115.237 37.8311 115.676C38.0645 116.105 38.3771 116.437 38.7691 116.67C39.1611 116.894 39.5951 117.006 40.0711 117.006C40.5471 117.006 40.9811 116.894 41.3731 116.67C41.7745 116.437 42.0918 116.105 42.3251 115.676C42.5585 115.237 42.6751 114.729 42.6751 114.15ZM55.3421 110.188C55.9394 110.188 56.4714 110.314 56.9381 110.566C57.4048 110.809 57.7734 111.177 58.0441 111.672C58.3148 112.167 58.4501 112.769 58.4501 113.478V118H57.1901V113.66C57.1901 112.895 56.9988 112.311 56.6161 111.91C56.2428 111.499 55.7341 111.294 55.0901 111.294C54.4274 111.294 53.9001 111.509 53.5081 111.938C53.1161 112.358 52.9201 112.969 52.9201 113.772V118H51.6601V113.66C51.6601 112.895 51.4688 112.311 51.0861 111.91C50.7128 111.499 50.2041 111.294 49.5601 111.294C48.8974 111.294 48.3701 111.509 47.9781 111.938C47.5861 112.358 47.3901 112.969 47.3901 113.772V118H46.1161V110.328H47.3901V111.434C47.6421 111.033 47.9781 110.725 48.3981 110.51C48.8274 110.295 49.2988 110.188 49.8121 110.188C50.4561 110.188 51.0254 110.333 51.5201 110.622C52.0148 110.911 52.3834 111.336 52.6261 111.896C52.8408 111.355 53.1954 110.935 53.6901 110.636C54.1848 110.337 54.7354 110.188 55.3421 110.188ZM60.0639 114.136C60.0639 113.352 60.2226 112.666 60.5399 112.078C60.8572 111.481 61.2912 111.019 61.8419 110.692C62.4019 110.365 63.0226 110.202 63.7039 110.202C64.3759 110.202 64.9592 110.347 65.4539 110.636C65.9486 110.925 66.3172 111.289 66.5599 111.728V110.328H67.8479V118H66.5599V116.572C66.3079 117.02 65.9299 117.393 65.4259 117.692C64.9312 117.981 64.3526 118.126 63.6899 118.126C63.0086 118.126 62.3926 117.958 61.8419 117.622C61.2912 117.286 60.8572 116.815 60.5399 116.208C60.2226 115.601 60.0639 114.911 60.0639 114.136ZM66.5599 114.15C66.5599 113.571 66.4432 113.067 66.2099 112.638C65.9766 112.209 65.6592 111.882 65.2579 111.658C64.8659 111.425 64.4319 111.308 63.9559 111.308C63.4799 111.308 63.0459 111.42 62.6539 111.644C62.2619 111.868 61.9492 112.195 61.7159 112.624C61.4826 113.053 61.3659 113.557 61.3659 114.136C61.3659 114.724 61.4826 115.237 61.7159 115.676C61.9492 116.105 62.2619 116.437 62.6539 116.67C63.0459 116.894 63.4799 117.006 63.9559 117.006C64.4319 117.006 64.8659 116.894 65.2579 116.67C65.6592 116.437 65.9766 116.105 66.2099 115.676C66.4432 115.237 66.5599 114.729 66.5599 114.15Z" fill="white"/>
<path d="M37.0769 20C34.9348 20 32.8804 20.8692 31.3657 22.4164C29.851 23.9635 29 26.062 29 28.25C29 30.438 29.851 32.5365 31.3657 34.0836C32.8804 35.6308 34.9348 36.5 37.0769 36.5H55.9231C58.0652 36.5 60.1196 35.6308 61.6343 34.0836C63.149 32.5365 64 30.438 64 28.25C64 26.062 63.149 23.9635 61.6343 22.4164C60.1196 20.8692 58.0652 20 55.9231 20H37.0769ZM55.9231 39.25C53.7809 39.25 51.7265 40.1192 50.2118 41.6664C48.6971 43.2135 47.8462 45.312 47.8462 47.5C47.8462 49.688 48.6971 51.7865 50.2118 53.3336C51.7265 54.8808 53.7809 55.75 55.9231 55.75C58.0652 55.75 60.1196 54.8808 61.6343 53.3336C63.149 51.7865 64 49.688 64 47.5C64 45.312 63.149 43.2135 61.6343 41.6664C60.1196 40.1192 58.0652 39.25 55.9231 39.25ZM29 47.5C29 45.312 29.851 43.2135 31.3657 41.6664C32.8804 40.1192 34.9348 39.25 37.0769 39.25H45.1538V55.75H37.0769C34.9348 55.75 32.8804 54.8808 31.3657 53.3336C29.851 51.7865 29 49.688 29 47.5ZM37.0769 58.5C35.4795 58.5 33.9179 58.9838 32.5896 59.8904C31.2614 60.7969 30.2261 62.0854 29.6148 63.5929C29.0035 65.1003 28.8435 66.7592 29.1552 68.3595C29.4668 69.9598 30.2361 71.4298 31.3657 72.5836C32.4953 73.7374 33.9344 74.5231 35.5012 74.8415C37.068 75.1598 38.692 74.9964 40.1678 74.372C41.6437 73.7476 42.9051 72.6902 43.7926 71.3334C44.6801 69.9767 45.1538 68.3817 45.1538 66.75V58.5H37.0769Z" fill="white"/>
</svg>
