<svg width="93" height="125" viewBox="0 0 93 125" fill="none" xmlns="http://www.w3.org/2000/svg">
<rect width="93" height="95" rx="20" fill="#5C0E0A"/>
<path d="M21 19L25.471 69.7984L46.5 76L67.6565 69.8013L72 19H21ZM60.8055 36.2368H38.2125L38.6998 41.9824H60.508L58.7343 60.6926L46.704 64.6285L34.5745 60.4818L33.7585 52.1255H39.4932L39.9465 56.1469L46.7465 58.4697L53.3935 56.2951L54.235 47.7309H33.512L31.9197 30.4883H61.4203L60.8055 36.2368Z" fill="white"/>
<path d="M37.9114 108.242V118H36.6374V113.576H31.6674V118H30.3934V108.242H31.6674V112.526H36.6374V108.242H37.9114ZM46.0928 108.242V109.278H43.4328V118H42.1588V109.278H39.4848V108.242H46.0928ZM57.559 108.312V118H56.285V110.776L53.065 118H52.169L48.935 110.762V118H47.661V108.312H49.033L52.617 116.32L56.201 108.312H57.559ZM60.9936 116.964H64.4096V118H59.7196V108.242H60.9936V116.964Z" fill="white"/>
</svg>
