<svg width="93" height="125" viewBox="0 0 93 125" fill="none" xmlns="http://www.w3.org/2000/svg">
<rect width="93" height="95" rx="20" fill="#5C0E0A"/>
<path d="M16.019 108.242V118H14.745V108.242H16.019ZM19.4643 107.64V118H18.1903V107.64H19.4643ZM22.9096 107.64V118H21.6356V107.64H22.9096ZM31.8849 110.328V118H30.6109V116.866C30.3683 117.258 30.0276 117.566 29.5889 117.79C29.1596 118.005 28.6836 118.112 28.1609 118.112C27.5636 118.112 27.0269 117.991 26.5509 117.748C26.0749 117.496 25.6969 117.123 25.4169 116.628C25.1463 116.133 25.0109 115.531 25.0109 114.822V110.328H26.2709V114.654C26.2709 115.41 26.4623 115.993 26.8449 116.404C27.2276 116.805 27.7503 117.006 28.4129 117.006C29.0943 117.006 29.6309 116.796 30.0229 116.376C30.4149 115.956 30.6109 115.345 30.6109 114.542V110.328H31.8849ZM36.752 118.126C36.164 118.126 35.6367 118.028 35.17 117.832C34.7033 117.627 34.3347 117.347 34.064 116.992C33.7933 116.628 33.644 116.213 33.616 115.746H34.932C34.9693 116.129 35.1467 116.441 35.464 116.684C35.7907 116.927 36.2153 117.048 36.738 117.048C37.2233 117.048 37.606 116.941 37.886 116.726C38.166 116.511 38.306 116.241 38.306 115.914C38.306 115.578 38.1567 115.331 37.858 115.172C37.5593 115.004 37.0973 114.841 36.472 114.682C35.9027 114.533 35.436 114.383 35.072 114.234C34.7173 114.075 34.4093 113.847 34.148 113.548C33.896 113.24 33.77 112.839 33.77 112.344C33.77 111.952 33.8867 111.593 34.12 111.266C34.3533 110.939 34.6847 110.683 35.114 110.496C35.5433 110.3 36.0333 110.202 36.584 110.202C37.4333 110.202 38.1193 110.417 38.642 110.846C39.1647 111.275 39.4447 111.863 39.482 112.61H38.208C38.18 112.209 38.0167 111.887 37.718 111.644C37.4287 111.401 37.0367 111.28 36.542 111.28C36.0847 111.28 35.7207 111.378 35.45 111.574C35.1793 111.77 35.044 112.027 35.044 112.344C35.044 112.596 35.1233 112.806 35.282 112.974C35.45 113.133 35.6553 113.263 35.898 113.366C36.15 113.459 36.4953 113.567 36.934 113.688C37.4847 113.837 37.9327 113.987 38.278 114.136C38.6233 114.276 38.9173 114.491 39.16 114.78C39.412 115.069 39.5427 115.447 39.552 115.914C39.552 116.334 39.4353 116.712 39.202 117.048C38.9687 117.384 38.6373 117.65 38.208 117.846C37.788 118.033 37.3027 118.126 36.752 118.126ZM42.9045 111.378V115.9C42.9045 116.273 42.9838 116.539 43.1425 116.698C43.3011 116.847 43.5765 116.922 43.9685 116.922H44.9065V118H43.7585C43.0491 118 42.5171 117.837 42.1625 117.51C41.8078 117.183 41.6305 116.647 41.6305 115.9V111.378H40.6365V110.328H41.6305V108.396H42.9045V110.328H44.9065V111.378H42.9045ZM47.7241 111.574C47.9481 111.135 48.2654 110.795 48.6761 110.552C49.0961 110.309 49.6047 110.188 50.2021 110.188V111.504H49.8661C48.4381 111.504 47.7241 112.279 47.7241 113.828V118H46.4501V110.328H47.7241V111.574ZM51.1967 114.136C51.1967 113.352 51.3554 112.666 51.6727 112.078C51.9901 111.481 52.4241 111.019 52.9747 110.692C53.5347 110.365 54.1554 110.202 54.8367 110.202C55.5087 110.202 56.0921 110.347 56.5867 110.636C57.0814 110.925 57.4501 111.289 57.6927 111.728V110.328H58.9807V118H57.6927V116.572C57.4407 117.02 57.0627 117.393 56.5587 117.692C56.0641 117.981 55.4854 118.126 54.8227 118.126C54.1414 118.126 53.5254 117.958 52.9747 117.622C52.4241 117.286 51.9901 116.815 51.6727 116.208C51.3554 115.601 51.1967 114.911 51.1967 114.136ZM57.6927 114.15C57.6927 113.571 57.5761 113.067 57.3427 112.638C57.1094 112.209 56.7921 111.882 56.3907 111.658C55.9987 111.425 55.5647 111.308 55.0887 111.308C54.6127 111.308 54.1787 111.42 53.7867 111.644C53.3947 111.868 53.0821 112.195 52.8487 112.624C52.6154 113.053 52.4987 113.557 52.4987 114.136C52.4987 114.724 52.6154 115.237 52.8487 115.676C53.0821 116.105 53.3947 116.437 53.7867 116.67C54.1787 116.894 54.6127 117.006 55.0887 117.006C55.5647 117.006 55.9987 116.894 56.3907 116.67C56.7921 116.437 57.1094 116.105 57.3427 115.676C57.5761 115.237 57.6927 114.729 57.6927 114.15ZM62.6877 111.378V115.9C62.6877 116.273 62.767 116.539 62.9257 116.698C63.0843 116.847 63.3597 116.922 63.7517 116.922H64.6897V118H63.5417C62.8323 118 62.3003 117.837 61.9457 117.51C61.591 117.183 61.4137 116.647 61.4137 115.9V111.378H60.4197V110.328H61.4137V108.396H62.6877V110.328H64.6897V111.378H62.6877ZM69.5793 118.126C68.8606 118.126 68.2073 117.963 67.6193 117.636C67.0406 117.309 66.5833 116.847 66.2473 116.25C65.9206 115.643 65.7573 114.943 65.7573 114.15C65.7573 113.366 65.9253 112.675 66.2613 112.078C66.6066 111.471 67.0733 111.009 67.6613 110.692C68.2493 110.365 68.9073 110.202 69.6353 110.202C70.3633 110.202 71.0213 110.365 71.6093 110.692C72.1973 111.009 72.6593 111.467 72.9953 112.064C73.3406 112.661 73.5133 113.357 73.5133 114.15C73.5133 114.943 73.3359 115.643 72.9813 116.25C72.6359 116.847 72.1646 117.309 71.5673 117.636C70.9699 117.963 70.3073 118.126 69.5793 118.126ZM69.5793 117.006C70.0366 117.006 70.4659 116.899 70.8673 116.684C71.2686 116.469 71.5906 116.147 71.8333 115.718C72.0853 115.289 72.2113 114.766 72.2113 114.15C72.2113 113.534 72.0899 113.011 71.8473 112.582C71.6046 112.153 71.2873 111.835 70.8953 111.63C70.5033 111.415 70.0786 111.308 69.6213 111.308C69.1546 111.308 68.7253 111.415 68.3333 111.63C67.9506 111.835 67.6426 112.153 67.4093 112.582C67.1759 113.011 67.0593 113.534 67.0593 114.15C67.0593 114.775 67.1713 115.303 67.3953 115.732C67.6286 116.161 67.9366 116.483 68.3193 116.698C68.7019 116.903 69.1219 117.006 69.5793 117.006ZM76.4624 111.574C76.6864 111.135 77.0037 110.795 77.4144 110.552C77.8344 110.309 78.343 110.188 78.9404 110.188V111.504H78.6044C77.1764 111.504 76.4624 112.279 76.4624 113.828V118H75.1884V110.328H76.4624V111.574Z" fill="white"/>
<path d="M64.259 21H28.741C27.4613 20.9983 26.1939 21.2509 25.0113 21.7432C23.8287 22.2356 22.7542 22.958 21.8493 23.8692C20.9444 24.7804 20.227 25.8625 19.738 27.0533C19.2491 28.2442 18.9983 29.5205 19 30.8091V65.1909C18.9983 66.4795 19.2491 67.7558 19.738 68.9467C20.227 70.1375 20.9444 71.2196 21.8493 72.1308C22.7542 73.042 23.8287 73.7644 25.0113 74.2568C26.1939 74.7491 27.4613 75.0017 28.741 75H64.259C65.5387 75.0017 66.8061 74.7491 67.9887 74.2568C69.1713 73.7644 70.2458 73.042 71.1507 72.1308C72.0556 71.2196 72.773 70.1375 73.262 68.9467C73.7509 67.7558 74.0017 66.4795 74 65.1909V30.8091C74.0017 29.5205 73.7509 28.2442 73.262 27.0533C72.773 25.8625 72.0556 24.7804 71.1507 23.8692C70.2458 22.958 69.1713 22.2356 67.9887 21.7432C66.8061 21.2509 65.5387 20.9983 64.259 21ZM52.6187 59.0769H47.8277C47.747 59.0831 47.6666 59.0611 47.6001 59.0146C47.5336 58.9681 47.485 58.9 47.4625 58.8216L45.5848 53.3091H37.0469L35.3281 58.7308C35.3093 58.8289 35.2549 58.9166 35.1755 58.9766C35.0961 59.0365 34.9973 59.0646 34.8984 59.0553H30.6016C30.3523 59.0553 30.2836 58.9168 30.3523 58.6226L37.7 37.2476C37.7688 37.0139 37.8375 36.763 37.9277 36.4861C38.0217 35.9912 38.0677 35.4884 38.0652 34.9846C38.0587 34.9265 38.0741 34.868 38.1083 34.8208C38.1425 34.7735 38.1931 34.7409 38.25 34.7293H44.184C44.3687 34.7293 44.459 34.7986 44.4848 34.9154L52.8465 58.6832C52.9152 58.9385 52.8465 59.0553 52.6187 59.0553V59.0769ZM60.525 58.8173C60.525 59.0726 60.4348 59.1851 60.2285 59.1851H55.734C55.686 59.1888 55.6379 59.1816 55.593 59.1641C55.5482 59.1466 55.5078 59.1192 55.4748 59.0839C55.4419 59.0487 55.4171 59.0064 55.4025 58.9603C55.3879 58.9141 55.3837 58.8653 55.3902 58.8173V41.0293C55.3902 40.8 55.4848 40.7091 55.691 40.7091H60.25C60.4562 40.7091 60.5465 40.8216 60.5465 41.0293L60.525 58.8173ZM60.0437 37.9615C59.7735 38.2379 59.4479 38.4531 59.0885 38.5926C58.7291 38.7322 58.3443 38.7929 57.9598 38.7707C57.5832 38.779 57.2089 38.7118 56.8584 38.5729C56.508 38.4339 56.1886 38.2261 55.9187 37.9615C55.3913 37.3844 55.1118 36.6208 55.141 35.837C55.1249 35.4568 55.189 35.0775 55.329 34.724C55.4689 34.3705 55.6817 34.0508 55.9531 33.7861C56.5022 33.2607 57.2324 32.9706 57.9898 32.9769C58.3748 32.9569 58.7596 33.0186 59.1194 33.158C59.4792 33.2973 59.8058 33.5113 60.0781 33.7861C60.5846 34.3452 60.8557 35.0805 60.8344 35.837C60.8497 36.2263 60.7877 36.6148 60.6519 36.9796C60.5162 37.3444 60.3094 37.6783 60.0437 37.9615ZM44.2098 48.6231H38.3875C38.7313 47.6538 39.075 46.5678 39.3973 45.3909C39.7195 44.2139 40.1063 43.0846 40.45 41.9769C40.763 40.9997 41.0226 40.0059 41.2277 39H41.275C41.434 39.5539 41.5973 40.1553 41.7777 40.8C41.9582 41.4447 42.1688 42.137 42.3965 42.8553C42.6242 43.5736 42.8262 44.2615 43.0625 44.9755C43.2988 45.6894 43.4922 46.3385 43.6812 46.9615C43.8703 47.5846 44.0723 48.1385 44.2098 48.6231Z" fill="white"/>
</svg>
