<svg width="93" height="125" viewBox="0 0 93 125" fill="none" xmlns="http://www.w3.org/2000/svg">
<rect width="93" height="95" rx="20" fill="#5C0E0A"/>
<path d="M15.4207 108.242V115.452C15.4207 116.255 15.1734 116.899 14.6787 117.384C14.184 117.86 13.5307 118.098 12.7187 118.098C11.8974 118.098 11.2394 117.855 10.7447 117.37C10.25 116.875 10.0027 116.203 10.0027 115.354H11.2767C11.286 115.83 11.4074 116.217 11.6407 116.516C11.8834 116.815 12.2427 116.964 12.7187 116.964C13.1947 116.964 13.5494 116.824 13.7827 116.544C14.016 116.255 14.1327 115.891 14.1327 115.452V108.242H15.4207ZM17.4545 114.136C17.4545 113.352 17.6132 112.666 17.9305 112.078C18.2479 111.481 18.6819 111.019 19.2325 110.692C19.7925 110.365 20.4132 110.202 21.0945 110.202C21.7665 110.202 22.3499 110.347 22.8445 110.636C23.3392 110.925 23.7079 111.289 23.9505 111.728V110.328H25.2385V118H23.9505V116.572C23.6985 117.02 23.3205 117.393 22.8165 117.692C22.3219 117.981 21.7432 118.126 21.0805 118.126C20.3992 118.126 19.7832 117.958 19.2325 117.622C18.6819 117.286 18.2479 116.815 17.9305 116.208C17.6132 115.601 17.4545 114.911 17.4545 114.136ZM23.9505 114.15C23.9505 113.571 23.8339 113.067 23.6005 112.638C23.3672 112.209 23.0499 111.882 22.6485 111.658C22.2565 111.425 21.8225 111.308 21.3465 111.308C20.8705 111.308 20.4365 111.42 20.0445 111.644C19.6525 111.868 19.3399 112.195 19.1065 112.624C18.8732 113.053 18.7565 113.557 18.7565 114.136C18.7565 114.724 18.8732 115.237 19.1065 115.676C19.3399 116.105 19.6525 116.437 20.0445 116.67C20.4365 116.894 20.8705 117.006 21.3465 117.006C21.8225 117.006 22.2565 116.894 22.6485 116.67C23.0499 116.437 23.3672 116.105 23.6005 115.676C23.8339 115.237 23.9505 114.729 23.9505 114.15ZM30.2475 116.824L32.6275 110.328H33.9855L30.9755 118H29.4915L26.4815 110.328H27.8535L30.2475 116.824ZM34.7631 114.136C34.7631 113.352 34.9218 112.666 35.2391 112.078C35.5565 111.481 35.9905 111.019 36.5411 110.692C37.1011 110.365 37.7218 110.202 38.4031 110.202C39.0751 110.202 39.6585 110.347 40.1531 110.636C40.6478 110.925 41.0165 111.289 41.2591 111.728V110.328H42.5471V118H41.2591V116.572C41.0071 117.02 40.6291 117.393 40.1251 117.692C39.6305 117.981 39.0518 118.126 38.3891 118.126C37.7078 118.126 37.0918 117.958 36.5411 117.622C35.9905 117.286 35.5565 116.815 35.2391 116.208C34.9218 115.601 34.7631 114.911 34.7631 114.136ZM41.2591 114.15C41.2591 113.571 41.1425 113.067 40.9091 112.638C40.6758 112.209 40.3585 111.882 39.9571 111.658C39.5651 111.425 39.1311 111.308 38.6551 111.308C38.1791 111.308 37.7451 111.42 37.3531 111.644C36.9611 111.868 36.6485 112.195 36.4151 112.624C36.1818 113.053 36.0651 113.557 36.0651 114.136C36.0651 114.724 36.1818 115.237 36.4151 115.676C36.6485 116.105 36.9611 116.437 37.3531 116.67C37.7451 116.894 38.1791 117.006 38.6551 117.006C39.1311 117.006 39.5651 116.894 39.9571 116.67C40.3585 116.437 40.6758 116.105 40.9091 115.676C41.1425 115.237 41.2591 114.729 41.2591 114.15ZM47.7941 118.098C47.1501 118.098 46.5714 117.986 46.0581 117.762C45.5541 117.529 45.1574 117.211 44.8681 116.81C44.5787 116.399 44.4294 115.928 44.4201 115.396H45.7781C45.8247 115.853 46.0114 116.241 46.3381 116.558C46.6741 116.866 47.1594 117.02 47.7941 117.02C48.4007 117.02 48.8767 116.871 49.2221 116.572C49.5767 116.264 49.7541 115.872 49.7541 115.396C49.7541 115.023 49.6514 114.719 49.4461 114.486C49.2407 114.253 48.9841 114.075 48.6761 113.954C48.3681 113.833 47.9527 113.702 47.4301 113.562C46.7861 113.394 46.2681 113.226 45.8761 113.058C45.4934 112.89 45.1621 112.629 44.8821 112.274C44.6114 111.91 44.4761 111.425 44.4761 110.818C44.4761 110.286 44.6114 109.815 44.8821 109.404C45.1527 108.993 45.5307 108.676 46.0161 108.452C46.5107 108.228 47.0754 108.116 47.7101 108.116C48.6247 108.116 49.3714 108.345 49.9501 108.802C50.5381 109.259 50.8694 109.866 50.9441 110.622H49.5441C49.4974 110.249 49.3014 109.922 48.9561 109.642C48.6107 109.353 48.1534 109.208 47.5841 109.208C47.0521 109.208 46.6181 109.348 46.2821 109.628C45.9461 109.899 45.7781 110.281 45.7781 110.776C45.7781 111.131 45.8761 111.42 46.0721 111.644C46.2774 111.868 46.5247 112.041 46.8141 112.162C47.1127 112.274 47.5281 112.405 48.0601 112.554C48.7041 112.731 49.2221 112.909 49.6141 113.086C50.0061 113.254 50.3421 113.52 50.6221 113.884C50.9021 114.239 51.0421 114.724 51.0421 115.34C51.0421 115.816 50.9161 116.264 50.6641 116.684C50.4121 117.104 50.0387 117.445 49.5441 117.706C49.0494 117.967 48.4661 118.098 47.7941 118.098ZM52.4409 114.15C52.4409 113.357 52.5995 112.666 52.9169 112.078C53.2342 111.481 53.6729 111.019 54.2329 110.692C54.8022 110.365 55.4509 110.202 56.1789 110.202C57.1215 110.202 57.8962 110.431 58.5029 110.888C59.1189 111.345 59.5249 111.98 59.7209 112.792H58.3489C58.2182 112.325 57.9615 111.957 57.5789 111.686C57.2055 111.415 56.7389 111.28 56.1789 111.28C55.4509 111.28 54.8629 111.532 54.4149 112.036C53.9669 112.531 53.7429 113.235 53.7429 114.15C53.7429 115.074 53.9669 115.788 54.4149 116.292C54.8629 116.796 55.4509 117.048 56.1789 117.048C56.7389 117.048 57.2055 116.917 57.5789 116.656C57.9522 116.395 58.2089 116.021 58.3489 115.536H59.7209C59.5155 116.32 59.1049 116.95 58.4889 117.426C57.8729 117.893 57.1029 118.126 56.1789 118.126C55.4509 118.126 54.8022 117.963 54.2329 117.636C53.6729 117.309 53.2342 116.847 52.9169 116.25C52.5995 115.653 52.4409 114.953 52.4409 114.15ZM62.6948 111.574C62.9188 111.135 63.2361 110.795 63.6468 110.552C64.0668 110.309 64.5754 110.188 65.1728 110.188V111.504H64.8368C63.4088 111.504 62.6948 112.279 62.6948 113.828V118H61.4208V110.328H62.6948V111.574ZM67.3014 109.082C67.0588 109.082 66.8534 108.998 66.6854 108.83C66.5174 108.662 66.4334 108.457 66.4334 108.214C66.4334 107.971 66.5174 107.766 66.6854 107.598C66.8534 107.43 67.0588 107.346 67.3014 107.346C67.5348 107.346 67.7308 107.43 67.8894 107.598C68.0574 107.766 68.1414 107.971 68.1414 108.214C68.1414 108.457 68.0574 108.662 67.8894 108.83C67.7308 108.998 67.5348 109.082 67.3014 109.082ZM67.9174 110.328V118H66.6434V110.328H67.9174ZM71.3627 111.742C71.6147 111.303 71.9881 110.939 72.4827 110.65C72.9867 110.351 73.5701 110.202 74.2327 110.202C74.9141 110.202 75.5301 110.365 76.0807 110.692C76.6407 111.019 77.0794 111.481 77.3967 112.078C77.7141 112.666 77.8727 113.352 77.8727 114.136C77.8727 114.911 77.7141 115.601 77.3967 116.208C77.0794 116.815 76.6407 117.286 76.0807 117.622C75.5301 117.958 74.9141 118.126 74.2327 118.126C73.5794 118.126 73.0007 117.981 72.4967 117.692C72.0021 117.393 71.6241 117.025 71.3627 116.586V121.64H70.0887V110.328H71.3627V111.742ZM76.5707 114.136C76.5707 113.557 76.4541 113.053 76.2207 112.624C75.9874 112.195 75.6701 111.868 75.2687 111.644C74.8767 111.42 74.4427 111.308 73.9667 111.308C73.5001 111.308 73.0661 111.425 72.6647 111.658C72.2727 111.882 71.9554 112.213 71.7127 112.652C71.4794 113.081 71.3627 113.581 71.3627 114.15C71.3627 114.729 71.4794 115.237 71.7127 115.676C71.9554 116.105 72.2727 116.437 72.6647 116.67C73.0661 116.894 73.5001 117.006 73.9667 117.006C74.4427 117.006 74.8767 116.894 75.2687 116.67C75.6701 116.437 75.9874 116.105 76.2207 115.676C76.4541 115.237 76.5707 114.724 76.5707 114.136ZM81.1037 111.378V115.9C81.1037 116.273 81.183 116.539 81.3417 116.698C81.5003 116.847 81.7757 116.922 82.1677 116.922H83.1057V118H81.9577C81.2483 118 80.7163 117.837 80.3617 117.51C80.007 117.183 79.8297 116.647 79.8297 115.9V111.378H78.8357V110.328H79.8297V108.396H81.1037V110.328H83.1057V111.378H81.1037Z" fill="white"/>
<path d="M72 27.8571C72 23.5234 68.7328 20 64.7143 20H28.2857C24.2672 20 21 23.5234 21 27.8571V67.1429C21 71.4766 24.2672 75 28.2857 75H64.7143C68.7328 75 72 71.4766 72 67.1429V27.8571ZM41.5935 70.6908C37.7571 70.6908 35.5373 68.5547 34.3989 65.9643L38.3036 63.423C39.0549 64.8594 39.7379 66.0748 41.3886 66.0748C42.9596 66.0748 43.9614 65.4118 43.9614 62.8214V45.2533H48.754V62.8951C48.754 68.2478 45.8397 70.6908 41.5935 70.6908ZM51.3609 65.4118L55.2656 62.981C56.2902 64.7857 57.6335 66.1239 59.99 66.1239C61.9708 66.1239 63.2458 65.0558 63.2458 63.5703C63.2458 61.8025 61.948 61.1763 59.7509 60.1328L58.5556 59.5804C55.0949 57.9967 52.8067 55.9955 52.8067 51.7846C52.8067 47.9051 55.5502 44.9587 59.8192 44.9587C62.8701 44.9587 65.0558 46.1004 66.6268 49.096L62.8929 51.6741C62.0732 50.0904 61.1853 49.4643 59.8078 49.4643C58.4076 49.4643 57.5196 50.4219 57.5196 51.6741C57.5196 53.221 58.4076 53.8471 60.4681 54.817L61.6634 55.3694C65.7388 57.2478 68.027 59.1752 68.027 63.4967C68.027 68.1373 64.6346 70.6908 60.0924 70.6908C55.6413 70.6908 52.7612 68.4074 51.3609 65.4118Z" fill="white"/>
</svg>
