<svg width="93" height="125" viewBox="0 0 93 125" fill="none" xmlns="http://www.w3.org/2000/svg">
<rect width="93" height="95" rx="20" fill="#5C0E0A"/>
<path d="M16.7231 111.098C16.7231 111.91 16.4431 112.587 15.8831 113.128C15.3324 113.66 14.4878 113.926 13.3491 113.926H11.4731V118H10.1991V108.242H13.3491C14.4504 108.242 15.2858 108.508 15.8551 109.04C16.4338 109.572 16.7231 110.258 16.7231 111.098ZM13.3491 112.876C14.0584 112.876 14.5811 112.722 14.9171 112.414C15.2531 112.106 15.4211 111.667 15.4211 111.098C15.4211 109.894 14.7304 109.292 13.3491 109.292H11.4731V112.876H13.3491ZM22.1145 110.188C22.6932 110.188 23.2158 110.314 23.6825 110.566C24.1492 110.809 24.5132 111.177 24.7745 111.672C25.0452 112.167 25.1805 112.769 25.1805 113.478V118H23.9205V113.66C23.9205 112.895 23.7292 112.311 23.3465 111.91C22.9638 111.499 22.4412 111.294 21.7785 111.294C21.1065 111.294 20.5698 111.504 20.1685 111.924C19.7765 112.344 19.5805 112.955 19.5805 113.758V118H18.3065V107.64H19.5805V111.42C19.8325 111.028 20.1778 110.725 20.6165 110.51C21.0645 110.295 21.5638 110.188 22.1145 110.188ZM30.6076 118.126C29.8889 118.126 29.2356 117.963 28.6476 117.636C28.0689 117.309 27.6116 116.847 27.2756 116.25C26.9489 115.643 26.7856 114.943 26.7856 114.15C26.7856 113.366 26.9536 112.675 27.2896 112.078C27.6349 111.471 28.1016 111.009 28.6896 110.692C29.2776 110.365 29.9356 110.202 30.6636 110.202C31.3916 110.202 32.0496 110.365 32.6376 110.692C33.2256 111.009 33.6876 111.467 34.0236 112.064C34.3689 112.661 34.5416 113.357 34.5416 114.15C34.5416 114.943 34.3643 115.643 34.0096 116.25C33.6643 116.847 33.1929 117.309 32.5956 117.636C31.9983 117.963 31.3356 118.126 30.6076 118.126ZM30.6076 117.006C31.0649 117.006 31.4943 116.899 31.8956 116.684C32.2969 116.469 32.6189 116.147 32.8616 115.718C33.1136 115.289 33.2396 114.766 33.2396 114.15C33.2396 113.534 33.1183 113.011 32.8756 112.582C32.6329 112.153 32.3156 111.835 31.9236 111.63C31.5316 111.415 31.1069 111.308 30.6496 111.308C30.1829 111.308 29.7536 111.415 29.3616 111.63C28.9789 111.835 28.6709 112.153 28.4376 112.582C28.2043 113.011 28.0876 113.534 28.0876 114.15C28.0876 114.775 28.1996 115.303 28.4236 115.732C28.6569 116.161 28.9649 116.483 29.3476 116.698C29.7303 116.903 30.1503 117.006 30.6076 117.006ZM37.7707 111.378V115.9C37.7707 116.273 37.85 116.539 38.0087 116.698C38.1673 116.847 38.4427 116.922 38.8347 116.922H39.7727V118H38.6247C37.9153 118 37.3833 117.837 37.0287 117.51C36.674 117.183 36.4967 116.647 36.4967 115.9V111.378H35.5027V110.328H36.4967V108.396H37.7707V110.328H39.7727V111.378H37.7707ZM44.6623 118.126C43.9436 118.126 43.2903 117.963 42.7023 117.636C42.1236 117.309 41.6663 116.847 41.3303 116.25C41.0036 115.643 40.8403 114.943 40.8403 114.15C40.8403 113.366 41.0083 112.675 41.3443 112.078C41.6896 111.471 42.1563 111.009 42.7443 110.692C43.3323 110.365 43.9903 110.202 44.7183 110.202C45.4463 110.202 46.1043 110.365 46.6923 110.692C47.2803 111.009 47.7423 111.467 48.0783 112.064C48.4236 112.661 48.5963 113.357 48.5963 114.15C48.5963 114.943 48.4189 115.643 48.0643 116.25C47.7189 116.847 47.2476 117.309 46.6503 117.636C46.0529 117.963 45.3903 118.126 44.6623 118.126ZM44.6623 117.006C45.1196 117.006 45.5489 116.899 45.9503 116.684C46.3516 116.469 46.6736 116.147 46.9163 115.718C47.1683 115.289 47.2943 114.766 47.2943 114.15C47.2943 113.534 47.1729 113.011 46.9303 112.582C46.6876 112.153 46.3703 111.835 45.9783 111.63C45.5863 111.415 45.1616 111.308 44.7043 111.308C44.2376 111.308 43.8083 111.415 43.4163 111.63C43.0336 111.835 42.7256 112.153 42.4923 112.582C42.2589 113.011 42.1423 113.534 42.1423 114.15C42.1423 114.775 42.2543 115.303 42.4783 115.732C42.7116 116.161 43.0196 116.483 43.4023 116.698C43.7849 116.903 44.2049 117.006 44.6623 117.006ZM52.9874 118.126C52.3994 118.126 51.872 118.028 51.4054 117.832C50.9387 117.627 50.57 117.347 50.2994 116.992C50.0287 116.628 49.8794 116.213 49.8514 115.746H51.1674C51.2047 116.129 51.382 116.441 51.6994 116.684C52.026 116.927 52.4507 117.048 52.9734 117.048C53.4587 117.048 53.8414 116.941 54.1214 116.726C54.4014 116.511 54.5414 116.241 54.5414 115.914C54.5414 115.578 54.392 115.331 54.0934 115.172C53.7947 115.004 53.3327 114.841 52.7074 114.682C52.138 114.533 51.6714 114.383 51.3074 114.234C50.9527 114.075 50.6447 113.847 50.3834 113.548C50.1314 113.24 50.0054 112.839 50.0054 112.344C50.0054 111.952 50.122 111.593 50.3554 111.266C50.5887 110.939 50.92 110.683 51.3494 110.496C51.7787 110.3 52.2687 110.202 52.8194 110.202C53.6687 110.202 54.3547 110.417 54.8774 110.846C55.4 111.275 55.68 111.863 55.7174 112.61H54.4434C54.4154 112.209 54.252 111.887 53.9534 111.644C53.664 111.401 53.272 111.28 52.7774 111.28C52.32 111.28 51.956 111.378 51.6854 111.574C51.4147 111.77 51.2794 112.027 51.2794 112.344C51.2794 112.596 51.3587 112.806 51.5174 112.974C51.6854 113.133 51.8907 113.263 52.1334 113.366C52.3854 113.459 52.7307 113.567 53.1694 113.688C53.72 113.837 54.168 113.987 54.5134 114.136C54.8587 114.276 55.1527 114.491 55.3954 114.78C55.6474 115.069 55.778 115.447 55.7874 115.914C55.7874 116.334 55.6707 116.712 55.4374 117.048C55.204 117.384 54.8727 117.65 54.4434 117.846C54.0234 118.033 53.538 118.126 52.9874 118.126ZM61.3938 110.188C61.9725 110.188 62.4951 110.314 62.9618 110.566C63.4285 110.809 63.7925 111.177 64.0538 111.672C64.3245 112.167 64.4598 112.769 64.4598 113.478V118H63.1998V113.66C63.1998 112.895 63.0085 112.311 62.6258 111.91C62.2431 111.499 61.7205 111.294 61.0578 111.294C60.3858 111.294 59.8491 111.504 59.4478 111.924C59.0558 112.344 58.8598 112.955 58.8598 113.758V118H57.5858V107.64H58.8598V111.42C59.1118 111.028 59.4571 110.725 59.8958 110.51C60.3438 110.295 60.8431 110.188 61.3938 110.188ZM69.8869 118.126C69.1682 118.126 68.5149 117.963 67.9269 117.636C67.3482 117.309 66.8909 116.847 66.5549 116.25C66.2282 115.643 66.0649 114.943 66.0649 114.15C66.0649 113.366 66.2329 112.675 66.5689 112.078C66.9142 111.471 67.3809 111.009 67.9689 110.692C68.5569 110.365 69.2149 110.202 69.9429 110.202C70.6709 110.202 71.3289 110.365 71.9169 110.692C72.5049 111.009 72.9669 111.467 73.3029 112.064C73.6482 112.661 73.8209 113.357 73.8209 114.15C73.8209 114.943 73.6436 115.643 73.2889 116.25C72.9436 116.847 72.4722 117.309 71.8749 117.636C71.2776 117.963 70.6149 118.126 69.8869 118.126ZM69.8869 117.006C70.3442 117.006 70.7736 116.899 71.1749 116.684C71.5762 116.469 71.8982 116.147 72.1409 115.718C72.3929 115.289 72.5189 114.766 72.5189 114.15C72.5189 113.534 72.3976 113.011 72.1549 112.582C71.9122 112.153 71.5949 111.835 71.2029 111.63C70.8109 111.415 70.3862 111.308 69.9289 111.308C69.4622 111.308 69.0329 111.415 68.6409 111.63C68.2582 111.835 67.9502 112.153 67.7169 112.582C67.4836 113.011 67.3669 113.534 67.3669 114.15C67.3669 114.775 67.4789 115.303 67.7029 115.732C67.9362 116.161 68.2442 116.483 68.6269 116.698C69.0096 116.903 69.4296 117.006 69.8869 117.006ZM76.77 111.742C77.022 111.303 77.3953 110.939 77.89 110.65C78.394 110.351 78.9773 110.202 79.64 110.202C80.3213 110.202 80.9373 110.365 81.488 110.692C82.048 111.019 82.4866 111.481 82.804 112.078C83.1213 112.666 83.28 113.352 83.28 114.136C83.28 114.911 83.1213 115.601 82.804 116.208C82.4866 116.815 82.048 117.286 81.488 117.622C80.9373 117.958 80.3213 118.126 79.64 118.126C78.9866 118.126 78.408 117.981 77.904 117.692C77.4093 117.393 77.0313 117.025 76.77 116.586V121.64H75.496V110.328H76.77V111.742ZM81.978 114.136C81.978 113.557 81.8613 113.053 81.628 112.624C81.3946 112.195 81.0773 111.868 80.676 111.644C80.284 111.42 79.85 111.308 79.374 111.308C78.9073 111.308 78.4733 111.425 78.072 111.658C77.68 111.882 77.3626 112.213 77.12 112.652C76.8866 113.081 76.77 113.581 76.77 114.15C76.77 114.729 76.8866 115.237 77.12 115.676C77.3626 116.105 77.68 116.437 78.072 116.67C78.4733 116.894 78.9073 117.006 79.374 117.006C79.85 117.006 80.284 116.894 80.676 116.67C81.0773 116.437 81.3946 116.105 81.628 115.676C81.8613 115.237 81.978 114.724 81.978 114.136Z" fill="white"/>
<path d="M28.7393 21C23.354 21 19 25.3849 19 30.8083V65.1917C19 70.6151 23.354 75 28.7393 75H64.2607C69.646 75 74 70.6151 74 65.1917V30.8083C74 25.3849 69.646 21 64.2607 21H28.7393ZM38.7085 34.7311C40.5875 34.7311 42.146 34.9613 43.429 35.4459C44.5795 35.8395 45.6286 36.4862 46.5 37.3389C47.2383 38.0849 47.8089 38.9819 48.1732 39.9692C48.517 40.9385 48.6996 41.9306 48.6996 42.9691C48.6996 44.9537 48.2412 46.5922 47.3246 47.8845C46.4085 49.1765 45.1254 50.1462 43.6357 50.7C42.0772 51.2772 40.3585 51.4845 38.4795 51.4845C37.9295 51.4845 37.5621 51.4845 37.333 51.4615C37.104 51.4386 36.783 51.4386 36.3478 51.4386V58.8463C36.3705 59.0077 36.2563 59.1466 36.096 59.1695H31.65C31.467 59.1695 31.3759 59.0765 31.3759 58.8688V35.1231C31.3759 34.9617 31.4446 34.8687 31.6049 34.8687C31.9946 34.8687 32.3611 34.8687 32.8879 34.8462C33.4379 34.8228 34.0107 34.8237 34.6295 34.8003C35.2482 34.7774 35.9129 34.7769 36.6232 34.754C37.3339 34.7306 38.021 34.7311 38.7085 34.7311ZM39.2198 39.2761C39.1028 39.2738 38.9858 39.2741 38.8688 39.2769C38.2732 39.2769 37.746 39.2774 37.3103 39.3007C36.8522 39.2774 36.5317 39.3003 36.3714 39.3232V47.0771C36.692 47.1004 36.9893 47.1229 37.2643 47.1229H38.4795C39.3732 47.1229 40.267 46.9845 41.1147 46.7075C41.8482 46.4999 42.4897 46.0611 42.9937 45.4843C43.475 44.9071 43.7045 44.1231 43.7045 43.1075C43.7255 42.3866 43.5429 41.6745 43.1777 41.054C42.7879 40.4543 42.2375 39.9922 41.5728 39.7386C40.8307 39.4357 40.0362 39.2921 39.2198 39.2761ZM58.4397 40.4543C59.3795 40.4543 60.342 40.5226 61.2812 40.6611C61.9688 40.7533 62.633 40.9389 63.2518 41.1929C63.3438 41.2158 63.4353 41.3075 63.4808 41.3997C63.504 41.4919 63.5272 41.5845 63.5272 41.6766V45.4385C63.5275 45.4832 63.5172 45.5274 63.4974 45.5675C63.4775 45.6076 63.4486 45.6424 63.4129 45.6691C63.2067 45.7154 63.092 45.7154 63.0004 45.6691C62.3129 45.3 61.579 45.0464 60.7996 44.885C59.9518 44.7003 59.104 44.5843 58.2335 44.5843C57.775 44.561 57.2933 44.6311 56.858 44.7462C56.5598 44.8154 56.308 44.9772 56.1478 45.2078C56.0335 45.3926 55.9647 45.6232 55.9647 45.8309C55.9647 46.0386 56.0567 46.2463 56.1942 46.4306C56.4004 46.6846 56.675 46.8927 56.9728 47.0546C57.5042 47.3311 58.0471 47.5848 58.6 47.8148C59.8375 48.2302 61.029 48.8078 62.129 49.5001C62.8853 49.9848 63.504 50.6312 63.9393 51.4157C64.308 52.1517 64.4893 52.9684 64.467 53.7924C64.4855 54.8833 64.1735 55.9539 63.5723 56.8615C62.9333 57.7826 62.0416 58.4963 61.0063 58.9151C59.883 59.3997 58.508 59.6537 56.858 59.6537C55.8036 59.6537 54.7732 59.5615 53.742 59.3538C52.9337 59.2132 52.1476 58.9648 51.4045 58.6152C51.2442 58.5231 51.129 58.3612 51.1518 58.1765V54.1615C51.1518 54.0923 51.1746 53.9997 51.2433 53.9538C51.3121 53.9075 51.3808 53.9313 51.4496 53.9772C52.3323 54.5016 53.2913 54.8833 54.2915 55.1083C55.1625 55.3389 56.0795 55.454 56.9964 55.454C57.867 55.454 58.4857 55.3385 58.8982 55.1308C59.2647 54.9694 59.5165 54.5769 59.5165 54.1615C59.5165 53.8387 59.3335 53.538 58.9665 53.2377C58.6 52.9379 57.8438 52.5922 56.721 52.1538C55.5689 51.7453 54.4748 51.1867 53.4665 50.4923C52.7484 49.977 52.1535 49.307 51.725 48.5309C51.3593 47.8021 51.1783 46.9934 51.1982 46.1771C51.1982 45.1849 51.4728 44.2386 51.9768 43.3849C52.5496 42.462 53.3982 41.7234 54.3839 41.2621C55.4607 40.7083 56.8121 40.4543 58.4397 40.4543Z" fill="white"/>
</svg>
