<svg width="93" height="125" viewBox="0 0 93 125" fill="none" xmlns="http://www.w3.org/2000/svg">
<rect width="93" height="95" rx="20" fill="#5C0E0A"/>
<path d="M41.6479 111.098C41.6479 111.91 41.3679 112.587 40.8079 113.128C40.2572 113.66 39.4126 113.926 38.2739 113.926H36.3979V118H35.1239V108.242H38.2739C39.3752 108.242 40.2106 108.508 40.7799 109.04C41.3586 109.572 41.6479 110.258 41.6479 111.098ZM38.2739 112.876C38.9832 112.876 39.5059 112.722 39.8419 112.414C40.1779 112.106 40.3459 111.667 40.3459 111.098C40.3459 109.894 39.6552 109.292 38.2739 109.292H36.3979V112.876H38.2739ZM50.7493 108.242V118H49.4753V113.576H44.5053V118H43.2313V108.242H44.5053V112.526H49.4753V108.242H50.7493ZM59.4487 111.098C59.4487 111.91 59.1687 112.587 58.6087 113.128C58.058 113.66 57.2133 113.926 56.0747 113.926H54.1987V118H52.9247V108.242H56.0747C57.176 108.242 58.0113 108.508 58.5807 109.04C59.1593 109.572 59.4487 110.258 59.4487 111.098ZM56.0747 112.876C56.784 112.876 57.3067 112.722 57.6427 112.414C57.9787 112.106 58.1467 111.667 58.1467 111.098C58.1467 109.894 57.456 109.292 56.0747 109.292H54.1987V112.876H56.0747Z" fill="white"/>
<path d="M47 33C31.8597 33 20 39.3688 20 47.5C20 55.6312 31.8597 62 47 62C62.1403 62 74 55.6312 74 47.5C74 39.3688 62.1403 33 47 33ZM44.1965 37.4615H47.144L46.208 41.9231H48.8405C50.51 41.9231 51.6305 42.1551 52.2695 42.7328C52.8927 43.3039 53.0817 44.2408 52.832 45.5168L51.662 50.8462H48.665L49.7428 45.9184C49.8717 45.2387 49.8215 44.774 49.592 44.5242C49.3648 44.2765 48.863 44.1538 48.1115 44.1538H45.7512L44.327 50.8462H41.375L44.1965 37.4615ZM31.25 41.9231H37.2485C40.1082 41.9231 41.8407 43.8237 41.1635 46.659C40.376 49.9538 38.27 50.8462 34.391 50.8462H32.537L31.9497 54.1923H28.9685L31.25 41.9231ZM54.875 41.9231H60.8735C63.7332 41.9231 65.4658 43.8237 64.7885 46.659C64.001 49.9538 61.8927 50.8462 58.016 50.8462H56.162L55.5747 54.1923H52.5935L54.875 41.9231ZM33.8038 44.1538L32.9555 48.6154H34.8792C36.5443 48.6154 38.0923 48.428 38.351 45.9675C38.4478 45.0127 38.0472 44.1538 36.1235 44.1538H33.8038ZM57.4287 44.1538L56.5805 48.6154H58.5043C60.1693 48.6154 61.7173 48.428 61.976 45.9675C62.0728 45.0127 61.6745 44.1538 59.7485 44.1538H57.4287Z" fill="white"/>
</svg>
