<svg width="93" height="125" viewBox="0 0 93 125" fill="none" xmlns="http://www.w3.org/2000/svg">
<rect width="93" height="95" rx="20" fill="#5C0E0A"/>
<path d="M24.9946 111.098C24.9946 111.91 24.7146 112.587 24.1546 113.128C23.6039 113.66 22.7592 113.926 21.6206 113.926H19.7446V118H18.4706V108.242H21.6206C22.7219 108.242 23.5572 108.508 24.1266 109.04C24.7052 109.572 24.9946 110.258 24.9946 111.098ZM21.6206 112.876C22.3299 112.876 22.8526 112.722 23.1886 112.414C23.5246 112.106 23.6926 111.667 23.6926 111.098C23.6926 109.894 23.0019 109.292 21.6206 109.292H19.7446V112.876H21.6206ZM29.924 118.126C29.2053 118.126 28.552 117.963 27.964 117.636C27.3853 117.309 26.928 116.847 26.592 116.25C26.2653 115.643 26.102 114.943 26.102 114.15C26.102 113.366 26.27 112.675 26.606 112.078C26.9513 111.471 27.418 111.009 28.006 110.692C28.594 110.365 29.252 110.202 29.98 110.202C30.708 110.202 31.366 110.365 31.954 110.692C32.542 111.009 33.004 111.467 33.34 112.064C33.6853 112.661 33.858 113.357 33.858 114.15C33.858 114.943 33.6807 115.643 33.326 116.25C32.9807 116.847 32.5093 117.309 31.912 117.636C31.3147 117.963 30.652 118.126 29.924 118.126ZM29.924 117.006C30.3813 117.006 30.8107 116.899 31.212 116.684C31.6133 116.469 31.9353 116.147 32.178 115.718C32.43 115.289 32.556 114.766 32.556 114.15C32.556 113.534 32.4347 113.011 32.192 112.582C31.9493 112.153 31.632 111.835 31.24 111.63C30.848 111.415 30.4233 111.308 29.966 111.308C29.4993 111.308 29.07 111.415 28.678 111.63C28.2953 111.835 27.9873 112.153 27.754 112.582C27.5207 113.011 27.404 113.534 27.404 114.15C27.404 114.775 27.516 115.303 27.74 115.732C27.9733 116.161 28.2813 116.483 28.664 116.698C29.0467 116.903 29.4667 117.006 29.924 117.006ZM45.7531 110.328L43.3591 118H42.0431L40.1951 111.91L38.3471 118H37.0311L34.6231 110.328H35.9251L37.6891 116.768L39.5931 110.328H40.8951L42.7571 116.782L44.4931 110.328H45.7531ZM54.0175 113.87C54.0175 114.113 54.0035 114.369 53.9755 114.64H47.8435C47.8901 115.396 48.1468 115.989 48.6135 116.418C49.0895 116.838 49.6635 117.048 50.3355 117.048C50.8861 117.048 51.3435 116.922 51.7075 116.67C52.0808 116.409 52.3421 116.063 52.4915 115.634H53.8635C53.6581 116.371 53.2475 116.973 52.6315 117.44C52.0155 117.897 51.2501 118.126 50.3355 118.126C49.6075 118.126 48.9541 117.963 48.3755 117.636C47.8061 117.309 47.3581 116.847 47.0315 116.25C46.7048 115.643 46.5415 114.943 46.5415 114.15C46.5415 113.357 46.7001 112.661 47.0175 112.064C47.3348 111.467 47.7781 111.009 48.3475 110.692C48.9261 110.365 49.5888 110.202 50.3355 110.202C51.0635 110.202 51.7075 110.361 52.2675 110.678C52.8275 110.995 53.2568 111.434 53.5555 111.994C53.8635 112.545 54.0175 113.17 54.0175 113.87ZM52.7015 113.604C52.7015 113.119 52.5941 112.703 52.3795 112.358C52.1648 112.003 51.8708 111.737 51.4975 111.56C51.1335 111.373 50.7275 111.28 50.2795 111.28C49.6355 111.28 49.0848 111.485 48.6275 111.896C48.1795 112.307 47.9228 112.876 47.8575 113.604H52.7015ZM56.9731 111.574C57.1971 111.135 57.5144 110.795 57.9251 110.552C58.3451 110.309 58.8538 110.188 59.4511 110.188V111.504H59.1151C57.6871 111.504 56.9731 112.279 56.9731 113.828V118H55.6991V110.328H56.9731V111.574ZM69.5402 112.974C69.8948 113.03 70.2168 113.175 70.5062 113.408C70.8048 113.641 71.0382 113.931 71.2062 114.276C71.3835 114.621 71.4722 114.99 71.4722 115.382C71.4722 115.877 71.3462 116.325 71.0942 116.726C70.8422 117.118 70.4735 117.431 69.9882 117.664C69.5122 117.888 68.9475 118 68.2942 118H64.6542V108.242H68.1542C68.8168 108.242 69.3815 108.354 69.8482 108.578C70.3148 108.793 70.6648 109.087 70.8982 109.46C71.1315 109.833 71.2482 110.253 71.2482 110.72C71.2482 111.299 71.0895 111.779 70.7722 112.162C70.4642 112.535 70.0535 112.806 69.5402 112.974ZM65.9282 112.456H68.0702C68.6675 112.456 69.1295 112.316 69.4562 112.036C69.7828 111.756 69.9462 111.369 69.9462 110.874C69.9462 110.379 69.7828 109.992 69.4562 109.712C69.1295 109.432 68.6582 109.292 68.0422 109.292H65.9282V112.456ZM68.1822 116.95C68.8168 116.95 69.3115 116.801 69.6662 116.502C70.0208 116.203 70.1982 115.788 70.1982 115.256C70.1982 114.715 70.0115 114.29 69.6382 113.982C69.2648 113.665 68.7655 113.506 68.1402 113.506H65.9282V116.95H68.1822ZM74.5141 108.242V118H73.2401V108.242H74.5141Z" fill="white"/>
<path d="M50 25C50 23.8954 50.8954 23 52 23H69C70.1046 23 71 23.8954 71 25V71C71 72.1046 70.1046 73 69 73H53C51.3431 73 50 71.6569 50 70V25Z" fill="#B0B0B0"/>
<path d="M36 36C36 34.8954 36.8954 34 38 34H55C56.1046 34 57 34.8954 57 36V73H39C37.3431 73 36 71.6569 36 70V36Z" fill="#D8D8D8"/>
<path d="M22 47C22 45.8954 22.8954 45 24 45H41C42.1046 45 43 45.8954 43 47V73H25C23.3431 73 22 71.6569 22 70V47Z" fill="white"/>
</svg>
