<svg width="93" height="125" viewBox="0 0 93 125" fill="none" xmlns="http://www.w3.org/2000/svg">
<rect width="93" height="95" rx="20" fill="#5C0E0A"/>
<path d="M30.6215 111.098C30.6215 111.91 30.3415 112.587 29.7815 113.128C29.2309 113.66 28.3862 113.926 27.2475 113.926H25.3715V118H24.0975V108.242H27.2475C28.3489 108.242 29.1842 108.508 29.7535 109.04C30.3322 109.572 30.6215 110.258 30.6215 111.098ZM27.2475 112.876C27.9569 112.876 28.4795 112.722 28.8155 112.414C29.1515 112.106 29.3195 111.667 29.3195 111.098C29.3195 109.894 28.6289 109.292 27.2475 109.292H25.3715V112.876H27.2475ZM38.813 110.328L34.193 121.612H32.877L34.389 117.916L31.295 110.328H32.709L35.117 116.544L37.497 110.328H38.813ZM41.6476 111.378V115.9C41.6476 116.273 41.727 116.539 41.8856 116.698C42.0443 116.847 42.3196 116.922 42.7116 116.922H43.6496V118H42.5016C41.7923 118 41.2603 117.837 40.9056 117.51C40.551 117.183 40.3736 116.647 40.3736 115.9V111.378H39.3796V110.328H40.3736V108.396H41.6476V110.328H43.6496V111.378H41.6476ZM49.0012 110.188C49.5799 110.188 50.1026 110.314 50.5692 110.566C51.0359 110.809 51.3999 111.177 51.6612 111.672C51.9319 112.167 52.0672 112.769 52.0672 113.478V118H50.8072V113.66C50.8072 112.895 50.6159 112.311 50.2332 111.91C49.8506 111.499 49.3279 111.294 48.6652 111.294C47.9932 111.294 47.4566 111.504 47.0552 111.924C46.6632 112.344 46.4672 112.955 46.4672 113.758V118H45.1932V107.64H46.4672V111.42C46.7192 111.028 47.0646 110.725 47.5032 110.51C47.9512 110.295 48.4506 110.188 49.0012 110.188ZM57.4943 118.126C56.7756 118.126 56.1223 117.963 55.5343 117.636C54.9556 117.309 54.4983 116.847 54.1623 116.25C53.8356 115.643 53.6723 114.943 53.6723 114.15C53.6723 113.366 53.8403 112.675 54.1763 112.078C54.5216 111.471 54.9883 111.009 55.5763 110.692C56.1643 110.365 56.8223 110.202 57.5503 110.202C58.2783 110.202 58.9363 110.365 59.5243 110.692C60.1123 111.009 60.5743 111.467 60.9103 112.064C61.2556 112.661 61.4283 113.357 61.4283 114.15C61.4283 114.943 61.251 115.643 60.8963 116.25C60.551 116.847 60.0796 117.309 59.4823 117.636C58.885 117.963 58.2223 118.126 57.4943 118.126ZM57.4943 117.006C57.9516 117.006 58.381 116.899 58.7823 116.684C59.1836 116.469 59.5056 116.147 59.7483 115.718C60.0003 115.289 60.1263 114.766 60.1263 114.15C60.1263 113.534 60.005 113.011 59.7623 112.582C59.5196 112.153 59.2023 111.835 58.8103 111.63C58.4183 111.415 57.9936 111.308 57.5363 111.308C57.0696 111.308 56.6403 111.415 56.2483 111.63C55.8656 111.835 55.5576 112.153 55.3243 112.582C55.091 113.011 54.9743 113.534 54.9743 114.15C54.9743 114.775 55.0863 115.303 55.3103 115.732C55.5436 116.161 55.8516 116.483 56.2343 116.698C56.617 116.903 57.037 117.006 57.4943 117.006ZM66.8414 110.188C67.7747 110.188 68.5307 110.473 69.1094 111.042C69.6881 111.602 69.9774 112.414 69.9774 113.478V118H68.7174V113.66C68.7174 112.895 68.5261 112.311 68.1434 111.91C67.7607 111.499 67.2381 111.294 66.5754 111.294C65.9034 111.294 65.3667 111.504 64.9654 111.924C64.5734 112.344 64.3774 112.955 64.3774 113.758V118H63.1034V110.328H64.3774V111.42C64.6294 111.028 64.9701 110.725 65.3994 110.51C65.8381 110.295 66.3187 110.188 66.8414 110.188Z" fill="white"/>
<path d="M70.995 40.4291C70.015 36.7028 68.2265 33.7741 64.4751 33.7741H59.4779V39.6316C59.4779 44.1553 55.5465 47.9696 51.3494 47.9696H38.0354C34.3754 47.9696 31.5155 51.0771 31.5155 54.7126V67.2251C31.5155 70.6818 34.644 72.8131 38.0354 73.9653C42.1467 75.2083 46.1639 75.4751 51.2553 73.9653C54.5609 72.9891 57.778 71.1273 57.778 67.2223V62.2531H44.6467V60.6581H64.4751C68.2265 60.6581 69.7464 57.9961 70.995 54.0031C72.335 49.6553 72.335 45.6623 70.995 40.4291ZM52.0581 65.2698C53.4009 65.2698 54.5609 66.4248 54.5609 67.7558C54.5609 69.0868 53.3981 70.2391 52.0609 70.2391C50.7209 70.3271 49.5581 69.0841 49.5581 67.7558C49.4695 66.4248 50.6296 65.2698 52.0609 65.2698M37.4153 46.2838H50.6351C54.2951 46.2838 57.155 43.2671 57.155 39.5408V27.2071C57.155 23.7476 54.1179 21.0856 50.6323 20.4641C46.258 19.8453 41.4324 19.8453 37.4153 20.4641C31.7868 21.4403 30.8926 23.4808 30.8926 27.2071V32.1763H44.1124V33.7713H26.067C22.3156 33.7713 18.9214 36.1693 17.9385 40.4263C16.6872 45.3956 16.6872 48.5003 17.9385 53.6483C18.9214 57.5533 21.067 60.3033 24.9956 60.3033H29.2841V54.3578C29.1927 50.0101 33.0354 46.2838 37.4125 46.2838M36.6096 28.8048C35.9505 28.7915 35.3221 28.5257 34.8557 28.0629C34.3893 27.6001 34.121 26.9762 34.1069 26.3216C34.1069 24.9906 35.2697 23.8356 36.6069 23.8356C37.9441 23.8356 39.1096 24.9906 39.1096 26.3216C39.1096 27.6526 37.9496 28.8048 36.6096 28.8048Z" fill="white"/>
</svg>
