<svg width="93" height="125" viewBox="0 0 93 125" fill="none" xmlns="http://www.w3.org/2000/svg">
<rect width="93" height="95" rx="20" fill="#5C0E0A"/>
<path d="M25.2639 118L22.9399 114.01H21.3999V118H20.1259V108.242H23.2759C24.0132 108.242 24.6339 108.368 25.1379 108.62C25.6512 108.872 26.0339 109.213 26.2859 109.642C26.5379 110.071 26.6639 110.561 26.6639 111.112C26.6639 111.784 26.4679 112.377 26.0759 112.89C25.6932 113.403 25.1145 113.744 24.3399 113.912L26.7899 118H25.2639ZM21.3999 112.988H23.2759C23.9665 112.988 24.4845 112.82 24.8299 112.484C25.1752 112.139 25.3479 111.681 25.3479 111.112C25.3479 110.533 25.1752 110.085 24.8299 109.768C24.4939 109.451 23.9759 109.292 23.2759 109.292H21.3999V112.988ZM35.6434 113.87C35.6434 114.113 35.6294 114.369 35.6014 114.64H29.4694C29.5161 115.396 29.7728 115.989 30.2394 116.418C30.7154 116.838 31.2894 117.048 31.9614 117.048C32.5121 117.048 32.9694 116.922 33.3334 116.67C33.7068 116.409 33.9681 116.063 34.1174 115.634H35.4894C35.2841 116.371 34.8734 116.973 34.2574 117.44C33.6414 117.897 32.8761 118.126 31.9614 118.126C31.2334 118.126 30.5801 117.963 30.0014 117.636C29.4321 117.309 28.9841 116.847 28.6574 116.25C28.3308 115.643 28.1674 114.943 28.1674 114.15C28.1674 113.357 28.3261 112.661 28.6434 112.064C28.9608 111.467 29.4041 111.009 29.9734 110.692C30.5521 110.365 31.2148 110.202 31.9614 110.202C32.6894 110.202 33.3334 110.361 33.8934 110.678C34.4534 110.995 34.8828 111.434 35.1814 111.994C35.4894 112.545 35.6434 113.17 35.6434 113.87ZM34.3274 113.604C34.3274 113.119 34.2201 112.703 34.0054 112.358C33.7908 112.003 33.4968 111.737 33.1234 111.56C32.7594 111.373 32.3534 111.28 31.9054 111.28C31.2614 111.28 30.7108 111.485 30.2534 111.896C29.8054 112.307 29.5488 112.876 29.4834 113.604H34.3274ZM36.8491 114.136C36.8491 113.352 37.0077 112.666 37.3251 112.078C37.6424 111.481 38.0764 111.019 38.6271 110.692C39.1871 110.365 39.8077 110.202 40.4891 110.202C41.1611 110.202 41.7444 110.347 42.2391 110.636C42.7337 110.925 43.1024 111.289 43.3451 111.728V110.328H44.6331V118H43.3451V116.572C43.0931 117.02 42.7151 117.393 42.2111 117.692C41.7164 117.981 41.1377 118.126 40.4751 118.126C39.7937 118.126 39.1777 117.958 38.6271 117.622C38.0764 117.286 37.6424 116.815 37.3251 116.208C37.0077 115.601 36.8491 114.911 36.8491 114.136ZM43.3451 114.15C43.3451 113.571 43.2284 113.067 42.9951 112.638C42.7617 112.209 42.4444 111.882 42.0431 111.658C41.6511 111.425 41.2171 111.308 40.7411 111.308C40.2651 111.308 39.8311 111.42 39.4391 111.644C39.0471 111.868 38.7344 112.195 38.5011 112.624C38.2677 113.053 38.1511 113.557 38.1511 114.136C38.1511 114.724 38.2677 115.237 38.5011 115.676C38.7344 116.105 39.0471 116.437 39.4391 116.67C39.8311 116.894 40.2651 117.006 40.7411 117.006C41.2171 117.006 41.6511 116.894 42.0431 116.67C42.4444 116.437 42.7617 116.105 42.9951 115.676C43.2284 115.237 43.3451 114.729 43.3451 114.15ZM46.31 114.15C46.31 113.357 46.4687 112.666 46.786 112.078C47.1033 111.481 47.542 111.019 48.102 110.692C48.6713 110.365 49.32 110.202 50.048 110.202C50.9907 110.202 51.7653 110.431 52.372 110.888C52.988 111.345 53.394 111.98 53.59 112.792H52.218C52.0873 112.325 51.8307 111.957 51.448 111.686C51.0747 111.415 50.608 111.28 50.048 111.28C49.32 111.28 48.732 111.532 48.284 112.036C47.836 112.531 47.612 113.235 47.612 114.15C47.612 115.074 47.836 115.788 48.284 116.292C48.732 116.796 49.32 117.048 50.048 117.048C50.608 117.048 51.0747 116.917 51.448 116.656C51.8213 116.395 52.078 116.021 52.218 115.536H53.59C53.3847 116.32 52.974 116.95 52.358 117.426C51.742 117.893 50.972 118.126 50.048 118.126C49.32 118.126 48.6713 117.963 48.102 117.636C47.542 117.309 47.1033 116.847 46.786 116.25C46.4687 115.653 46.31 114.953 46.31 114.15ZM56.8439 111.378V115.9C56.8439 116.273 56.9232 116.539 57.0819 116.698C57.2406 116.847 57.5159 116.922 57.9079 116.922H58.8459V118H57.6979C56.9886 118 56.4566 117.837 56.1019 117.51C55.7472 117.183 55.5699 116.647 55.5699 115.9V111.378H54.5759V110.328H55.5699V108.396H56.8439V110.328H58.8459V111.378H56.8439ZM65.3035 108.242V115.452C65.3035 116.255 65.0562 116.899 64.5615 117.384C64.0669 117.86 63.4135 118.098 62.6015 118.098C61.7802 118.098 61.1222 117.855 60.6275 117.37C60.1329 116.875 59.8855 116.203 59.8855 115.354H61.1595C61.1689 115.83 61.2902 116.217 61.5235 116.516C61.7662 116.815 62.1255 116.964 62.6015 116.964C63.0775 116.964 63.4322 116.824 63.6655 116.544C63.8989 116.255 64.0155 115.891 64.0155 115.452V108.242H65.3035ZM70.9074 118.098C70.2634 118.098 69.6847 117.986 69.1714 117.762C68.6674 117.529 68.2707 117.211 67.9814 116.81C67.692 116.399 67.5427 115.928 67.5334 115.396H68.8914C68.938 115.853 69.1247 116.241 69.4514 116.558C69.7874 116.866 70.2727 117.02 70.9074 117.02C71.514 117.02 71.99 116.871 72.3354 116.572C72.69 116.264 72.8674 115.872 72.8674 115.396C72.8674 115.023 72.7647 114.719 72.5594 114.486C72.354 114.253 72.0974 114.075 71.7894 113.954C71.4814 113.833 71.066 113.702 70.5434 113.562C69.8994 113.394 69.3814 113.226 68.9894 113.058C68.6067 112.89 68.2754 112.629 67.9954 112.274C67.7247 111.91 67.5894 111.425 67.5894 110.818C67.5894 110.286 67.7247 109.815 67.9954 109.404C68.266 108.993 68.644 108.676 69.1294 108.452C69.624 108.228 70.1887 108.116 70.8234 108.116C71.738 108.116 72.4847 108.345 73.0634 108.802C73.6514 109.259 73.9827 109.866 74.0574 110.622H72.6574C72.6107 110.249 72.4147 109.922 72.0694 109.642C71.724 109.353 71.2667 109.208 70.6974 109.208C70.1654 109.208 69.7314 109.348 69.3954 109.628C69.0594 109.899 68.8914 110.281 68.8914 110.776C68.8914 111.131 68.9894 111.42 69.1854 111.644C69.3907 111.868 69.638 112.041 69.9274 112.162C70.226 112.274 70.6414 112.405 71.1734 112.554C71.8174 112.731 72.3354 112.909 72.7274 113.086C73.1194 113.254 73.4554 113.52 73.7354 113.884C74.0154 114.239 74.1554 114.724 74.1554 115.34C74.1554 115.816 74.0294 116.264 73.7774 116.684C73.5254 117.104 73.152 117.445 72.6574 117.706C72.1627 117.967 71.5794 118.098 70.9074 118.098Z" fill="white"/>
<path d="M47.0014 52.1611C45.9026 52.1611 44.8488 51.7226 44.0718 50.942C43.2948 50.1614 42.8583 49.1027 42.8583 47.9988C42.8583 46.8949 43.2948 45.8362 44.0718 45.0557C44.8488 44.2751 45.9026 43.8366 47.0014 43.8366C48.1002 43.8366 49.154 44.2751 49.931 45.0557C50.7079 45.8362 51.1444 46.8949 51.1444 47.9988C51.1444 49.1027 50.7079 50.1614 49.931 50.942C49.154 51.7226 48.1002 52.1611 47.0014 52.1611ZM45.543 60.469C46.0255 61.0536 46.5116 61.6169 47.0014 62.1589C47.4912 61.6187 47.9773 61.0554 48.4597 60.469C47.4876 60.4896 46.5152 60.4896 45.543 60.469ZM40.0328 60.1222C37.912 59.8995 35.805 59.5595 33.7215 59.1038C33.5134 60.075 33.3569 61.0138 33.252 61.9203C32.7272 66.3129 33.4591 68.9823 34.5722 69.626C35.6853 70.2698 38.3507 69.5733 41.8778 66.9233C42.6051 66.3757 43.3362 65.7699 44.0709 65.1058C42.6346 63.5205 41.2865 61.8567 40.0328 60.1222ZM60.2812 59.1038C58.1977 59.5595 56.0908 59.8995 53.97 60.1222C52.7162 61.8567 51.3682 63.5205 49.9319 65.1058C50.6684 65.7718 51.3995 66.3776 52.125 66.9233C55.6521 69.5733 58.3174 70.2726 59.4305 69.626C60.5436 68.9823 61.2728 66.3129 60.7536 61.9203C60.6409 60.9746 60.4814 60.0347 60.2812 59.1038ZM64.289 58.0271C65.8827 65.35 65.0458 71.1799 61.5048 73.2333C57.9639 75.2867 52.5199 73.1001 47.0041 68.0527C41.4884 73.1001 36.0444 75.2839 32.5035 73.2306C28.9625 71.1772 28.1256 65.35 29.7166 58.0244C22.6043 55.7518 18 52.1056 18 47.9988C18 43.8921 22.6043 40.2487 29.7138 37.9733C28.1229 30.6477 28.9598 24.8205 32.5007 22.7671C36.0416 20.7137 41.4856 22.8975 47.0014 27.945C52.5172 22.8975 57.9611 20.7137 61.5021 22.7671C65.043 24.8205 65.8799 30.6477 64.289 37.9733C71.3957 40.2487 76 43.8921 76 47.9988C76 52.1056 71.3957 55.7518 64.289 58.0271ZM44.0681 30.8919C43.3352 30.2278 42.6051 29.6219 41.8778 29.0743C38.3507 26.4244 35.6853 25.7251 34.5695 26.3716C33.4564 27.0154 32.7272 29.6848 33.2464 34.0802C33.3569 34.9866 33.5134 35.9255 33.716 36.8967C35.8004 36.4399 37.9082 36.099 40.03 35.8755C41.3447 34.0608 42.6908 32.3995 44.0681 30.8919ZM53.97 35.8755C56.0908 36.0991 58.1978 36.44 60.2812 36.8967C60.4893 35.9236 60.6458 34.9848 60.7508 34.0802C61.2756 29.6848 60.5436 27.0154 59.4305 26.3716C58.3174 25.7279 55.6521 26.4244 52.125 29.0743C51.3976 29.6219 50.6666 30.2278 49.9319 30.8919C51.3092 32.3995 52.6553 34.0608 53.97 35.8755ZM48.4597 35.5287C47.9773 34.9441 47.4912 34.3808 47.0014 33.8388C46.5134 34.3808 46.0273 34.9441 45.543 35.5287C46.5152 35.508 47.4876 35.508 48.4597 35.5287ZM36.9807 55.502C36.4769 54.667 35.9907 53.8214 35.5224 52.9658C35.259 53.678 35.0169 54.3828 34.7959 55.0803C35.5067 55.2338 36.234 55.3744 36.978 55.502M42.3142 56.1513C45.4329 56.383 48.5643 56.383 51.683 56.1513C53.4431 53.5535 55.0097 50.8286 56.3702 47.9988C55.0106 45.1692 53.4449 42.4443 51.6858 39.8463C48.5671 39.6147 45.4357 39.6147 42.317 39.8463C40.5579 42.4443 38.9921 45.1692 37.6326 47.9988C38.9921 50.8285 40.5579 53.5534 42.317 56.1513M58.4804 43.0318C58.7437 42.3196 58.9859 41.6158 59.2068 40.9202C58.4827 40.7624 57.7552 40.6208 57.0248 40.4956C57.5277 41.3307 58.013 42.1763 58.4804 43.0318ZM30.7882 41.9968C29.8491 42.3021 28.9616 42.635 28.1256 42.9958C24.0792 44.7384 22.1431 46.7085 22.1431 47.9988C22.1431 49.2891 24.0765 51.2593 28.1256 53.0019C28.9616 53.3626 29.8491 53.6956 30.7882 54.0008C31.4014 52.0584 32.161 50.0439 33.0669 47.9988C32.1981 46.0418 31.4374 44.0381 30.7882 41.9968ZM34.7932 40.9202C35.016 41.6139 35.259 42.3169 35.5224 43.0291C35.9907 42.1744 36.4769 41.3297 36.9807 40.4956C36.235 40.6233 35.5039 40.7648 34.7932 40.9202ZM63.2173 54.0008C64.1564 53.6956 65.0439 53.3626 65.8799 53.0019C69.9235 51.2593 71.8569 49.2891 71.8569 47.9988C71.8569 46.7085 69.9235 44.7384 65.8744 42.9958C65.0384 42.635 64.1499 42.3021 63.209 41.9968C62.6014 43.9392 61.839 45.9538 60.9331 47.9988C61.839 50.0439 62.5986 52.0584 63.2118 54.0008M59.2068 55.0803C58.9822 54.3828 58.7391 53.678 58.4776 52.9658C58.0093 53.8214 57.5231 54.667 57.0193 55.502C57.765 55.3725 58.4961 55.2319 59.2068 55.0803Z" fill="white"/>
</svg>
