<svg width="93" height="125" viewBox="0 0 93 125" fill="none" xmlns="http://www.w3.org/2000/svg">
<rect width="93" height="95" rx="20" fill="#5C0E0A"/>
<path d="M8.5285 118L6.2045 114.01H4.6645V118H3.3905V108.242H6.5405C7.27783 108.242 7.8985 108.368 8.4025 108.62C8.91583 108.872 9.2985 109.213 9.5505 109.642C9.8025 110.071 9.9285 110.561 9.9285 111.112C9.9285 111.784 9.7325 112.377 9.3405 112.89C8.95783 113.403 8.37917 113.744 7.6045 113.912L10.0545 118H8.5285ZM4.6645 112.988H6.5405C7.23117 112.988 7.74917 112.82 8.0945 112.484C8.43983 112.139 8.6125 111.681 8.6125 111.112C8.6125 110.533 8.43983 110.085 8.0945 109.768C7.7585 109.451 7.2405 109.292 6.5405 109.292H4.6645V112.988ZM18.9081 113.87C18.9081 114.113 18.8941 114.369 18.8661 114.64H12.7341C12.7807 115.396 13.0374 115.989 13.5041 116.418C13.9801 116.838 14.5541 117.048 15.2261 117.048C15.7767 117.048 16.2341 116.922 16.5981 116.67C16.9714 116.409 17.2327 116.063 17.3821 115.634H18.7541C18.5487 116.371 18.1381 116.973 17.5221 117.44C16.9061 117.897 16.1407 118.126 15.2261 118.126C14.4981 118.126 13.8447 117.963 13.2661 117.636C12.6967 117.309 12.2487 116.847 11.9221 116.25C11.5954 115.643 11.4321 114.943 11.4321 114.15C11.4321 113.357 11.5907 112.661 11.9081 112.064C12.2254 111.467 12.6687 111.009 13.2381 110.692C13.8167 110.365 14.4794 110.202 15.2261 110.202C15.9541 110.202 16.5981 110.361 17.1581 110.678C17.7181 110.995 18.1474 111.434 18.4461 111.994C18.7541 112.545 18.9081 113.17 18.9081 113.87ZM17.5921 113.604C17.5921 113.119 17.4847 112.703 17.2701 112.358C17.0554 112.003 16.7614 111.737 16.3881 111.56C16.0241 111.373 15.6181 111.28 15.1701 111.28C14.5261 111.28 13.9754 111.485 13.5181 111.896C13.0701 112.307 12.8134 112.876 12.7481 113.604H17.5921ZM20.1137 114.136C20.1137 113.352 20.2724 112.666 20.5897 112.078C20.9071 111.481 21.3411 111.019 21.8917 110.692C22.4517 110.365 23.0724 110.202 23.7537 110.202C24.4257 110.202 25.0091 110.347 25.5037 110.636C25.9984 110.925 26.3671 111.289 26.6097 111.728V110.328H27.8977V118H26.6097V116.572C26.3577 117.02 25.9797 117.393 25.4757 117.692C24.9811 117.981 24.4024 118.126 23.7397 118.126C23.0584 118.126 22.4424 117.958 21.8917 117.622C21.3411 117.286 20.9071 116.815 20.5897 116.208C20.2724 115.601 20.1137 114.911 20.1137 114.136ZM26.6097 114.15C26.6097 113.571 26.4931 113.067 26.2597 112.638C26.0264 112.209 25.7091 111.882 25.3077 111.658C24.9157 111.425 24.4817 111.308 24.0057 111.308C23.5297 111.308 23.0957 111.42 22.7037 111.644C22.3117 111.868 21.9991 112.195 21.7657 112.624C21.5324 113.053 21.4157 113.557 21.4157 114.136C21.4157 114.724 21.5324 115.237 21.7657 115.676C21.9991 116.105 22.3117 116.437 22.7037 116.67C23.0957 116.894 23.5297 117.006 24.0057 117.006C24.4817 117.006 24.9157 116.894 25.3077 116.67C25.7091 116.437 26.0264 116.105 26.2597 115.676C26.4931 115.237 26.6097 114.729 26.6097 114.15ZM29.5747 114.15C29.5747 113.357 29.7333 112.666 30.0507 112.078C30.368 111.481 30.8067 111.019 31.3667 110.692C31.936 110.365 32.5847 110.202 33.3127 110.202C34.2553 110.202 35.03 110.431 35.6367 110.888C36.2527 111.345 36.6587 111.98 36.8547 112.792H35.4827C35.352 112.325 35.0953 111.957 34.7127 111.686C34.3393 111.415 33.8727 111.28 33.3127 111.28C32.5847 111.28 31.9967 111.532 31.5487 112.036C31.1007 112.531 30.8767 113.235 30.8767 114.15C30.8767 115.074 31.1007 115.788 31.5487 116.292C31.9967 116.796 32.5847 117.048 33.3127 117.048C33.8727 117.048 34.3393 116.917 34.7127 116.656C35.086 116.395 35.3427 116.021 35.4827 115.536H36.8547C36.6493 116.32 36.2387 116.95 35.6227 117.426C35.0067 117.893 34.2367 118.126 33.3127 118.126C32.5847 118.126 31.936 117.963 31.3667 117.636C30.8067 117.309 30.368 116.847 30.0507 116.25C29.7333 115.653 29.5747 114.953 29.5747 114.15ZM40.1086 111.378V115.9C40.1086 116.273 40.1879 116.539 40.3466 116.698C40.5052 116.847 40.7806 116.922 41.1726 116.922H42.1106V118H40.9626C40.2532 118 39.7212 117.837 39.3666 117.51C39.0119 117.183 38.8346 116.647 38.8346 115.9V111.378H37.8406V110.328H38.8346V108.396H40.1086V110.328H42.1106V111.378H40.1086ZM55.0586 118H53.7846L48.6606 110.23V118H47.3866V108.228H48.6606L53.7846 115.984V108.228H55.0586V118ZM56.7543 114.136C56.7543 113.352 56.913 112.666 57.2303 112.078C57.5477 111.481 57.9817 111.019 58.5323 110.692C59.0923 110.365 59.713 110.202 60.3943 110.202C61.0663 110.202 61.6497 110.347 62.1443 110.636C62.639 110.925 63.0077 111.289 63.2503 111.728V110.328H64.5383V118H63.2503V116.572C62.9983 117.02 62.6203 117.393 62.1163 117.692C61.6217 117.981 61.043 118.126 60.3803 118.126C59.699 118.126 59.083 117.958 58.5323 117.622C57.9817 117.286 57.5477 116.815 57.2303 116.208C56.913 115.601 56.7543 114.911 56.7543 114.136ZM63.2503 114.15C63.2503 113.571 63.1337 113.067 62.9003 112.638C62.667 112.209 62.3497 111.882 61.9483 111.658C61.5563 111.425 61.1223 111.308 60.6463 111.308C60.1703 111.308 59.7363 111.42 59.3443 111.644C58.9523 111.868 58.6397 112.195 58.4063 112.624C58.173 113.053 58.0563 113.557 58.0563 114.136C58.0563 114.724 58.173 115.237 58.4063 115.676C58.6397 116.105 58.9523 116.437 59.3443 116.67C59.7363 116.894 60.1703 117.006 60.6463 117.006C61.1223 117.006 61.5563 116.894 61.9483 116.67C62.3497 116.437 62.667 116.105 62.9003 115.676C63.1337 115.237 63.2503 114.729 63.2503 114.15ZM68.2453 111.378V115.9C68.2453 116.273 68.3246 116.539 68.4833 116.698C68.6419 116.847 68.9173 116.922 69.3093 116.922H70.2473V118H69.0993C68.3899 118 67.8579 117.837 67.5033 117.51C67.1486 117.183 66.9713 116.647 66.9713 115.9V111.378H65.9773V110.328H66.9713V108.396H68.2453V110.328H70.2473V111.378H68.2453ZM72.4489 109.082C72.2062 109.082 72.0009 108.998 71.8329 108.83C71.6649 108.662 71.5809 108.457 71.5809 108.214C71.5809 107.971 71.6649 107.766 71.8329 107.598C72.0009 107.43 72.2062 107.346 72.4489 107.346C72.6822 107.346 72.8782 107.43 73.0369 107.598C73.2049 107.766 73.2889 107.971 73.2889 108.214C73.2889 108.457 73.2049 108.662 73.0369 108.83C72.8782 108.998 72.6822 109.082 72.4489 109.082ZM73.0649 110.328V118H71.7909V110.328H73.0649ZM78.0922 116.824L80.4722 110.328H81.8302L78.8202 118H77.3362L74.3262 110.328H75.6982L78.0922 116.824ZM90.0839 113.87C90.0839 114.113 90.0699 114.369 90.0419 114.64H83.9099C83.9565 115.396 84.2132 115.989 84.6799 116.418C85.1559 116.838 85.7299 117.048 86.4019 117.048C86.9525 117.048 87.4099 116.922 87.7739 116.67C88.1472 116.409 88.4085 116.063 88.5579 115.634H89.9299C89.7245 116.371 89.3139 116.973 88.6979 117.44C88.0819 117.897 87.3165 118.126 86.4019 118.126C85.6739 118.126 85.0205 117.963 84.4419 117.636C83.8725 117.309 83.4245 116.847 83.0979 116.25C82.7712 115.643 82.6079 114.943 82.6079 114.15C82.6079 113.357 82.7665 112.661 83.0839 112.064C83.4012 111.467 83.8445 111.009 84.4139 110.692C84.9925 110.365 85.6552 110.202 86.4019 110.202C87.1299 110.202 87.7739 110.361 88.3339 110.678C88.8939 110.995 89.3232 111.434 89.6219 111.994C89.9299 112.545 90.0839 113.17 90.0839 113.87ZM88.7679 113.604C88.7679 113.119 88.6605 112.703 88.4459 112.358C88.2312 112.003 87.9372 111.737 87.5639 111.56C87.1999 111.373 86.7939 111.28 86.3459 111.28C85.7019 111.28 85.1512 111.485 84.6939 111.896C84.2459 112.307 83.9892 112.876 83.9239 113.604H88.7679Z" fill="white"/>
<path d="M36.3857 78H35.1257L30.5417 70.884H30.4937C30.5017 71.028 30.5097 71.188 30.5177 71.364C30.5337 71.54 30.5457 71.732 30.5537 71.94C30.5617 72.14 30.5697 72.348 30.5777 72.564C30.5857 72.78 30.5897 72.996 30.5897 73.212V78H29.5937V69.432H30.8417L35.4137 76.524H35.4617C35.4537 76.428 35.4457 76.296 35.4377 76.128C35.4297 75.952 35.4217 75.76 35.4137 75.552C35.4057 75.336 35.3977 75.116 35.3897 74.892C35.3817 74.668 35.3777 74.46 35.3777 74.268V69.432H36.3857V78ZM41.0029 71.46C41.7869 71.46 42.3669 71.632 42.7429 71.976C43.1189 72.32 43.3069 72.868 43.3069 73.62V78H42.5389L42.3349 77.088H42.2869C42.1029 77.32 41.9109 77.516 41.7109 77.676C41.5189 77.828 41.2949 77.94 41.0389 78.012C40.7909 78.084 40.4869 78.12 40.1269 78.12C39.7429 78.12 39.3949 78.052 39.0829 77.916C38.7789 77.78 38.5389 77.572 38.3629 77.292C38.1869 77.004 38.0989 76.644 38.0989 76.212C38.0989 75.572 38.3509 75.08 38.8549 74.736C39.3589 74.384 40.1349 74.192 41.1829 74.16L42.2749 74.124V73.74C42.2749 73.204 42.1589 72.832 41.9269 72.624C41.6949 72.416 41.3669 72.312 40.9429 72.312C40.6069 72.312 40.2869 72.364 39.9829 72.468C39.6789 72.564 39.3949 72.676 39.1309 72.804L38.8069 72.012C39.0869 71.86 39.4189 71.732 39.8029 71.628C40.1869 71.516 40.5869 71.46 41.0029 71.46ZM41.3149 74.892C40.5149 74.924 39.9589 75.052 39.6469 75.276C39.3429 75.5 39.1909 75.816 39.1909 76.224C39.1909 76.584 39.2989 76.848 39.5149 77.016C39.7389 77.184 40.0229 77.268 40.3669 77.268C40.9109 77.268 41.3629 77.12 41.7229 76.824C42.0829 76.52 42.2629 76.056 42.2629 75.432V74.856L41.3149 74.892ZM47.4414 77.256C47.6014 77.256 47.7654 77.244 47.9334 77.22C48.1014 77.188 48.2374 77.156 48.3414 77.124V77.928C48.2294 77.984 48.0694 78.028 47.8614 78.06C47.6534 78.1 47.4534 78.12 47.2614 78.12C46.9254 78.12 46.6134 78.064 46.3254 77.952C46.0454 77.832 45.8174 77.628 45.6414 77.34C45.4654 77.052 45.3774 76.648 45.3774 76.128V72.384H44.4654V71.88L45.3894 71.46L45.8094 70.092H46.4334V71.568H48.2934V72.384H46.4334V76.104C46.4334 76.496 46.5254 76.788 46.7094 76.98C46.9014 77.164 47.1454 77.256 47.4414 77.256ZM50.6854 71.568V78H49.6294V71.568H50.6854ZM50.1694 69.156C50.3294 69.156 50.4694 69.212 50.5894 69.324C50.7174 69.428 50.7814 69.596 50.7814 69.828C50.7814 70.052 50.7174 70.22 50.5894 70.332C50.4694 70.444 50.3294 70.5 50.1694 70.5C49.9934 70.5 49.8454 70.444 49.7254 70.332C49.6054 70.22 49.5454 70.052 49.5454 69.828C49.5454 69.596 49.6054 69.428 49.7254 69.324C49.8454 69.212 49.9934 69.156 50.1694 69.156ZM54.1391 78L51.7031 71.568H52.8311L54.1991 75.36C54.2631 75.536 54.3311 75.732 54.4031 75.948C54.4751 76.164 54.5391 76.372 54.5951 76.572C54.6511 76.764 54.6911 76.928 54.7151 77.064H54.7631C54.7951 76.928 54.8391 76.76 54.8951 76.56C54.9591 76.36 55.0271 76.152 55.0991 75.936C55.1791 75.72 55.2471 75.528 55.3031 75.36L56.6711 71.568H57.7991L55.3511 78H54.1391ZM61.3009 71.448C61.8529 71.448 62.3249 71.568 62.7169 71.808C63.1169 72.048 63.4209 72.388 63.6289 72.828C63.8449 73.26 63.9529 73.768 63.9529 74.352V74.988H59.5489C59.5649 75.716 59.7489 76.272 60.1009 76.656C60.4609 77.032 60.9609 77.22 61.6009 77.22C62.0089 77.22 62.3689 77.184 62.6809 77.112C63.0009 77.032 63.3289 76.92 63.6649 76.776V77.7C63.3369 77.844 63.0129 77.948 62.6929 78.012C62.3729 78.084 61.9929 78.12 61.5529 78.12C60.9449 78.12 60.4049 77.996 59.9329 77.748C59.4689 77.5 59.1049 77.132 58.8409 76.644C58.5849 76.148 58.4569 75.544 58.4569 74.832C58.4569 74.128 58.5729 73.524 58.8049 73.02C59.0449 72.516 59.3769 72.128 59.8009 71.856C60.2329 71.584 60.7329 71.448 61.3009 71.448ZM61.2889 72.312C60.7849 72.312 60.3849 72.476 60.0889 72.804C59.8009 73.124 59.6289 73.572 59.5729 74.148H62.8489C62.8489 73.78 62.7929 73.46 62.6809 73.188C62.5689 72.916 62.3969 72.704 62.1649 72.552C61.9409 72.392 61.6489 72.312 61.2889 72.312Z" fill="white" fill-opacity="0.8"/>
<path d="M46.0014 46.1611C44.9026 46.1611 43.8488 45.7226 43.0718 44.942C42.2948 44.1614 41.8583 43.1027 41.8583 41.9988C41.8583 40.8949 42.2948 39.8362 43.0718 39.0557C43.8488 38.2751 44.9026 37.8366 46.0014 37.8366C47.1002 37.8366 48.154 38.2751 48.931 39.0557C49.7079 39.8362 50.1444 40.8949 50.1444 41.9988C50.1444 43.1027 49.7079 44.1614 48.931 44.942C48.154 45.7226 47.1002 46.1611 46.0014 46.1611ZM44.543 54.469C45.0255 55.0536 45.5116 55.6169 46.0014 56.1589C46.4912 55.6187 46.9773 55.0554 47.4597 54.469C46.4876 54.4896 45.5152 54.4896 44.543 54.469ZM39.0328 54.1222C36.912 53.8995 34.805 53.5595 32.7215 53.1038C32.5134 54.075 32.3569 55.0138 32.252 55.9203C31.7272 60.3129 32.4591 62.9823 33.5722 63.626C34.6853 64.2698 37.3507 63.5733 40.8778 60.9233C41.6051 60.3757 42.3362 59.7699 43.0709 59.1058C41.6346 57.5205 40.2865 55.8567 39.0328 54.1222ZM59.2812 53.1038C57.1977 53.5595 55.0908 53.8995 52.97 54.1222C51.7162 55.8567 50.3682 57.5205 48.9319 59.1058C49.6684 59.7718 50.3995 60.3776 51.125 60.9233C54.6521 63.5733 57.3174 64.2726 58.4305 63.626C59.5436 62.9823 60.2728 60.3129 59.7536 55.9203C59.6409 54.9746 59.4814 54.0347 59.2812 53.1038ZM63.289 52.0271C64.8827 59.35 64.0458 65.1799 60.5048 67.2333C56.9639 69.2867 51.5199 67.1001 46.0041 62.0527C40.4884 67.1001 35.0444 69.2839 31.5035 67.2306C27.9625 65.1772 27.1256 59.35 28.7166 52.0244C21.6043 49.7518 17 46.1056 17 41.9988C17 37.8921 21.6043 34.2487 28.7138 31.9733C27.1229 24.6477 27.9598 18.8205 31.5007 16.7671C35.0416 14.7137 40.4856 16.8975 46.0014 21.945C51.5172 16.8975 56.9611 14.7137 60.5021 16.7671C64.043 18.8205 64.8799 24.6477 63.289 31.9733C70.3957 34.2487 75 37.8921 75 41.9988C75 46.1056 70.3957 49.7518 63.289 52.0271ZM43.0681 24.8919C42.3352 24.2278 41.6051 23.6219 40.8778 23.0743C37.3507 20.4244 34.6853 19.7251 33.5695 20.3716C32.4564 21.0154 31.7272 23.6848 32.2464 28.0802C32.3569 28.9866 32.5134 29.9255 32.716 30.8967C34.8004 30.4399 36.9082 30.099 39.03 29.8755C40.3447 28.0608 41.6908 26.3995 43.0681 24.8919ZM52.97 29.8755C55.0908 30.0991 57.1978 30.44 59.2812 30.8967C59.4893 29.9236 59.6458 28.9848 59.7508 28.0802C60.2756 23.6848 59.5436 21.0154 58.4305 20.3716C57.3174 19.7279 54.6521 20.4244 51.125 23.0743C50.3976 23.6219 49.6666 24.2278 48.9319 24.8919C50.3092 26.3995 51.6553 28.0608 52.97 29.8755ZM47.4597 29.5287C46.9773 28.9441 46.4912 28.3808 46.0014 27.8388C45.5134 28.3808 45.0273 28.9441 44.543 29.5287C45.5152 29.508 46.4876 29.508 47.4597 29.5287ZM35.9807 49.502C35.4769 48.667 34.9907 47.8214 34.5224 46.9658C34.259 47.678 34.0169 48.3828 33.7959 49.0803C34.5067 49.2338 35.234 49.3744 35.978 49.502M41.3142 50.1513C44.4329 50.383 47.5643 50.383 50.683 50.1513C52.4431 47.5535 54.0097 44.8286 55.3702 41.9988C54.0106 39.1692 52.4449 36.4443 50.6858 33.8463C47.5671 33.6147 44.4357 33.6147 41.317 33.8463C39.5579 36.4443 37.9921 39.1692 36.6326 41.9988C37.9921 44.8285 39.5579 47.5534 41.317 50.1513M57.4804 37.0318C57.7437 36.3196 57.9859 35.6158 58.2068 34.9202C57.4827 34.7624 56.7552 34.6208 56.0248 34.4956C56.5277 35.3307 57.013 36.1763 57.4804 37.0318ZM29.7882 35.9968C28.8491 36.3021 27.9616 36.635 27.1256 36.9958C23.0792 38.7384 21.1431 40.7085 21.1431 41.9988C21.1431 43.2891 23.0765 45.2593 27.1256 47.0019C27.9616 47.3626 28.8491 47.6956 29.7882 48.0008C30.4014 46.0584 31.161 44.0439 32.0669 41.9988C31.1981 40.0418 30.4374 38.0381 29.7882 35.9968ZM33.7932 34.9202C34.016 35.6139 34.259 36.3169 34.5224 37.0291C34.9907 36.1744 35.4769 35.3297 35.9807 34.4956C35.235 34.6233 34.5039 34.7648 33.7932 34.9202ZM62.2173 48.0008C63.1564 47.6956 64.0439 47.3626 64.8799 47.0019C68.9235 45.2593 70.8569 43.2891 70.8569 41.9988C70.8569 40.7085 68.9235 38.7384 64.8744 36.9958C64.0384 36.635 63.1499 36.3021 62.209 35.9968C61.6014 37.9392 60.839 39.9538 59.9331 41.9988C60.839 44.0439 61.5986 46.0584 62.2118 48.0008M58.2068 49.0803C57.9822 48.3828 57.7391 47.678 57.4776 46.9658C57.0093 47.8214 56.5231 48.667 56.0193 49.502C56.765 49.3725 57.4961 49.2319 58.2068 49.0803Z" fill="white"/>
</svg>
