<svg width="1375" height="49" viewBox="0 0 1375 49" fill="none" xmlns="http://www.w3.org/2000/svg">
<path d="M15.192 48.512C12.248 48.512 9.41067 48.1707 6.68 47.488C3.992 46.7627 1.85867 45.8667 0.28 44.8L3.608 37.632C5.18667 38.6133 7.04267 39.424 9.176 40.064C11.352 40.6613 13.4853 40.96 15.576 40.96C17.88 40.96 19.5013 40.6827 20.44 40.128C21.4213 39.5733 21.912 38.8053 21.912 37.824C21.912 37.0133 21.528 36.416 20.76 36.032C20.0347 35.6053 19.0533 35.2853 17.816 35.072C16.5787 34.8587 15.2133 34.6453 13.72 34.432C12.2693 34.2187 10.7973 33.9413 9.304 33.6C7.81067 33.216 6.44533 32.6613 5.208 31.936C3.97067 31.2107 2.968 30.2293 2.2 28.992C1.47467 27.7547 1.112 26.1547 1.112 24.192C1.112 22.016 1.73067 20.096 2.968 18.432C4.248 16.768 6.08267 15.4667 8.472 14.528C10.8613 13.5467 13.72 13.056 17.048 13.056C19.3947 13.056 21.784 13.312 24.216 13.824C26.648 14.336 28.6747 15.0827 30.296 16.064L26.968 23.168C25.304 22.1867 23.6187 21.5253 21.912 21.184C20.248 20.8 18.6267 20.608 17.048 20.608C14.8293 20.608 13.208 20.9067 12.184 21.504C11.16 22.1013 10.648 22.8693 10.648 23.808C10.648 24.6613 11.0107 25.3013 11.736 25.728C12.504 26.1547 13.5067 26.496 14.744 26.752C15.9813 27.008 17.3253 27.2427 18.776 27.456C20.2693 27.6267 21.7627 27.904 23.256 28.288C24.7493 28.672 26.0933 29.2267 27.288 29.952C28.5253 30.6347 29.528 31.5947 30.296 32.832C31.064 34.0267 31.448 35.6053 31.448 37.568C31.448 39.7013 30.808 41.6 29.528 43.264C28.248 44.8853 26.392 46.1653 23.96 47.104C21.5707 48.0427 18.648 48.512 15.192 48.512ZM53.992 48.512C50.3227 48.512 47.0587 47.744 44.2 46.208C41.384 44.672 39.144 42.5813 37.48 39.936C35.8587 37.248 35.048 34.1973 35.048 30.784C35.048 27.328 35.8587 24.2773 37.48 21.632C39.144 18.944 41.384 16.8533 44.2 15.36C47.0587 13.824 50.3227 13.056 53.992 13.056C57.6187 13.056 60.8613 13.824 63.72 15.36C66.5787 16.8533 68.8187 18.9227 70.44 21.568C72.0613 24.2133 72.872 27.2853 72.872 30.784C72.872 34.1973 72.0613 37.248 70.44 39.936C68.8187 42.5813 66.5787 44.672 63.72 46.208C60.8613 47.744 57.6187 48.512 53.992 48.512ZM53.992 40.32C55.656 40.32 57.1493 39.936 58.472 39.168C59.7947 38.4 60.84 37.312 61.608 35.904C62.376 34.4533 62.76 32.7467 62.76 30.784C62.76 28.7787 62.376 27.072 61.608 25.664C60.84 24.256 59.7947 23.168 58.472 22.4C57.1493 21.632 55.656 21.248 53.992 21.248C52.328 21.248 50.8347 21.632 49.512 22.4C48.1893 23.168 47.1227 24.256 46.312 25.664C45.544 27.072 45.16 28.7787 45.16 30.784C45.16 32.7467 45.544 34.4533 46.312 35.904C47.1227 37.312 48.1893 38.4 49.512 39.168C50.8347 39.936 52.328 40.32 53.992 40.32ZM99.8975 48.512C96.8682 48.512 94.2655 47.872 92.0895 46.592C89.9135 45.312 88.2495 43.3707 87.0975 40.768C85.9455 38.1227 85.3695 34.7947 85.3695 30.784C85.3695 26.7307 85.9668 23.4027 87.1615 20.8C88.3988 18.1973 90.1055 16.256 92.2815 14.976C94.4575 13.696 96.9962 13.056 99.8975 13.056C103.14 13.056 106.042 13.7813 108.602 15.232C111.204 16.6827 113.252 18.7307 114.746 21.376C116.282 24.0213 117.05 27.1573 117.05 30.784C117.05 34.368 116.282 37.4827 114.746 40.128C113.252 42.7733 111.204 44.8427 108.602 46.336C106.042 47.7867 103.14 48.512 99.8975 48.512ZM79.5455 48V0.511997H89.5295V20.544L88.8895 30.72L89.0815 40.96V48H79.5455ZM98.1695 40.32C99.8335 40.32 101.306 39.936 102.586 39.168C103.908 38.4 104.954 37.312 105.722 35.904C106.532 34.4533 106.938 32.7467 106.938 30.784C106.938 28.7787 106.532 27.072 105.722 25.664C104.954 24.256 103.908 23.168 102.586 22.4C101.306 21.632 99.8335 21.248 98.1695 21.248C96.5055 21.248 95.0122 21.632 93.6895 22.4C92.3668 23.168 91.3215 24.256 90.5535 25.664C89.7855 27.072 89.4015 28.7787 89.4015 30.784C89.4015 32.7467 89.7855 34.4533 90.5535 35.904C91.3215 37.312 92.3668 38.4 93.6895 39.168C95.0122 39.936 96.5055 40.32 98.1695 40.32ZM123.733 48V13.568H133.269V23.296L131.925 20.48C132.949 18.048 134.592 16.2133 136.853 14.976C139.114 13.696 141.866 13.056 145.109 13.056V22.272C144.682 22.2293 144.298 22.208 143.957 22.208C143.616 22.1653 143.253 22.144 142.869 22.144C140.138 22.144 137.92 22.9333 136.213 24.512C134.549 26.048 133.717 28.4587 133.717 31.744V48H123.733ZM167.884 48.512C163.958 48.512 160.502 47.744 157.516 46.208C154.572 44.672 152.289 42.5813 150.668 39.936C149.046 37.248 148.236 34.1973 148.236 30.784C148.236 27.328 149.025 24.2773 150.604 21.632C152.225 18.944 154.422 16.8533 157.196 15.36C159.969 13.824 163.105 13.056 166.604 13.056C169.974 13.056 173.004 13.7813 175.692 15.232C178.422 16.64 180.577 18.688 182.156 21.376C183.734 24.0213 184.524 27.2 184.524 30.912C184.524 31.296 184.502 31.744 184.46 32.256C184.417 32.7253 184.374 33.1733 184.332 33.6H156.364V27.776H179.083L175.244 29.504C175.244 27.712 174.881 26.1547 174.156 24.832C173.43 23.5093 172.428 22.4853 171.148 21.76C169.868 20.992 168.374 20.608 166.668 20.608C164.961 20.608 163.446 20.992 162.124 21.76C160.844 22.4853 159.841 23.5307 159.116 24.896C158.39 26.2187 158.028 27.7973 158.028 29.632V31.168C158.028 33.0453 158.433 34.7093 159.244 36.16C160.097 37.568 161.27 38.656 162.764 39.424C164.3 40.1493 166.092 40.512 168.14 40.512C169.974 40.512 171.574 40.2347 172.94 39.68C174.348 39.1253 175.628 38.2933 176.78 37.184L182.092 42.944C180.513 44.736 178.529 46.1227 176.14 47.104C173.75 48.0427 170.998 48.512 167.884 48.512ZM234.269 38.208C232.818 38.208 231.474 37.8667 230.237 37.184C229.042 36.4587 228.082 35.4987 227.357 34.304C226.631 33.0667 226.269 31.6587 226.269 30.08C226.269 28.5013 226.631 27.1147 227.357 25.92C228.082 24.7253 229.042 23.7867 230.237 23.104C231.474 22.3787 232.818 22.016 234.269 22.016C235.719 22.016 237.042 22.3787 238.237 23.104C239.474 23.7867 240.455 24.7253 241.181 25.92C241.906 27.1147 242.269 28.5013 242.269 30.08C242.269 31.6587 241.906 33.0667 241.181 34.304C240.455 35.4987 239.474 36.4587 238.237 37.184C237.042 37.8667 235.719 38.208 234.269 38.208ZM298.192 48.512C295.248 48.512 292.411 48.1707 289.68 47.488C286.992 46.7627 284.859 45.8667 283.28 44.8L286.608 37.632C288.187 38.6133 290.043 39.424 292.176 40.064C294.352 40.6613 296.485 40.96 298.576 40.96C300.88 40.96 302.501 40.6827 303.44 40.128C304.421 39.5733 304.912 38.8053 304.912 37.824C304.912 37.0133 304.528 36.416 303.76 36.032C303.035 35.6053 302.053 35.2853 300.816 35.072C299.579 34.8587 298.213 34.6453 296.72 34.432C295.269 34.2187 293.797 33.9413 292.304 33.6C290.811 33.216 289.445 32.6613 288.208 31.936C286.971 31.2107 285.968 30.2293 285.2 28.992C284.475 27.7547 284.112 26.1547 284.112 24.192C284.112 22.016 284.731 20.096 285.968 18.432C287.248 16.768 289.083 15.4667 291.472 14.528C293.861 13.5467 296.72 13.056 300.048 13.056C302.395 13.056 304.784 13.312 307.216 13.824C309.648 14.336 311.675 15.0827 313.296 16.064L309.968 23.168C308.304 22.1867 306.619 21.5253 304.912 21.184C303.248 20.8 301.627 20.608 300.048 20.608C297.829 20.608 296.208 20.9067 295.184 21.504C294.16 22.1013 293.648 22.8693 293.648 23.808C293.648 24.6613 294.011 25.3013 294.736 25.728C295.504 26.1547 296.507 26.496 297.744 26.752C298.981 27.008 300.325 27.2427 301.776 27.456C303.269 27.6267 304.763 27.904 306.256 28.288C307.749 28.672 309.093 29.2267 310.288 29.952C311.525 30.6347 312.528 31.5947 313.296 32.832C314.064 34.0267 314.448 35.6053 314.448 37.568C314.448 39.7013 313.808 41.6 312.528 43.264C311.248 44.8853 309.392 46.1653 306.96 47.104C304.571 48.0427 301.648 48.512 298.192 48.512ZM336.992 48.512C333.323 48.512 330.059 47.744 327.2 46.208C324.384 44.672 322.144 42.5813 320.48 39.936C318.859 37.248 318.048 34.1973 318.048 30.784C318.048 27.328 318.859 24.2773 320.48 21.632C322.144 18.944 324.384 16.8533 327.2 15.36C330.059 13.824 333.323 13.056 336.992 13.056C340.619 13.056 343.861 13.824 346.72 15.36C349.579 16.8533 351.819 18.9227 353.44 21.568C355.061 24.2133 355.872 27.2853 355.872 30.784C355.872 34.1973 355.061 37.248 353.44 39.936C351.819 42.5813 349.579 44.672 346.72 46.208C343.861 47.744 340.619 48.512 336.992 48.512ZM336.992 40.32C338.656 40.32 340.149 39.936 341.472 39.168C342.795 38.4 343.84 37.312 344.608 35.904C345.376 34.4533 345.76 32.7467 345.76 30.784C345.76 28.7787 345.376 27.072 344.608 25.664C343.84 24.256 342.795 23.168 341.472 22.4C340.149 21.632 338.656 21.248 336.992 21.248C335.328 21.248 333.835 21.632 332.512 22.4C331.189 23.168 330.123 24.256 329.312 25.664C328.544 27.072 328.16 28.7787 328.16 30.784C328.16 32.7467 328.544 34.4533 329.312 35.904C330.123 37.312 331.189 38.4 332.512 39.168C333.835 39.936 335.328 40.32 336.992 40.32ZM382.898 48.512C379.868 48.512 377.266 47.872 375.09 46.592C372.914 45.312 371.25 43.3707 370.098 40.768C368.946 38.1227 368.37 34.7947 368.37 30.784C368.37 26.7307 368.967 23.4027 370.162 20.8C371.399 18.1973 373.106 16.256 375.282 14.976C377.458 13.696 379.996 13.056 382.898 13.056C386.14 13.056 389.042 13.7813 391.602 15.232C394.204 16.6827 396.252 18.7307 397.746 21.376C399.282 24.0213 400.05 27.1573 400.05 30.784C400.05 34.368 399.282 37.4827 397.746 40.128C396.252 42.7733 394.204 44.8427 391.602 46.336C389.042 47.7867 386.14 48.512 382.898 48.512ZM362.546 48V0.511997H372.53V20.544L371.89 30.72L372.082 40.96V48H362.546ZM381.17 40.32C382.834 40.32 384.306 39.936 385.586 39.168C386.908 38.4 387.954 37.312 388.722 35.904C389.532 34.4533 389.938 32.7467 389.938 30.784C389.938 28.7787 389.532 27.072 388.722 25.664C387.954 24.256 386.908 23.168 385.586 22.4C384.306 21.632 382.834 21.248 381.17 21.248C379.506 21.248 378.012 21.632 376.69 22.4C375.367 23.168 374.322 24.256 373.554 25.664C372.786 27.072 372.402 28.7787 372.402 30.784C372.402 32.7467 372.786 34.4533 373.554 35.904C374.322 37.312 375.367 38.4 376.69 39.168C378.012 39.936 379.506 40.32 381.17 40.32ZM406.733 48V13.568H416.269V23.296L414.925 20.48C415.949 18.048 417.592 16.2133 419.853 14.976C422.114 13.696 424.866 13.056 428.109 13.056V22.272C427.682 22.2293 427.298 22.208 426.957 22.208C426.616 22.1653 426.253 22.144 425.869 22.144C423.138 22.144 420.92 22.9333 419.213 24.512C417.549 26.048 416.717 28.4587 416.717 31.744V48H406.733ZM450.884 48.512C446.958 48.512 443.502 47.744 440.516 46.208C437.572 44.672 435.289 42.5813 433.668 39.936C432.046 37.248 431.236 34.1973 431.236 30.784C431.236 27.328 432.025 24.2773 433.604 21.632C435.225 18.944 437.422 16.8533 440.196 15.36C442.969 13.824 446.105 13.056 449.604 13.056C452.974 13.056 456.004 13.7813 458.692 15.232C461.422 16.64 463.577 18.688 465.156 21.376C466.734 24.0213 467.524 27.2 467.524 30.912C467.524 31.296 467.502 31.744 467.46 32.256C467.417 32.7253 467.374 33.1733 467.332 33.6H439.364V27.776H462.083L458.244 29.504C458.244 27.712 457.881 26.1547 457.156 24.832C456.43 23.5093 455.428 22.4853 454.148 21.76C452.868 20.992 451.374 20.608 449.668 20.608C447.961 20.608 446.446 20.992 445.124 21.76C443.844 22.4853 442.841 23.5307 442.116 24.896C441.39 26.2187 441.028 27.7973 441.028 29.632V31.168C441.028 33.0453 441.433 34.7093 442.244 36.16C443.097 37.568 444.27 38.656 445.764 39.424C447.3 40.1493 449.092 40.512 451.14 40.512C452.974 40.512 454.574 40.2347 455.94 39.68C457.348 39.1253 458.628 38.2933 459.78 37.184L465.092 42.944C463.513 44.736 461.529 46.1227 459.14 47.104C456.75 48.0427 453.998 48.512 450.884 48.512ZM517.269 38.208C515.818 38.208 514.474 37.8667 513.237 37.184C512.042 36.4587 511.082 35.4987 510.357 34.304C509.631 33.0667 509.269 31.6587 509.269 30.08C509.269 28.5013 509.631 27.1147 510.357 25.92C511.082 24.7253 512.042 23.7867 513.237 23.104C514.474 22.3787 515.818 22.016 517.269 22.016C518.719 22.016 520.042 22.3787 521.237 23.104C522.474 23.7867 523.455 24.7253 524.181 25.92C524.906 27.1147 525.269 28.5013 525.269 30.08C525.269 31.6587 524.906 33.0667 524.181 34.304C523.455 35.4987 522.474 36.4587 521.237 37.184C520.042 37.8667 518.719 38.208 517.269 38.208ZM581.192 48.512C578.248 48.512 575.411 48.1707 572.68 47.488C569.992 46.7627 567.859 45.8667 566.28 44.8L569.608 37.632C571.187 38.6133 573.043 39.424 575.176 40.064C577.352 40.6613 579.485 40.96 581.576 40.96C583.88 40.96 585.501 40.6827 586.44 40.128C587.421 39.5733 587.912 38.8053 587.912 37.824C587.912 37.0133 587.528 36.416 586.76 36.032C586.035 35.6053 585.053 35.2853 583.816 35.072C582.579 34.8587 581.213 34.6453 579.72 34.432C578.269 34.2187 576.797 33.9413 575.304 33.6C573.811 33.216 572.445 32.6613 571.208 31.936C569.971 31.2107 568.968 30.2293 568.2 28.992C567.475 27.7547 567.112 26.1547 567.112 24.192C567.112 22.016 567.731 20.096 568.968 18.432C570.248 16.768 572.083 15.4667 574.472 14.528C576.861 13.5467 579.72 13.056 583.048 13.056C585.395 13.056 587.784 13.312 590.216 13.824C592.648 14.336 594.675 15.0827 596.296 16.064L592.968 23.168C591.304 22.1867 589.619 21.5253 587.912 21.184C586.248 20.8 584.627 20.608 583.048 20.608C580.829 20.608 579.208 20.9067 578.184 21.504C577.16 22.1013 576.648 22.8693 576.648 23.808C576.648 24.6613 577.011 25.3013 577.736 25.728C578.504 26.1547 579.507 26.496 580.744 26.752C581.981 27.008 583.325 27.2427 584.776 27.456C586.269 27.6267 587.763 27.904 589.256 28.288C590.749 28.672 592.093 29.2267 593.288 29.952C594.525 30.6347 595.528 31.5947 596.296 32.832C597.064 34.0267 597.448 35.6053 597.448 37.568C597.448 39.7013 596.808 41.6 595.528 43.264C594.248 44.8853 592.392 46.1653 589.96 47.104C587.571 48.0427 584.648 48.512 581.192 48.512ZM619.992 48.512C616.323 48.512 613.059 47.744 610.2 46.208C607.384 44.672 605.144 42.5813 603.48 39.936C601.859 37.248 601.048 34.1973 601.048 30.784C601.048 27.328 601.859 24.2773 603.48 21.632C605.144 18.944 607.384 16.8533 610.2 15.36C613.059 13.824 616.323 13.056 619.992 13.056C623.619 13.056 626.861 13.824 629.72 15.36C632.579 16.8533 634.819 18.9227 636.44 21.568C638.061 24.2133 638.872 27.2853 638.872 30.784C638.872 34.1973 638.061 37.248 636.44 39.936C634.819 42.5813 632.579 44.672 629.72 46.208C626.861 47.744 623.619 48.512 619.992 48.512ZM619.992 40.32C621.656 40.32 623.149 39.936 624.472 39.168C625.795 38.4 626.84 37.312 627.608 35.904C628.376 34.4533 628.76 32.7467 628.76 30.784C628.76 28.7787 628.376 27.072 627.608 25.664C626.84 24.256 625.795 23.168 624.472 22.4C623.149 21.632 621.656 21.248 619.992 21.248C618.328 21.248 616.835 21.632 615.512 22.4C614.189 23.168 613.123 24.256 612.312 25.664C611.544 27.072 611.16 28.7787 611.16 30.784C611.16 32.7467 611.544 34.4533 612.312 35.904C613.123 37.312 614.189 38.4 615.512 39.168C616.835 39.936 618.328 40.32 619.992 40.32ZM665.898 48.512C662.868 48.512 660.266 47.872 658.09 46.592C655.914 45.312 654.25 43.3707 653.098 40.768C651.946 38.1227 651.37 34.7947 651.37 30.784C651.37 26.7307 651.967 23.4027 653.162 20.8C654.399 18.1973 656.106 16.256 658.282 14.976C660.458 13.696 662.996 13.056 665.898 13.056C669.14 13.056 672.042 13.7813 674.602 15.232C677.204 16.6827 679.252 18.7307 680.746 21.376C682.282 24.0213 683.05 27.1573 683.05 30.784C683.05 34.368 682.282 37.4827 680.746 40.128C679.252 42.7733 677.204 44.8427 674.602 46.336C672.042 47.7867 669.14 48.512 665.898 48.512ZM645.546 48V0.511997H655.53V20.544L654.89 30.72L655.082 40.96V48H645.546ZM664.17 40.32C665.834 40.32 667.306 39.936 668.586 39.168C669.908 38.4 670.954 37.312 671.722 35.904C672.532 34.4533 672.938 32.7467 672.938 30.784C672.938 28.7787 672.532 27.072 671.722 25.664C670.954 24.256 669.908 23.168 668.586 22.4C667.306 21.632 665.834 21.248 664.17 21.248C662.506 21.248 661.012 21.632 659.69 22.4C658.367 23.168 657.322 24.256 656.554 25.664C655.786 27.072 655.402 28.7787 655.402 30.784C655.402 32.7467 655.786 34.4533 656.554 35.904C657.322 37.312 658.367 38.4 659.69 39.168C661.012 39.936 662.506 40.32 664.17 40.32ZM689.733 48V13.568H699.269V23.296L697.925 20.48C698.949 18.048 700.592 16.2133 702.853 14.976C705.114 13.696 707.866 13.056 711.109 13.056V22.272C710.682 22.2293 710.298 22.208 709.957 22.208C709.616 22.1653 709.253 22.144 708.869 22.144C706.138 22.144 703.92 22.9333 702.213 24.512C700.549 26.048 699.717 28.4587 699.717 31.744V48H689.733ZM733.884 48.512C729.958 48.512 726.502 47.744 723.516 46.208C720.572 44.672 718.289 42.5813 716.668 39.936C715.046 37.248 714.236 34.1973 714.236 30.784C714.236 27.328 715.025 24.2773 716.604 21.632C718.225 18.944 720.422 16.8533 723.196 15.36C725.969 13.824 729.105 13.056 732.604 13.056C735.974 13.056 739.004 13.7813 741.692 15.232C744.422 16.64 746.577 18.688 748.156 21.376C749.734 24.0213 750.524 27.2 750.524 30.912C750.524 31.296 750.502 31.744 750.46 32.256C750.417 32.7253 750.374 33.1733 750.332 33.6H722.364V27.776H745.083L741.244 29.504C741.244 27.712 740.881 26.1547 740.156 24.832C739.43 23.5093 738.428 22.4853 737.148 21.76C735.868 20.992 734.374 20.608 732.668 20.608C730.961 20.608 729.446 20.992 728.124 21.76C726.844 22.4853 725.841 23.5307 725.116 24.896C724.39 26.2187 724.028 27.7973 724.028 29.632V31.168C724.028 33.0453 724.433 34.7093 725.244 36.16C726.097 37.568 727.27 38.656 728.764 39.424C730.3 40.1493 732.092 40.512 734.14 40.512C735.974 40.512 737.574 40.2347 738.94 39.68C740.348 39.1253 741.628 38.2933 742.78 37.184L748.092 42.944C746.513 44.736 744.529 46.1227 742.14 47.104C739.75 48.0427 736.998 48.512 733.884 48.512ZM800.269 38.208C798.818 38.208 797.474 37.8667 796.237 37.184C795.042 36.4587 794.082 35.4987 793.357 34.304C792.631 33.0667 792.269 31.6587 792.269 30.08C792.269 28.5013 792.631 27.1147 793.357 25.92C794.082 24.7253 795.042 23.7867 796.237 23.104C797.474 22.3787 798.818 22.016 800.269 22.016C801.719 22.016 803.042 22.3787 804.237 23.104C805.474 23.7867 806.455 24.7253 807.181 25.92C807.906 27.1147 808.269 28.5013 808.269 30.08C808.269 31.6587 807.906 33.0667 807.181 34.304C806.455 35.4987 805.474 36.4587 804.237 37.184C803.042 37.8667 801.719 38.208 800.269 38.208ZM864.192 48.512C861.248 48.512 858.411 48.1707 855.68 47.488C852.992 46.7627 850.859 45.8667 849.28 44.8L852.608 37.632C854.187 38.6133 856.043 39.424 858.176 40.064C860.352 40.6613 862.485 40.96 864.576 40.96C866.88 40.96 868.501 40.6827 869.44 40.128C870.421 39.5733 870.912 38.8053 870.912 37.824C870.912 37.0133 870.528 36.416 869.76 36.032C869.035 35.6053 868.053 35.2853 866.816 35.072C865.579 34.8587 864.213 34.6453 862.72 34.432C861.269 34.2187 859.797 33.9413 858.304 33.6C856.811 33.216 855.445 32.6613 854.208 31.936C852.971 31.2107 851.968 30.2293 851.2 28.992C850.475 27.7547 850.112 26.1547 850.112 24.192C850.112 22.016 850.731 20.096 851.968 18.432C853.248 16.768 855.083 15.4667 857.472 14.528C859.861 13.5467 862.72 13.056 866.048 13.056C868.395 13.056 870.784 13.312 873.216 13.824C875.648 14.336 877.675 15.0827 879.296 16.064L875.968 23.168C874.304 22.1867 872.619 21.5253 870.912 21.184C869.248 20.8 867.627 20.608 866.048 20.608C863.829 20.608 862.208 20.9067 861.184 21.504C860.16 22.1013 859.648 22.8693 859.648 23.808C859.648 24.6613 860.011 25.3013 860.736 25.728C861.504 26.1547 862.507 26.496 863.744 26.752C864.981 27.008 866.325 27.2427 867.776 27.456C869.269 27.6267 870.763 27.904 872.256 28.288C873.749 28.672 875.093 29.2267 876.288 29.952C877.525 30.6347 878.528 31.5947 879.296 32.832C880.064 34.0267 880.448 35.6053 880.448 37.568C880.448 39.7013 879.808 41.6 878.528 43.264C877.248 44.8853 875.392 46.1653 872.96 47.104C870.571 48.0427 867.648 48.512 864.192 48.512ZM902.992 48.512C899.323 48.512 896.059 47.744 893.2 46.208C890.384 44.672 888.144 42.5813 886.48 39.936C884.859 37.248 884.048 34.1973 884.048 30.784C884.048 27.328 884.859 24.2773 886.48 21.632C888.144 18.944 890.384 16.8533 893.2 15.36C896.059 13.824 899.323 13.056 902.992 13.056C906.619 13.056 909.861 13.824 912.72 15.36C915.579 16.8533 917.819 18.9227 919.44 21.568C921.061 24.2133 921.872 27.2853 921.872 30.784C921.872 34.1973 921.061 37.248 919.44 39.936C917.819 42.5813 915.579 44.672 912.72 46.208C909.861 47.744 906.619 48.512 902.992 48.512ZM902.992 40.32C904.656 40.32 906.149 39.936 907.472 39.168C908.795 38.4 909.84 37.312 910.608 35.904C911.376 34.4533 911.76 32.7467 911.76 30.784C911.76 28.7787 911.376 27.072 910.608 25.664C909.84 24.256 908.795 23.168 907.472 22.4C906.149 21.632 904.656 21.248 902.992 21.248C901.328 21.248 899.835 21.632 898.512 22.4C897.189 23.168 896.123 24.256 895.312 25.664C894.544 27.072 894.16 28.7787 894.16 30.784C894.16 32.7467 894.544 34.4533 895.312 35.904C896.123 37.312 897.189 38.4 898.512 39.168C899.835 39.936 901.328 40.32 902.992 40.32ZM948.898 48.512C945.868 48.512 943.266 47.872 941.09 46.592C938.914 45.312 937.25 43.3707 936.098 40.768C934.946 38.1227 934.37 34.7947 934.37 30.784C934.37 26.7307 934.967 23.4027 936.162 20.8C937.399 18.1973 939.106 16.256 941.282 14.976C943.458 13.696 945.996 13.056 948.898 13.056C952.14 13.056 955.042 13.7813 957.602 15.232C960.204 16.6827 962.252 18.7307 963.746 21.376C965.282 24.0213 966.05 27.1573 966.05 30.784C966.05 34.368 965.282 37.4827 963.746 40.128C962.252 42.7733 960.204 44.8427 957.602 46.336C955.042 47.7867 952.14 48.512 948.898 48.512ZM928.546 48V0.511997H938.53V20.544L937.89 30.72L938.082 40.96V48H928.546ZM947.17 40.32C948.834 40.32 950.306 39.936 951.586 39.168C952.908 38.4 953.954 37.312 954.722 35.904C955.532 34.4533 955.938 32.7467 955.938 30.784C955.938 28.7787 955.532 27.072 954.722 25.664C953.954 24.256 952.908 23.168 951.586 22.4C950.306 21.632 948.834 21.248 947.17 21.248C945.506 21.248 944.012 21.632 942.69 22.4C941.367 23.168 940.322 24.256 939.554 25.664C938.786 27.072 938.402 28.7787 938.402 30.784C938.402 32.7467 938.786 34.4533 939.554 35.904C940.322 37.312 941.367 38.4 942.69 39.168C944.012 39.936 945.506 40.32 947.17 40.32ZM972.733 48V13.568H982.269V23.296L980.925 20.48C981.949 18.048 983.592 16.2133 985.853 14.976C988.114 13.696 990.866 13.056 994.109 13.056V22.272C993.682 22.2293 993.298 22.208 992.957 22.208C992.616 22.1653 992.253 22.144 991.869 22.144C989.138 22.144 986.92 22.9333 985.213 24.512C983.549 26.048 982.717 28.4587 982.717 31.744V48H972.733ZM1016.88 48.512C1012.96 48.512 1009.5 47.744 1006.52 46.208C1003.57 44.672 1001.29 42.5813 999.668 39.936C998.046 37.248 997.236 34.1973 997.236 30.784C997.236 27.328 998.025 24.2773 999.604 21.632C1001.22 18.944 1003.42 16.8533 1006.2 15.36C1008.97 13.824 1012.1 13.056 1015.6 13.056C1018.97 13.056 1022 13.7813 1024.69 15.232C1027.42 16.64 1029.58 18.688 1031.16 21.376C1032.73 24.0213 1033.52 27.2 1033.52 30.912C1033.52 31.296 1033.5 31.744 1033.46 32.256C1033.42 32.7253 1033.37 33.1733 1033.33 33.6H1005.36V27.776H1028.08L1024.24 29.504C1024.24 27.712 1023.88 26.1547 1023.16 24.832C1022.43 23.5093 1021.43 22.4853 1020.15 21.76C1018.87 20.992 1017.37 20.608 1015.67 20.608C1013.96 20.608 1012.45 20.992 1011.12 21.76C1009.84 22.4853 1008.84 23.5307 1008.12 24.896C1007.39 26.2187 1007.03 27.7973 1007.03 29.632V31.168C1007.03 33.0453 1007.43 34.7093 1008.24 36.16C1009.1 37.568 1010.27 38.656 1011.76 39.424C1013.3 40.1493 1015.09 40.512 1017.14 40.512C1018.97 40.512 1020.57 40.2347 1021.94 39.68C1023.35 39.1253 1024.63 38.2933 1025.78 37.184L1031.09 42.944C1029.51 44.736 1027.53 46.1227 1025.14 47.104C1022.75 48.0427 1020 48.512 1016.88 48.512ZM1083.27 38.208C1081.82 38.208 1080.47 37.8667 1079.24 37.184C1078.04 36.4587 1077.08 35.4987 1076.36 34.304C1075.63 33.0667 1075.27 31.6587 1075.27 30.08C1075.27 28.5013 1075.63 27.1147 1076.36 25.92C1077.08 24.7253 1078.04 23.7867 1079.24 23.104C1080.47 22.3787 1081.82 22.016 1083.27 22.016C1084.72 22.016 1086.04 22.3787 1087.24 23.104C1088.47 23.7867 1089.46 24.7253 1090.18 25.92C1090.91 27.1147 1091.27 28.5013 1091.27 30.08C1091.27 31.6587 1090.91 33.0667 1090.18 34.304C1089.46 35.4987 1088.47 36.4587 1087.24 37.184C1086.04 37.8667 1084.72 38.208 1083.27 38.208ZM1147.19 48.512C1144.25 48.512 1141.41 48.1707 1138.68 47.488C1135.99 46.7627 1133.86 45.8667 1132.28 44.8L1135.61 37.632C1137.19 38.6133 1139.04 39.424 1141.18 40.064C1143.35 40.6613 1145.49 40.96 1147.58 40.96C1149.88 40.96 1151.5 40.6827 1152.44 40.128C1153.42 39.5733 1153.91 38.8053 1153.91 37.824C1153.91 37.0133 1153.53 36.416 1152.76 36.032C1152.03 35.6053 1151.05 35.2853 1149.82 35.072C1148.58 34.8587 1147.21 34.6453 1145.72 34.432C1144.27 34.2187 1142.8 33.9413 1141.3 33.6C1139.81 33.216 1138.45 32.6613 1137.21 31.936C1135.97 31.2107 1134.97 30.2293 1134.2 28.992C1133.47 27.7547 1133.11 26.1547 1133.11 24.192C1133.11 22.016 1133.73 20.096 1134.97 18.432C1136.25 16.768 1138.08 15.4667 1140.47 14.528C1142.86 13.5467 1145.72 13.056 1149.05 13.056C1151.39 13.056 1153.78 13.312 1156.22 13.824C1158.65 14.336 1160.67 15.0827 1162.3 16.064L1158.97 23.168C1157.3 22.1867 1155.62 21.5253 1153.91 21.184C1152.25 20.8 1150.63 20.608 1149.05 20.608C1146.83 20.608 1145.21 20.9067 1144.18 21.504C1143.16 22.1013 1142.65 22.8693 1142.65 23.808C1142.65 24.6613 1143.01 25.3013 1143.74 25.728C1144.5 26.1547 1145.51 26.496 1146.74 26.752C1147.98 27.008 1149.33 27.2427 1150.78 27.456C1152.27 27.6267 1153.76 27.904 1155.26 28.288C1156.75 28.672 1158.09 29.2267 1159.29 29.952C1160.53 30.6347 1161.53 31.5947 1162.3 32.832C1163.06 34.0267 1163.45 35.6053 1163.45 37.568C1163.45 39.7013 1162.81 41.6 1161.53 43.264C1160.25 44.8853 1158.39 46.1653 1155.96 47.104C1153.57 48.0427 1150.65 48.512 1147.19 48.512ZM1185.99 48.512C1182.32 48.512 1179.06 47.744 1176.2 46.208C1173.38 44.672 1171.14 42.5813 1169.48 39.936C1167.86 37.248 1167.05 34.1973 1167.05 30.784C1167.05 27.328 1167.86 24.2773 1169.48 21.632C1171.14 18.944 1173.38 16.8533 1176.2 15.36C1179.06 13.824 1182.32 13.056 1185.99 13.056C1189.62 13.056 1192.86 13.824 1195.72 15.36C1198.58 16.8533 1200.82 18.9227 1202.44 21.568C1204.06 24.2133 1204.87 27.2853 1204.87 30.784C1204.87 34.1973 1204.06 37.248 1202.44 39.936C1200.82 42.5813 1198.58 44.672 1195.72 46.208C1192.86 47.744 1189.62 48.512 1185.99 48.512ZM1185.99 40.32C1187.66 40.32 1189.15 39.936 1190.47 39.168C1191.79 38.4 1192.84 37.312 1193.61 35.904C1194.38 34.4533 1194.76 32.7467 1194.76 30.784C1194.76 28.7787 1194.38 27.072 1193.61 25.664C1192.84 24.256 1191.79 23.168 1190.47 22.4C1189.15 21.632 1187.66 21.248 1185.99 21.248C1184.33 21.248 1182.83 21.632 1181.51 22.4C1180.19 23.168 1179.12 24.256 1178.31 25.664C1177.54 27.072 1177.16 28.7787 1177.16 30.784C1177.16 32.7467 1177.54 34.4533 1178.31 35.904C1179.12 37.312 1180.19 38.4 1181.51 39.168C1182.83 39.936 1184.33 40.32 1185.99 40.32ZM1231.9 48.512C1228.87 48.512 1226.27 47.872 1224.09 46.592C1221.91 45.312 1220.25 43.3707 1219.1 40.768C1217.95 38.1227 1217.37 34.7947 1217.37 30.784C1217.37 26.7307 1217.97 23.4027 1219.16 20.8C1220.4 18.1973 1222.11 16.256 1224.28 14.976C1226.46 13.696 1229 13.056 1231.9 13.056C1235.14 13.056 1238.04 13.7813 1240.6 15.232C1243.2 16.6827 1245.25 18.7307 1246.75 21.376C1248.28 24.0213 1249.05 27.1573 1249.05 30.784C1249.05 34.368 1248.28 37.4827 1246.75 40.128C1245.25 42.7733 1243.2 44.8427 1240.6 46.336C1238.04 47.7867 1235.14 48.512 1231.9 48.512ZM1211.55 48V0.511997H1221.53V20.544L1220.89 30.72L1221.08 40.96V48H1211.55ZM1230.17 40.32C1231.83 40.32 1233.31 39.936 1234.59 39.168C1235.91 38.4 1236.95 37.312 1237.72 35.904C1238.53 34.4533 1238.94 32.7467 1238.94 30.784C1238.94 28.7787 1238.53 27.072 1237.72 25.664C1236.95 24.256 1235.91 23.168 1234.59 22.4C1233.31 21.632 1231.83 21.248 1230.17 21.248C1228.51 21.248 1227.01 21.632 1225.69 22.4C1224.37 23.168 1223.32 24.256 1222.55 25.664C1221.79 27.072 1221.4 28.7787 1221.4 30.784C1221.4 32.7467 1221.79 34.4533 1222.55 35.904C1223.32 37.312 1224.37 38.4 1225.69 39.168C1227.01 39.936 1228.51 40.32 1230.17 40.32ZM1255.73 48V13.568H1265.27V23.296L1263.93 20.48C1264.95 18.048 1266.59 16.2133 1268.85 14.976C1271.11 13.696 1273.87 13.056 1277.11 13.056V22.272C1276.68 22.2293 1276.3 22.208 1275.96 22.208C1275.62 22.1653 1275.25 22.144 1274.87 22.144C1272.14 22.144 1269.92 22.9333 1268.21 24.512C1266.55 26.048 1265.72 28.4587 1265.72 31.744V48H1255.73ZM1299.88 48.512C1295.96 48.512 1292.5 47.744 1289.52 46.208C1286.57 44.672 1284.29 42.5813 1282.67 39.936C1281.05 37.248 1280.24 34.1973 1280.24 30.784C1280.24 27.328 1281.02 24.2773 1282.6 21.632C1284.22 18.944 1286.42 16.8533 1289.2 15.36C1291.97 13.824 1295.1 13.056 1298.6 13.056C1301.97 13.056 1305 13.7813 1307.69 15.232C1310.42 16.64 1312.58 18.688 1314.16 21.376C1315.73 24.0213 1316.52 27.2 1316.52 30.912C1316.52 31.296 1316.5 31.744 1316.46 32.256C1316.42 32.7253 1316.37 33.1733 1316.33 33.6H1288.36V27.776H1311.08L1307.24 29.504C1307.24 27.712 1306.88 26.1547 1306.16 24.832C1305.43 23.5093 1304.43 22.4853 1303.15 21.76C1301.87 20.992 1300.37 20.608 1298.67 20.608C1296.96 20.608 1295.45 20.992 1294.12 21.76C1292.84 22.4853 1291.84 23.5307 1291.12 24.896C1290.39 26.2187 1290.03 27.7973 1290.03 29.632V31.168C1290.03 33.0453 1290.43 34.7093 1291.24 36.16C1292.1 37.568 1293.27 38.656 1294.76 39.424C1296.3 40.1493 1298.09 40.512 1300.14 40.512C1301.97 40.512 1303.57 40.2347 1304.94 39.68C1306.35 39.1253 1307.63 38.2933 1308.78 37.184L1314.09 42.944C1312.51 44.736 1310.53 46.1227 1308.14 47.104C1305.75 48.0427 1303 48.512 1299.88 48.512ZM1366.27 38.208C1364.82 38.208 1363.47 37.8667 1362.24 37.184C1361.04 36.4587 1360.08 35.4987 1359.36 34.304C1358.63 33.0667 1358.27 31.6587 1358.27 30.08C1358.27 28.5013 1358.63 27.1147 1359.36 25.92C1360.08 24.7253 1361.04 23.7867 1362.24 23.104C1363.47 22.3787 1364.82 22.016 1366.27 22.016C1367.72 22.016 1369.04 22.3787 1370.24 23.104C1371.47 23.7867 1372.46 24.7253 1373.18 25.92C1373.91 27.1147 1374.27 28.5013 1374.27 30.08C1374.27 31.6587 1373.91 33.0667 1373.18 34.304C1372.46 35.4987 1371.47 36.4587 1370.24 37.184C1369.04 37.8667 1367.72 38.208 1366.27 38.208Z" fill="#090909"/>
</svg>
