<svg width="93" height="125" viewBox="0 0 93 125" fill="none" xmlns="http://www.w3.org/2000/svg">
<rect width="93" height="95" rx="20" fill="#5C0E0A"/>
<path d="M38.5255 118.098C37.8815 118.098 37.3028 117.986 36.7895 117.762C36.2855 117.529 35.8888 117.211 35.5995 116.81C35.3102 116.399 35.1608 115.928 35.1515 115.396H36.5095C36.5562 115.853 36.7428 116.241 37.0695 116.558C37.4055 116.866 37.8908 117.02 38.5255 117.02C39.1322 117.02 39.6082 116.871 39.9535 116.572C40.3082 116.264 40.4855 115.872 40.4855 115.396C40.4855 115.023 40.3828 114.719 40.1775 114.486C39.9722 114.253 39.7155 114.075 39.4075 113.954C39.0995 113.833 38.6842 113.702 38.1615 113.562C37.5175 113.394 36.9995 113.226 36.6075 113.058C36.2248 112.89 35.8935 112.629 35.6135 112.274C35.3428 111.91 35.2075 111.425 35.2075 110.818C35.2075 110.286 35.3428 109.815 35.6135 109.404C35.8842 108.993 36.2622 108.676 36.7475 108.452C37.2422 108.228 37.8068 108.116 38.4415 108.116C39.3562 108.116 40.1028 108.345 40.6815 108.802C41.2695 109.259 41.6008 109.866 41.6755 110.622H40.2755C40.2288 110.249 40.0328 109.922 39.6875 109.642C39.3422 109.353 38.8848 109.208 38.3155 109.208C37.7835 109.208 37.3495 109.348 37.0135 109.628C36.6775 109.899 36.5095 110.281 36.5095 110.776C36.5095 111.131 36.6075 111.42 36.8035 111.644C37.0088 111.868 37.2562 112.041 37.5455 112.162C37.8442 112.274 38.2595 112.405 38.7915 112.554C39.4355 112.731 39.9535 112.909 40.3455 113.086C40.7375 113.254 41.0735 113.52 41.3535 113.884C41.6335 114.239 41.7735 114.724 41.7735 115.34C41.7735 115.816 41.6475 116.264 41.3955 116.684C41.1435 117.104 40.7702 117.445 40.2755 117.706C39.7808 117.967 39.1975 118.098 38.5255 118.098ZM51.4743 119.848L49.5283 117.902C49.0523 118.033 48.567 118.098 48.0723 118.098C47.167 118.098 46.341 117.888 45.5943 117.468C44.8476 117.039 44.255 116.446 43.8163 115.69C43.387 114.925 43.1723 114.066 43.1723 113.114C43.1723 112.162 43.387 111.308 43.8163 110.552C44.255 109.787 44.8476 109.194 45.5943 108.774C46.341 108.345 47.167 108.13 48.0723 108.13C48.987 108.13 49.8176 108.345 50.5643 108.774C51.311 109.194 51.899 109.782 52.3283 110.538C52.7576 111.294 52.9723 112.153 52.9723 113.114C52.9723 114.047 52.767 114.887 52.3563 115.634C51.9456 116.381 51.381 116.969 50.6623 117.398L53.1263 119.848H51.4743ZM44.4743 113.114C44.4743 113.889 44.6283 114.57 44.9363 115.158C45.2536 115.746 45.683 116.199 46.2243 116.516C46.775 116.833 47.391 116.992 48.0723 116.992C48.7536 116.992 49.365 116.833 49.9063 116.516C50.457 116.199 50.8863 115.746 51.1943 115.158C51.5116 114.57 51.6703 113.889 51.6703 113.114C51.6703 112.33 51.5116 111.649 51.1943 111.07C50.8863 110.482 50.4616 110.029 49.9203 109.712C49.379 109.395 48.763 109.236 48.0723 109.236C47.3816 109.236 46.7656 109.395 46.2243 109.712C45.683 110.029 45.2536 110.482 44.9363 111.07C44.6283 111.649 44.4743 112.33 44.4743 113.114ZM55.9555 116.964H59.3715V118H54.6815V108.242H55.9555V116.964Z" fill="white"/>
<path d="M61.7113 46.4363C60.5527 45.2512 59.1768 44.3116 57.6624 43.6715C56.1481 43.0313 54.5251 42.7031 52.8866 42.7057C51.248 42.7084 49.6261 43.0418 48.1137 43.6868C46.6014 44.3318 45.2284 45.2758 44.0734 46.4647C42.9129 47.6478 41.9921 49.0537 41.3639 50.6015C40.7356 52.1494 40.4122 53.8088 40.4122 55.4848C40.4122 57.1607 40.7356 58.8202 41.3639 60.3681C41.9921 61.9159 42.9129 63.3217 44.0734 64.5049C46.0734 66.5416 48.6881 67.8267 51.4925 68.1511C54.2969 68.4755 57.1262 67.8203 59.5204 66.2919L68.1452 75L72 71.0572L63.4307 62.2357C66.5644 57.2151 65.8434 50.6343 61.7113 46.4363ZM57.801 60.4771C55.0832 63.2568 50.7015 63.2285 47.9837 60.4771C45.2936 57.6973 45.2936 53.2156 48.0114 50.4358C50.7015 47.6844 55.0832 47.6844 57.801 50.4358C60.491 53.2156 60.491 57.6973 57.801 60.4771ZM40.1354 68.5044C38.3238 66.6356 36.9243 64.3917 36.031 61.9237C27.2953 60.4203 21 56.1939 21 51.2017V59.7112C21 65.9799 30.9282 71.0572 43.186 71.0572C42.0767 70.3198 41.0506 69.4688 40.1354 68.5044ZM21 37.0191V45.5286C21 50.294 26.7406 54.3785 34.8662 56.0237V55.4564C34.8662 52.8185 35.4209 50.2089 36.4747 47.8262C27.4894 46.3796 21 42.0964 21 37.0191ZM43.186 20C30.9282 20 21 25.0774 21 31.3461C21 37.0191 29.3197 41.7844 39.9967 42.6921H40.1354C43.4633 39.1181 48.0669 37.0191 52.8923 37.0191C55.416 37.0191 57.9119 37.558 60.2137 38.6075C61.6119 37.9537 62.8214 36.9417 63.7251 35.6696C64.6288 34.3974 65.196 32.9082 65.3719 31.3461C65.3719 25.0774 55.4437 20 43.186 20Z" fill="white"/>
</svg>
