<svg width="93" height="125" viewBox="0 0 93 125" fill="none" xmlns="http://www.w3.org/2000/svg">
<rect width="93" height="95" rx="20" fill="#5C0E0A"/>
<path d="M24.9483 108.242V109.278H22.2883V118H21.0143V109.278H18.3403V108.242H24.9483ZM26.0405 114.136C26.0405 113.352 26.1991 112.666 26.5165 112.078C26.8338 111.481 27.2678 111.019 27.8185 110.692C28.3785 110.365 28.9991 110.202 29.6805 110.202C30.3525 110.202 30.9358 110.347 31.4305 110.636C31.9251 110.925 32.2938 111.289 32.5365 111.728V110.328H33.8245V118H32.5365V116.572C32.2845 117.02 31.9065 117.393 31.4025 117.692C30.9078 117.981 30.3291 118.126 29.6665 118.126C28.9851 118.126 28.3691 117.958 27.8185 117.622C27.2678 117.286 26.8338 116.815 26.5165 116.208C26.1991 115.601 26.0405 114.911 26.0405 114.136ZM32.5365 114.15C32.5365 113.571 32.4198 113.067 32.1865 112.638C31.9531 112.209 31.6358 111.882 31.2345 111.658C30.8425 111.425 30.4085 111.308 29.9325 111.308C29.4565 111.308 29.0225 111.42 28.6305 111.644C28.2385 111.868 27.9258 112.195 27.6925 112.624C27.4591 113.053 27.3425 113.557 27.3425 114.136C27.3425 114.724 27.4591 115.237 27.6925 115.676C27.9258 116.105 28.2385 116.437 28.6305 116.67C29.0225 116.894 29.4565 117.006 29.9325 117.006C30.4085 117.006 30.8425 116.894 31.2345 116.67C31.6358 116.437 31.9531 116.105 32.1865 115.676C32.4198 115.237 32.5365 114.729 32.5365 114.15ZM36.6354 109.082C36.3927 109.082 36.1874 108.998 36.0194 108.83C35.8514 108.662 35.7674 108.457 35.7674 108.214C35.7674 107.971 35.8514 107.766 36.0194 107.598C36.1874 107.43 36.3927 107.346 36.6354 107.346C36.8687 107.346 37.0647 107.43 37.2234 107.598C37.3914 107.766 37.4754 107.971 37.4754 108.214C37.4754 108.457 37.3914 108.662 37.2234 108.83C37.0647 108.998 36.8687 109.082 36.6354 109.082ZM37.2514 110.328V118H35.9774V110.328H37.2514ZM40.6967 107.64V118H39.4227V107.64H40.6967ZM53.088 110.328L50.694 118H49.378L47.53 111.91L45.682 118H44.366L41.958 110.328H43.26L45.024 116.768L46.928 110.328H48.23L50.092 116.782L51.828 110.328H53.088ZM55.0104 109.082C54.7677 109.082 54.5624 108.998 54.3944 108.83C54.2264 108.662 54.1424 108.457 54.1424 108.214C54.1424 107.971 54.2264 107.766 54.3944 107.598C54.5624 107.43 54.7677 107.346 55.0104 107.346C55.2437 107.346 55.4397 107.43 55.5984 107.598C55.7664 107.766 55.8504 107.971 55.8504 108.214C55.8504 108.457 55.7664 108.662 55.5984 108.83C55.4397 108.998 55.2437 109.082 55.0104 109.082ZM55.6264 110.328V118H54.3524V110.328H55.6264ZM61.5357 110.188C62.4691 110.188 63.2251 110.473 63.8037 111.042C64.3824 111.602 64.6717 112.414 64.6717 113.478V118H63.4117V113.66C63.4117 112.895 63.2204 112.311 62.8377 111.91C62.4551 111.499 61.9324 111.294 61.2697 111.294C60.5977 111.294 60.0611 111.504 59.6597 111.924C59.2677 112.344 59.0717 112.955 59.0717 113.758V118H57.7977V110.328H59.0717V111.42C59.3237 111.028 59.6644 110.725 60.0937 110.51C60.5324 110.295 61.0131 110.188 61.5357 110.188ZM66.2768 114.136C66.2768 113.352 66.4355 112.666 66.7528 112.078C67.0701 111.481 67.5041 111.019 68.0548 110.692C68.6148 110.365 69.2401 110.202 69.9308 110.202C70.5281 110.202 71.0835 110.342 71.5968 110.622C72.1101 110.893 72.5021 111.252 72.7728 111.7V107.64H74.0608V118H72.7728V116.558C72.5208 117.015 72.1475 117.393 71.6528 117.692C71.1581 117.981 70.5795 118.126 69.9168 118.126C69.2355 118.126 68.6148 117.958 68.0548 117.622C67.5041 117.286 67.0701 116.815 66.7528 116.208C66.4355 115.601 66.2768 114.911 66.2768 114.136ZM72.7728 114.15C72.7728 113.571 72.6561 113.067 72.4228 112.638C72.1895 112.209 71.8721 111.882 71.4708 111.658C71.0788 111.425 70.6448 111.308 70.1688 111.308C69.6928 111.308 69.2588 111.42 68.8668 111.644C68.4748 111.868 68.1621 112.195 67.9288 112.624C67.6955 113.053 67.5788 113.557 67.5788 114.136C67.5788 114.724 67.6955 115.237 67.9288 115.676C68.1621 116.105 68.4748 116.437 68.8668 116.67C69.2588 116.894 69.6928 117.006 70.1688 117.006C70.6448 117.006 71.0788 116.894 71.4708 116.67C71.8721 116.437 72.1895 116.105 72.4228 115.676C72.6561 115.237 72.7728 114.729 72.7728 114.15Z" fill="white"/>
<path d="M46.4005 30.73C43.1745 30.6862 40.0453 31.8321 37.6105 33.9489C35.1757 36.0656 33.6058 39.005 33.2005 42.2058C33.9816 40.8749 35.0773 39.756 36.3914 38.9471C37.7056 38.1383 39.1982 37.6642 40.7382 37.5665C45.383 37.5665 48.9167 42.9895 51.0727 44.6808C53.1308 46.3075 55.5623 47.3946 58.1469 47.8436C60.7314 48.2926 63.3872 48.0893 65.8733 47.252C71.3733 45.4975 73.9418 39.3733 74.5 36.4693C71.8353 40.2615 67.79 42.5385 62.7877 39.8545C59.342 38.0038 56.7652 30.4 46.4005 30.73ZM32.7 47.9423C29.4739 47.8966 26.3441 49.0414 23.909 51.158C21.4739 53.2745 19.9042 56.2143 19.5 59.4153C20.2821 58.0829 21.3795 56.9631 22.6957 56.1541C24.012 55.3452 25.5068 54.872 27.0487 54.776C31.6935 54.776 35.2273 60.199 37.3833 61.8903C39.4413 63.517 41.8728 64.6041 44.4574 65.0531C47.0419 65.5021 49.6977 65.2988 52.1838 64.4615C57.6838 62.707 60.2495 56.5828 60.8105 53.6788C58.143 57.471 54.1005 59.7508 49.0982 57.064C45.6525 55.2133 43.0758 47.5958 32.7 47.9423Z" fill="white"/>
</svg>
