<svg width="712" height="235" viewBox="0 0 712 235" fill="none" xmlns="http://www.w3.org/2000/svg">
<path d="M280.18 67.28C284.34 67.28 286.42 68.32 286.42 70.4C286.42 71.5733 285.7 72.9867 284.26 74.64C297.113 76.3467 303.54 82.9867 303.54 94.56C303.54 98.88 302.553 102.933 300.58 106.72C298.66 110.507 296.18 113.68 293.14 116.24C290.153 118.747 286.82 120.907 283.14 122.72C279.46 124.587 275.887 125.92 272.42 126.72C269.007 127.573 265.887 128 263.06 128C256.553 128 251.273 126 247.22 122C243.167 117.947 241.14 112.773 241.14 106.48C241.14 97.4133 245.247 88.5867 253.46 80C250.74 80.96 248.82 81.76 247.7 82.4C247.433 82.5067 247.193 82.6133 246.98 82.72C246.767 82.8267 246.553 82.9333 246.34 83.04C246.127 83.1467 245.913 83.2267 245.7 83.28C245.54 83.3333 245.38 83.3867 245.22 83.44C245.06 83.4933 244.9 83.5467 244.74 83.6C244.633 83.6 244.527 83.6267 244.42 83.68C244.367 83.68 244.287 83.68 244.18 83.68C243.967 83.6267 243.833 83.5467 243.78 83.44C243.78 82.8533 244.873 82 247.06 80.88C250.26 79.1733 253.54 77.8133 256.9 76.8C263.033 71.5733 269.753 68.48 277.06 67.52C277.167 67.52 277.273 67.52 277.38 67.52C277.487 67.4667 277.593 67.44 277.7 67.44C277.807 67.44 277.913 67.44 278.02 67.44C278.18 67.3867 278.313 67.36 278.42 67.36C278.527 67.36 278.633 67.36 278.74 67.36C278.847 67.36 278.953 67.36 279.06 67.36C279.22 67.36 279.353 67.36 279.46 67.36C279.567 67.3067 279.673 67.28 279.78 67.28C279.94 67.28 280.073 67.28 280.18 67.28ZM300.9 133.04C300.9 136.4 299.647 139.04 297.14 140.96C294.633 142.933 291.647 143.92 288.18 143.92C285.567 143.92 282.607 143.36 279.3 142.24C276.047 141.173 273.06 139.947 270.34 138.56C267.673 137.173 264.607 135.76 261.14 134.32C257.673 132.88 254.58 131.92 251.86 131.44C250.847 131.227 249.807 131.12 248.74 131.12C246.873 131.12 245.327 131.44 244.1 132.08C242.873 132.72 242.26 133.627 242.26 134.8C242.26 135.387 242.127 136.053 241.86 136.8C241.647 137.6 241.407 138 241.14 138C240.873 138 240.74 137.227 240.74 135.68C240.74 133.44 241.487 131.493 242.98 129.84C244.473 128.24 246.313 127.44 248.5 127.44C251.273 127.44 254.5 128.16 258.18 129.6C261.913 131.04 265.3 132.613 268.34 134.32C271.433 136.027 274.953 137.6 278.9 139.04C282.9 140.48 286.553 141.2 289.86 141.2C292.26 141.2 294.393 140.507 296.26 139.12C298.18 137.787 299.14 135.947 299.14 133.6C299.14 133.013 299.113 132.48 299.06 132C299.007 131.573 298.927 131.173 298.82 130.8C298.713 130.48 298.607 130.213 298.5 130C298.447 129.84 298.313 129.573 298.1 129.2C297.94 128.88 297.833 128.667 297.78 128.56C297.46 127.76 297.433 127.147 297.7 126.72C297.807 126.613 297.94 126.587 298.1 126.64C298.74 126.907 299.353 127.813 299.94 129.36C300.58 130.96 300.9 132.187 300.9 133.04ZM281.94 74.4C282.633 73.12 282.98 72.1333 282.98 71.44C282.98 70.32 281.967 69.76 279.94 69.76C279.727 69.76 279.513 69.76 279.3 69.76C279.087 69.76 278.847 69.7867 278.58 69.84C278.367 69.84 278.127 69.84 277.86 69.84C272.527 70.3733 267.647 72.16 263.22 75.2C266.953 74.4533 270.927 74.08 275.14 74.08C276.207 74.08 277.3 74.1067 278.42 74.16C279.593 74.2133 280.767 74.2933 281.94 74.4ZM245.38 105.52C245.38 109.413 246.153 112.907 247.7 116C249.247 119.04 251.433 121.44 254.26 123.2C257.14 124.96 260.447 125.84 264.18 125.84C266.42 125.84 268.793 125.573 271.3 125.04C273.807 124.507 276.42 123.733 279.14 122.72C281.86 121.707 284.447 120.347 286.9 118.64C289.353 116.88 291.54 114.907 293.46 112.72C295.433 110.48 297.007 107.813 298.18 104.72C299.353 101.573 299.94 98.2133 299.94 94.64C299.94 89.84 298.367 85.7333 295.22 82.32C292.127 78.8533 288.127 76.8533 283.22 76.32C282.847 76.8 282.18 77.5467 281.22 78.56C280.26 79.5733 278.66 80.9867 276.42 82.8C274.233 84.56 272.153 85.9467 270.18 86.96C267.727 88.1333 266.233 88.72 265.7 88.72C265.54 88.72 265.46 88.6933 265.46 88.64C265.46 88.1067 266.927 86.88 269.86 84.96C274.02 82.1867 277.647 79.2533 280.74 76.16C279.513 76.1067 278.233 76.08 276.9 76.08C273.86 76.08 270.847 76.2933 267.86 76.72C264.873 77.0933 262.02 77.6 259.3 78.24C254.607 82.5067 251.113 87.0133 248.82 91.76C246.527 96.4533 245.38 101.04 245.38 105.52ZM323.648 122V118.344C321.711 121.156 319.078 122.562 315.75 122.562C314.281 122.562 312.906 122.281 311.625 121.719C310.359 121.156 309.414 120.453 308.789 119.609C308.18 118.75 307.75 117.703 307.5 116.469C307.328 115.641 307.242 114.328 307.242 112.531V97.1094H311.461V110.914C311.461 113.117 311.547 114.602 311.719 115.367C311.984 116.477 312.547 117.352 313.406 117.992C314.266 118.617 315.328 118.93 316.594 118.93C317.859 118.93 319.047 118.609 320.156 117.969C321.266 117.312 322.047 116.43 322.5 115.32C322.969 114.195 323.203 112.57 323.203 110.445V97.1094H327.422V122H323.648ZM351.094 113.984L355.453 114.523C354.766 117.07 353.492 119.047 351.633 120.453C349.773 121.859 347.398 122.562 344.508 122.562C340.867 122.562 337.977 121.445 335.836 119.211C333.711 116.961 332.648 113.812 332.648 109.766C332.648 105.578 333.727 102.328 335.883 100.016C338.039 97.7031 340.836 96.5469 344.273 96.5469C347.602 96.5469 350.32 97.6797 352.43 99.9453C354.539 102.211 355.594 105.398 355.594 109.508C355.594 109.758 355.586 110.133 355.57 110.633H337.008C337.164 113.367 337.938 115.461 339.328 116.914C340.719 118.367 342.453 119.094 344.531 119.094C346.078 119.094 347.398 118.688 348.492 117.875C349.586 117.062 350.453 115.766 351.094 113.984ZM337.242 107.164H351.141C350.953 105.07 350.422 103.5 349.547 102.453C348.203 100.828 346.461 100.016 344.32 100.016C342.383 100.016 340.75 100.664 339.422 101.961C338.109 103.258 337.383 104.992 337.242 107.164ZM360.773 122V97.1094H364.547V100.602C365.328 99.3828 366.367 98.4062 367.664 97.6719C368.961 96.9219 370.438 96.5469 372.094 96.5469C373.938 96.5469 375.445 96.9297 376.617 97.6953C377.805 98.4609 378.641 99.5312 379.125 100.906C381.094 98 383.656 96.5469 386.812 96.5469C389.281 96.5469 391.18 97.2344 392.508 98.6094C393.836 99.9688 394.5 102.07 394.5 104.914V122H390.305V106.32C390.305 104.633 390.164 103.422 389.883 102.688C389.617 101.938 389.125 101.336 388.406 100.883C387.688 100.43 386.844 100.203 385.875 100.203C384.125 100.203 382.672 100.789 381.516 101.961C380.359 103.117 379.781 104.977 379.781 107.539V122H375.562V105.828C375.562 103.953 375.219 102.547 374.531 101.609C373.844 100.672 372.719 100.203 371.156 100.203C369.969 100.203 368.867 100.516 367.852 101.141C366.852 101.766 366.125 102.68 365.672 103.883C365.219 105.086 364.992 106.82 364.992 109.086V122H360.773ZM431.156 113.984L435.516 114.523C434.828 117.07 433.555 119.047 431.695 120.453C429.836 121.859 427.461 122.562 424.57 122.562C420.93 122.562 418.039 121.445 415.898 119.211C413.773 116.961 412.711 113.812 412.711 109.766C412.711 105.578 413.789 102.328 415.945 100.016C418.102 97.7031 420.898 96.5469 424.336 96.5469C427.664 96.5469 430.383 97.6797 432.492 99.9453C434.602 102.211 435.656 105.398 435.656 109.508C435.656 109.758 435.648 110.133 435.633 110.633H417.07C417.227 113.367 418 115.461 419.391 116.914C420.781 118.367 422.516 119.094 424.594 119.094C426.141 119.094 427.461 118.688 428.555 117.875C429.648 117.062 430.516 115.766 431.156 113.984ZM417.305 107.164H431.203C431.016 105.07 430.484 103.5 429.609 102.453C428.266 100.828 426.523 100.016 424.383 100.016C422.445 100.016 420.812 100.664 419.484 101.961C418.172 103.258 417.445 104.992 417.305 107.164ZM421.852 94.0156L424.969 87.4531H430.5L425.344 94.0156H421.852ZM455.742 122V87.6406H460.289V122H455.742ZM484.031 118.93C482.469 120.258 480.961 121.195 479.508 121.742C478.07 122.289 476.523 122.562 474.867 122.562C472.133 122.562 470.031 121.898 468.562 120.57C467.094 119.227 466.359 117.516 466.359 115.438C466.359 114.219 466.633 113.109 467.18 112.109C467.742 111.094 468.469 110.281 469.359 109.672C470.266 109.062 471.281 108.602 472.406 108.289C473.234 108.07 474.484 107.859 476.156 107.656C479.562 107.25 482.07 106.766 483.68 106.203C483.695 105.625 483.703 105.258 483.703 105.102C483.703 103.383 483.305 102.172 482.508 101.469C481.43 100.516 479.828 100.039 477.703 100.039C475.719 100.039 474.25 100.391 473.297 101.094C472.359 101.781 471.664 103.008 471.211 104.773L467.086 104.211C467.461 102.445 468.078 101.023 468.938 99.9453C469.797 98.8516 471.039 98.0156 472.664 97.4375C474.289 96.8438 476.172 96.5469 478.312 96.5469C480.438 96.5469 482.164 96.7969 483.492 97.2969C484.82 97.7969 485.797 98.4297 486.422 99.1953C487.047 99.9453 487.484 100.898 487.734 102.055C487.875 102.773 487.945 104.07 487.945 105.945V111.57C487.945 115.492 488.031 117.977 488.203 119.023C488.391 120.055 488.75 121.047 489.281 122H484.875C484.438 121.125 484.156 120.102 484.031 118.93ZM483.68 109.508C482.148 110.133 479.852 110.664 476.789 111.102C475.055 111.352 473.828 111.633 473.109 111.945C472.391 112.258 471.836 112.719 471.445 113.328C471.055 113.922 470.859 114.586 470.859 115.32C470.859 116.445 471.281 117.383 472.125 118.133C472.984 118.883 474.234 119.258 475.875 119.258C477.5 119.258 478.945 118.906 480.211 118.203C481.477 117.484 482.406 116.508 483 115.273C483.453 114.32 483.68 112.914 483.68 111.055V109.508ZM494.508 122V97.1094H498.305V100.648C500.133 97.9141 502.773 96.5469 506.227 96.5469C507.727 96.5469 509.102 96.8203 510.352 97.3672C511.617 97.8984 512.562 98.6016 513.188 99.4766C513.812 100.352 514.25 101.391 514.5 102.594C514.656 103.375 514.734 104.742 514.734 106.695V122H510.516V106.859C510.516 105.141 510.352 103.859 510.023 103.016C509.695 102.156 509.109 101.477 508.266 100.977C507.438 100.461 506.461 100.203 505.336 100.203C503.539 100.203 501.984 100.773 500.672 101.914C499.375 103.055 498.727 105.219 498.727 108.406V122H494.508ZM537.469 112.883L541.617 113.422C541.164 116.281 540 118.523 538.125 120.148C536.266 121.758 533.977 122.562 531.258 122.562C527.852 122.562 525.109 121.453 523.031 119.234C520.969 117 519.938 113.805 519.938 109.648C519.938 106.961 520.383 104.609 521.273 102.594C522.164 100.578 523.516 99.0703 525.328 98.0703C527.156 97.0547 529.141 96.5469 531.281 96.5469C533.984 96.5469 536.195 97.2344 537.914 98.6094C539.633 99.9688 540.734 101.906 541.219 104.422L537.117 105.055C536.727 103.383 536.031 102.125 535.031 101.281C534.047 100.438 532.852 100.016 531.445 100.016C529.32 100.016 527.594 100.781 526.266 102.312C524.938 103.828 524.273 106.234 524.273 109.531C524.273 112.875 524.914 115.305 526.195 116.82C527.477 118.336 529.148 119.094 531.211 119.094C532.867 119.094 534.25 118.586 535.359 117.57C536.469 116.555 537.172 114.992 537.469 112.883ZM561.469 118.93C559.906 120.258 558.398 121.195 556.945 121.742C555.508 122.289 553.961 122.562 552.305 122.562C549.57 122.562 547.469 121.898 546 120.57C544.531 119.227 543.797 117.516 543.797 115.438C543.797 114.219 544.07 113.109 544.617 112.109C545.18 111.094 545.906 110.281 546.797 109.672C547.703 109.062 548.719 108.602 549.844 108.289C550.672 108.07 551.922 107.859 553.594 107.656C557 107.25 559.508 106.766 561.117 106.203C561.133 105.625 561.141 105.258 561.141 105.102C561.141 103.383 560.742 102.172 559.945 101.469C558.867 100.516 557.266 100.039 555.141 100.039C553.156 100.039 551.688 100.391 550.734 101.094C549.797 101.781 549.102 103.008 548.648 104.773L544.523 104.211C544.898 102.445 545.516 101.023 546.375 99.9453C547.234 98.8516 548.477 98.0156 550.102 97.4375C551.727 96.8438 553.609 96.5469 555.75 96.5469C557.875 96.5469 559.602 96.7969 560.93 97.2969C562.258 97.7969 563.234 98.4297 563.859 99.1953C564.484 99.9453 564.922 100.898 565.172 102.055C565.312 102.773 565.383 104.07 565.383 105.945V111.57C565.383 115.492 565.469 117.977 565.641 119.023C565.828 120.055 566.188 121.047 566.719 122H562.312C561.875 121.125 561.594 120.102 561.469 118.93ZM561.117 109.508C559.586 110.133 557.289 110.664 554.227 111.102C552.492 111.352 551.266 111.633 550.547 111.945C549.828 112.258 549.273 112.719 548.883 113.328C548.492 113.922 548.297 114.586 548.297 115.32C548.297 116.445 548.719 117.383 549.562 118.133C550.422 118.883 551.672 119.258 553.312 119.258C554.938 119.258 556.383 118.906 557.648 118.203C558.914 117.484 559.844 116.508 560.438 115.273C560.891 114.32 561.117 112.914 561.117 111.055V109.508ZM579.844 113.539C579.828 112.977 579.82 112.555 579.82 112.273C579.82 110.617 580.055 109.188 580.523 107.984C580.867 107.078 581.422 106.164 582.188 105.242C582.75 104.57 583.758 103.594 585.211 102.312C586.68 101.016 587.633 99.9844 588.07 99.2188C588.508 98.4531 588.727 97.6172 588.727 96.7109C588.727 95.0703 588.086 93.6328 586.805 92.3984C585.523 91.1484 583.953 90.5234 582.094 90.5234C580.297 90.5234 578.797 91.0859 577.594 92.2109C576.391 93.3359 575.602 95.0938 575.227 97.4844L570.891 96.9688C571.281 93.7656 572.438 91.3125 574.359 89.6094C576.297 87.9062 578.852 87.0547 582.023 87.0547C585.383 87.0547 588.062 87.9688 590.062 89.7969C592.062 91.625 593.062 93.8359 593.062 96.4297C593.062 97.9297 592.711 99.3125 592.008 100.578C591.305 101.844 589.93 103.383 587.883 105.195C586.508 106.414 585.609 107.312 585.188 107.891C584.766 108.469 584.453 109.133 584.25 109.883C584.047 110.633 583.93 111.852 583.898 113.539H579.844ZM579.586 122V117.195H584.391V122H579.586Z" fill="white"/>
<path d="M102.216 42.1622L130.963 90.7691L194.285 79.6037L148.729 120.81L177.476 169.417L120.574 146.276L75.0183 187.483L85.4069 131.975L28.5052 108.835L91.8274 97.6697L102.216 42.1622Z" fill="#5C0E0A"/>
<path d="M56.8976 68.3268L110.163 87.0837L151.493 37.8278L143.082 98.6762L196.347 117.433L137.884 136.283L129.473 197.131L101.752 147.932L43.2884 166.781L84.619 117.526L56.8976 68.3268Z" fill="#5C0E0A"/>
<path d="M96.2948 139.054L92.9094 124.612L95.1522 123.566L95.7048 125.948C96.1039 124.626 96.5469 123.635 97.0338 122.975C97.5291 122.312 98.1608 121.801 98.929 121.443C99.7468 121.061 100.53 120.962 101.28 121.146C102.034 121.317 102.678 121.751 103.214 122.447C103.498 121.309 103.913 120.366 104.459 119.618C105.01 118.858 105.694 118.288 106.512 117.907C107.611 117.394 108.554 117.271 109.342 117.537C110.138 117.8 110.756 118.402 111.195 119.343C111.384 119.748 111.601 120.462 111.846 121.484L114.026 130.785L111.783 131.831L109.536 122.289C109.362 121.505 109.204 120.961 109.061 120.655C108.861 120.226 108.567 119.951 108.178 119.83C107.79 119.709 107.348 119.764 106.853 119.995C106.184 120.307 105.597 120.828 105.091 121.556C104.586 122.284 104.294 123.069 104.214 123.911C104.138 124.741 104.273 125.905 104.62 127.403L106.257 134.408L104.014 135.454L101.73 125.703C101.581 125.038 101.447 124.578 101.328 124.322C101.127 123.892 100.829 123.609 100.433 123.472C100.046 123.331 99.6371 123.36 99.2076 123.56C98.5715 123.857 97.9968 124.371 97.4834 125.104C96.9782 125.832 96.6762 126.662 96.5774 127.593C96.4747 128.516 96.5949 129.712 96.9381 131.181L98.5376 138.008L96.2948 139.054ZM125.555 123.418C125.091 124.449 124.572 125.289 124 125.938C123.424 126.579 122.727 127.09 121.909 127.471C120.695 128.038 119.55 128.139 118.476 127.775C117.397 127.403 116.598 126.66 116.078 125.544C115.735 124.809 115.598 124.084 115.666 123.368C115.739 122.64 115.973 121.978 116.369 121.381C116.761 120.776 117.322 120.212 118.054 119.69C118.512 119.356 119.43 118.832 120.807 118.12C122.192 117.403 123.135 116.783 123.635 116.258C123.523 115.566 123.373 115.017 123.184 114.613C122.942 114.092 122.561 113.772 122.042 113.652C121.329 113.481 120.473 113.629 119.473 114.095C118.532 114.534 117.857 115.105 117.451 115.808C117.049 116.498 116.89 117.291 116.976 118.186L114.616 119.045C114.47 117.525 114.735 116.184 115.411 115.024C116.095 113.86 117.202 112.922 118.73 112.209C120.357 111.451 121.827 111.238 123.139 111.571C124.135 111.811 124.849 112.393 125.281 113.318C125.608 114.02 125.884 114.882 126.109 115.904L126.904 119.516C127.158 120.664 127.437 121.565 127.741 122.218C127.934 122.631 128.302 123.183 128.846 123.875L126.578 124.932C126.254 124.56 125.913 124.056 125.555 123.418ZM124.04 118C123.784 118.27 123.489 118.523 123.157 118.759C122.832 118.991 122.266 119.34 121.458 119.807C120.207 120.532 119.355 121.11 118.903 121.542C118.447 121.966 118.173 122.435 118.081 122.951C117.99 123.466 118.054 123.959 118.273 124.43C118.566 125.058 119.022 125.474 119.64 125.678C120.267 125.879 120.981 125.793 121.782 125.419C122.525 125.072 123.149 124.545 123.654 123.837C124.155 123.121 124.44 122.319 124.509 121.432C124.578 120.545 124.421 119.401 124.04 118ZM129.685 118.008L131.864 116.825C132.165 117.47 132.52 117.973 132.93 118.335C133.34 118.697 133.877 118.899 134.541 118.941C135.212 118.98 135.903 118.834 136.614 118.503C137.605 118.04 138.256 117.495 138.567 116.868C138.878 116.24 138.908 115.658 138.657 115.121C138.476 114.733 138.156 114.434 137.697 114.226C137.23 114.022 136.284 113.945 134.859 113.996C133.439 114.034 132.516 114.028 132.089 113.975C131.378 113.895 130.775 113.693 130.283 113.369C129.786 113.038 129.399 112.574 129.122 111.98C128.637 110.939 128.634 109.854 129.113 108.725C129.592 107.597 130.575 106.686 132.062 105.992C133.714 105.222 135.149 105.021 136.367 105.388C137.588 105.744 138.507 106.537 139.121 107.769L136.997 108.941C136.595 108.163 136.021 107.666 135.277 107.45C134.532 107.234 133.677 107.351 132.71 107.802C131.934 108.164 131.413 108.623 131.15 109.179C130.886 109.734 130.85 110.218 131.043 110.631C131.235 111.044 131.591 111.321 132.109 111.462C132.457 111.561 133.251 111.593 134.491 111.557C136.556 111.5 137.912 111.582 138.558 111.803C139.589 112.158 140.333 112.826 140.791 113.809C141.095 114.462 141.192 115.196 141.08 116.013C140.976 116.826 140.6 117.615 139.951 118.38C139.306 119.133 138.426 119.769 137.311 120.289C135.791 120.998 134.323 121.225 132.907 120.97C131.491 120.716 130.417 119.728 129.685 118.008Z" fill="white"/>
</svg>
