<svg width="286" height="59" viewBox="0 0 286 59" fill="none" xmlns="http://www.w3.org/2000/svg">
<path d="M74.8344 58.36C73.8744 58.36 73.2344 58.12 72.9144 57.64C71.9544 56.2533 71.4744 54.5733 71.4744 52.6C71.4744 48.0133 73.9277 41.4267 78.8344 32.84C81.981 27.4533 86.8344 20.2 93.3944 11.08C90.621 13.3733 87.6077 16.0133 84.3544 19C81.101 21.9867 77.6077 25.2933 73.8744 28.92C69.021 33.6667 65.0477 37.8533 61.9544 41.48C58.9144 45.0533 56.7277 48.0133 55.3944 50.36C54.0077 52.8667 52.3277 54.12 50.3544 54.12C49.4477 54.12 48.9944 53.8 48.9944 53.16C48.9944 52.9467 49.0744 52.7333 49.2344 52.52C50.141 51.08 51.3144 49.1867 52.7544 46.84C54.1944 44.44 55.901 41.5867 57.8744 38.28C63.6344 28.2533 67.7677 20.28 70.2744 14.36C71.181 12.12 71.6344 10.4933 71.6344 9.48C71.6344 8.62667 71.341 8.2 70.7544 8.2C69.9544 8.2 68.701 8.92 66.9944 10.36C61.0744 15.32 54.4344 22.2267 47.0744 31.08C43.981 34.76 41.261 38.1733 38.9144 41.32C36.621 44.4133 34.6744 47.2133 33.0744 49.72C31.7944 51.6933 31.1544 53.1067 31.1544 53.96C31.1544 54.28 31.261 54.4933 31.4744 54.6C31.741 54.76 31.8744 54.84 31.8744 54.84C31.8744 54.8933 31.3944 55.2933 30.4344 56.04C29.581 56.4667 28.621 56.68 27.5544 56.68C25.3677 56.68 24.4344 56.1733 24.7544 55.16C25.501 52.76 27.981 48.4133 32.1944 42.12C37.6877 33.96 41.261 28.3867 42.9144 25.4C46.4877 18.9467 48.2744 13.8 48.2744 9.96C48.2744 7.29333 47.581 5.4 46.1944 4.28C44.8077 3.16 42.701 2.6 39.8744 2.6C33.6344 2.6 27.181 5.29333 20.5144 10.68C17.6344 13.0267 14.941 15.6933 12.4344 18.68C9.92771 21.6133 7.90104 24.68 6.35438 27.88C4.80771 31.08 4.03438 34.2267 4.03438 37.32C4.03438 42.8667 6.64771 45.64 11.8744 45.64C18.0077 45.64 22.7544 43.4267 26.1144 39C27.3944 37.24 28.0344 35.5867 28.0344 34.04C28.0344 33.1333 27.7677 32.52 27.2344 32.2C27.181 32.1467 27.1544 32.0667 27.1544 31.96C27.1544 31.7467 27.3144 31.64 27.6344 31.64C29.021 31.64 29.7144 32.5467 29.7144 34.36C29.7144 35.48 29.2344 36.8933 28.2744 38.6C27.0477 40.7333 25.2077 42.5467 22.7544 44.04C19.661 45.96 16.2477 46.92 12.5144 46.92C8.88771 46.92 5.98104 45.7733 3.79438 43.48C1.60771 41.1867 0.514375 38.1733 0.514375 34.44C0.514375 26.0133 6.00771 17.4 16.9944 8.6C19.021 7 21.421 5.64 24.1944 4.52C27.021 3.34667 29.9277 2.46666 32.9144 1.88C35.901 1.24 38.6477 0.919998 41.1544 0.919998C44.781 0.919998 47.5277 1.53333 49.3944 2.76C51.3144 3.93333 52.2744 6.01333 52.2744 9C52.2744 12.7333 50.7544 17.7733 47.7144 24.12C46.7544 26.0933 44.5944 29.6933 41.2344 34.92L47.3944 27.08C48.941 25.0533 51.021 22.6533 53.6344 19.88C56.2477 17.1067 59.341 13.96 62.9144 10.44C64.461 8.94667 66.221 7.66667 68.1944 6.6C70.1677 5.53333 71.8477 5 73.2344 5C75.1544 5 76.1144 6.01333 76.1144 8.04C76.1144 9.8 75.3944 12.2 73.9544 15.24C72.0344 19.2933 69.6344 24.0133 66.7544 29.4C65.8477 31.0533 65.2344 32.4667 64.9144 33.64C64.5944 34.8133 64.381 35.48 64.2744 35.64C64.4877 35.3733 64.9944 34.76 65.7944 33.8C66.6477 32.7867 67.821 31.4267 69.3144 29.72C71.1277 27.6933 73.2877 25.48 75.7944 23.08C78.301 20.6267 81.181 18.0133 84.4344 15.24L97.2344 4.68C98.2477 3.82667 99.1544 3.4 99.9544 3.4C100.701 3.4 101.234 3.85333 101.554 4.76C101.928 5.61333 102.301 6.73333 102.674 8.12C102.941 9.02666 101.661 10.92 98.8344 13.8C92.1677 20.6267 86.4077 28.2533 81.5544 36.68C77.1277 44.4667 74.9144 50.0933 74.9144 53.56C74.9144 55.1067 75.421 55.88 76.4344 55.88C77.0744 55.88 78.6744 55.32 81.2344 54.2C83.4744 53.1867 84.941 52.6 85.6344 52.44C85.901 52.5467 86.0344 52.68 86.0344 52.84C86.0344 53.64 84.621 54.76 81.7944 56.2C79.021 57.64 76.701 58.36 74.8344 58.36ZM110.297 44.9844L114.656 45.5234C113.969 48.0703 112.695 50.0469 110.836 51.4531C108.977 52.8594 106.602 53.5625 103.711 53.5625C100.07 53.5625 97.1797 52.4453 95.0391 50.2109C92.9141 47.9609 91.8516 44.8125 91.8516 40.7656C91.8516 36.5781 92.9297 33.3281 95.0859 31.0156C97.2422 28.7031 100.039 27.5469 103.477 27.5469C106.805 27.5469 109.523 28.6797 111.633 30.9453C113.742 33.2109 114.797 36.3984 114.797 40.5078C114.797 40.7578 114.789 41.1328 114.773 41.6328H96.2109C96.3672 44.3672 97.1406 46.4609 98.5312 47.9141C99.9219 49.3672 101.656 50.0938 103.734 50.0938C105.281 50.0938 106.602 49.6875 107.695 48.875C108.789 48.0625 109.656 46.7656 110.297 44.9844ZM96.4453 38.1641H110.344C110.156 36.0703 109.625 34.5 108.75 33.4531C107.406 31.8281 105.664 31.0156 103.523 31.0156C101.586 31.0156 99.9531 31.6641 98.625 32.9609C97.3125 34.2578 96.5859 35.9922 96.4453 38.1641ZM149.578 43.8828L153.727 44.4219C153.273 47.2812 152.109 49.5234 150.234 51.1484C148.375 52.7578 146.086 53.5625 143.367 53.5625C139.961 53.5625 137.219 52.4531 135.141 50.2344C133.078 48 132.047 44.8047 132.047 40.6484C132.047 37.9609 132.492 35.6094 133.383 33.5938C134.273 31.5781 135.625 30.0703 137.438 29.0703C139.266 28.0547 141.25 27.5469 143.391 27.5469C146.094 27.5469 148.305 28.2344 150.023 29.6094C151.742 30.9688 152.844 32.9062 153.328 35.4219L149.227 36.0547C148.836 34.3828 148.141 33.125 147.141 32.2812C146.156 31.4375 144.961 31.0156 143.555 31.0156C141.43 31.0156 139.703 31.7812 138.375 33.3125C137.047 34.8281 136.383 37.2344 136.383 40.5312C136.383 43.875 137.023 46.3047 138.305 47.8203C139.586 49.3359 141.258 50.0938 143.32 50.0938C144.977 50.0938 146.359 49.5859 147.469 48.5703C148.578 47.5547 149.281 45.9922 149.578 43.8828ZM155.766 40.5547C155.766 35.9453 157.047 32.5312 159.609 30.3125C161.75 28.4688 164.359 27.5469 167.438 27.5469C170.859 27.5469 173.656 28.6719 175.828 30.9219C178 33.1562 179.086 36.25 179.086 40.2031C179.086 43.4062 178.602 45.9297 177.633 47.7734C176.68 49.6016 175.281 51.0234 173.438 52.0391C171.609 53.0547 169.609 53.5625 167.438 53.5625C163.953 53.5625 161.133 52.4453 158.977 50.2109C156.836 47.9766 155.766 44.7578 155.766 40.5547ZM160.102 40.5547C160.102 43.7422 160.797 46.1328 162.188 47.7266C163.578 49.3047 165.328 50.0938 167.438 50.0938C169.531 50.0938 171.273 49.2969 172.664 47.7031C174.055 46.1094 174.75 43.6797 174.75 40.4141C174.75 37.3359 174.047 35.0078 172.641 33.4297C171.25 31.8359 169.516 31.0391 167.438 31.0391C165.328 31.0391 163.578 31.8281 162.188 33.4062C160.797 34.9844 160.102 37.3672 160.102 40.5547ZM184.055 53V28.1094H187.852V31.6484C189.68 28.9141 192.32 27.5469 195.773 27.5469C197.273 27.5469 198.648 27.8203 199.898 28.3672C201.164 28.8984 202.109 29.6016 202.734 30.4766C203.359 31.3516 203.797 32.3906 204.047 33.5938C204.203 34.375 204.281 35.7422 204.281 37.6953V53H200.062V37.8594C200.062 36.1406 199.898 34.8594 199.57 34.0156C199.242 33.1562 198.656 32.4766 197.812 31.9766C196.984 31.4609 196.008 31.2031 194.883 31.2031C193.086 31.2031 191.531 31.7734 190.219 32.9141C188.922 34.0547 188.273 36.2188 188.273 39.4062V53H184.055ZM219.984 49.2266L220.594 52.9531C219.406 53.2031 218.344 53.3281 217.406 53.3281C215.875 53.3281 214.688 53.0859 213.844 52.6016C213 52.1172 212.406 51.4844 212.062 50.7031C211.719 49.9062 211.547 48.2422 211.547 45.7109V31.3906H208.453V28.1094H211.547V21.9453L215.742 19.4141V28.1094H219.984V31.3906H215.742V45.9453C215.742 47.1484 215.812 47.9219 215.953 48.2656C216.109 48.6094 216.352 48.8828 216.68 49.0859C217.023 49.2891 217.508 49.3906 218.133 49.3906C218.602 49.3906 219.219 49.3359 219.984 49.2266ZM240.375 49.9297C238.812 51.2578 237.305 52.1953 235.852 52.7422C234.414 53.2891 232.867 53.5625 231.211 53.5625C228.477 53.5625 226.375 52.8984 224.906 51.5703C223.438 50.2266 222.703 48.5156 222.703 46.4375C222.703 45.2188 222.977 44.1094 223.523 43.1094C224.086 42.0938 224.812 41.2812 225.703 40.6719C226.609 40.0625 227.625 39.6016 228.75 39.2891C229.578 39.0703 230.828 38.8594 232.5 38.6562C235.906 38.25 238.414 37.7656 240.023 37.2031C240.039 36.625 240.047 36.2578 240.047 36.1016C240.047 34.3828 239.648 33.1719 238.852 32.4688C237.773 31.5156 236.172 31.0391 234.047 31.0391C232.062 31.0391 230.594 31.3906 229.641 32.0938C228.703 32.7812 228.008 34.0078 227.555 35.7734L223.43 35.2109C223.805 33.4453 224.422 32.0234 225.281 30.9453C226.141 29.8516 227.383 29.0156 229.008 28.4375C230.633 27.8438 232.516 27.5469 234.656 27.5469C236.781 27.5469 238.508 27.7969 239.836 28.2969C241.164 28.7969 242.141 29.4297 242.766 30.1953C243.391 30.9453 243.828 31.8984 244.078 33.0547C244.219 33.7734 244.289 35.0703 244.289 36.9453V42.5703C244.289 46.4922 244.375 48.9766 244.547 50.0234C244.734 51.0547 245.094 52.0469 245.625 53H241.219C240.781 52.125 240.5 51.1016 240.375 49.9297ZM240.023 40.5078C238.492 41.1328 236.195 41.6641 233.133 42.1016C231.398 42.3516 230.172 42.6328 229.453 42.9453C228.734 43.2578 228.18 43.7188 227.789 44.3281C227.398 44.9219 227.203 45.5859 227.203 46.3203C227.203 47.4453 227.625 48.3828 228.469 49.1328C229.328 49.8828 230.578 50.2578 232.219 50.2578C233.844 50.2578 235.289 49.9062 236.555 49.2031C237.82 48.4844 238.75 47.5078 239.344 46.2734C239.797 45.3203 240.023 43.9141 240.023 42.0547V40.5078ZM260.062 49.2266L260.672 52.9531C259.484 53.2031 258.422 53.3281 257.484 53.3281C255.953 53.3281 254.766 53.0859 253.922 52.6016C253.078 52.1172 252.484 51.4844 252.141 50.7031C251.797 49.9062 251.625 48.2422 251.625 45.7109V31.3906H248.531V28.1094H251.625V21.9453L255.82 19.4141V28.1094H260.062V31.3906H255.82V45.9453C255.82 47.1484 255.891 47.9219 256.031 48.2656C256.188 48.6094 256.43 48.8828 256.758 49.0859C257.102 49.2891 257.586 49.3906 258.211 49.3906C258.68 49.3906 259.297 49.3359 260.062 49.2266ZM281.25 44.9844L285.609 45.5234C284.922 48.0703 283.648 50.0469 281.789 51.4531C279.93 52.8594 277.555 53.5625 274.664 53.5625C271.023 53.5625 268.133 52.4453 265.992 50.2109C263.867 47.9609 262.805 44.8125 262.805 40.7656C262.805 36.5781 263.883 33.3281 266.039 31.0156C268.195 28.7031 270.992 27.5469 274.43 27.5469C277.758 27.5469 280.477 28.6797 282.586 30.9453C284.695 33.2109 285.75 36.3984 285.75 40.5078C285.75 40.7578 285.742 41.1328 285.727 41.6328H267.164C267.32 44.3672 268.094 46.4609 269.484 47.9141C270.875 49.3672 272.609 50.0938 274.688 50.0938C276.234 50.0938 277.555 49.6875 278.648 48.875C279.742 48.0625 280.609 46.7656 281.25 44.9844ZM267.398 38.1641H281.297C281.109 36.0703 280.578 34.5 279.703 33.4531C278.359 31.8281 276.617 31.0156 274.477 31.0156C272.539 31.0156 270.906 31.6641 269.578 32.9609C268.266 34.2578 267.539 35.9922 267.398 38.1641Z" fill="white"/>
</svg>
