<svg width="620" height="241" viewBox="0 0 620 241" fill="none" xmlns="http://www.w3.org/2000/svg">
<path d="M224.486 117.28C224.646 117.28 224.886 117.307 225.206 117.36C225.579 117.413 225.872 117.44 226.086 117.44C227.259 114.24 228.406 110.907 229.526 107.44C230.699 103.92 231.766 100.587 232.726 97.44C233.686 94.2933 234.272 92.3733 234.486 91.68C234.912 90.56 235.712 90 236.886 90C237.846 90 238.326 90.4267 238.326 91.28C238.326 91.3867 238.299 91.4933 238.246 91.6C238.246 91.6533 238.246 91.7333 238.246 91.84C235.952 100.32 233.099 108.853 229.686 117.44C233.206 117.227 236.432 116.88 239.366 116.4C242.352 115.867 244.939 115.253 247.126 114.56C249.312 113.813 251.206 113.013 252.806 112.16C254.459 111.253 255.792 110.293 256.806 109.28C257.819 108.267 258.566 107.253 259.046 106.24C259.526 105.173 259.766 104.08 259.766 102.96C259.766 99.0133 257.152 95.4667 251.926 92.32C246.752 89.1733 240.432 87.6 232.966 87.6C228.219 87.6 223.712 88.16 219.446 89.28C215.232 90.3467 211.792 91.8933 209.126 93.92C206.512 95.8933 205.206 98.08 205.206 100.48C205.206 103.36 207.179 106.293 211.126 109.28C212.086 110.027 212.566 110.507 212.566 110.72C212.566 110.88 212.432 110.96 212.166 110.96C211.792 110.96 211.232 110.827 210.486 110.56C209.792 110.293 209.286 110.027 208.966 109.76C203.952 106.08 201.446 102.533 201.446 99.12C201.446 97.0933 202.326 95.2267 204.086 93.52C205.899 91.76 208.299 90.32 211.286 89.2C214.272 88.0267 217.686 87.12 221.526 86.48C225.366 85.84 229.366 85.52 233.526 85.52C238.432 85.52 242.832 85.9733 246.726 86.88C250.672 87.7333 253.846 88.9067 256.246 90.4C258.699 91.8933 260.539 93.5733 261.766 95.44C263.046 97.2533 263.686 99.2 263.686 101.28C263.686 103.52 262.939 105.707 261.446 107.84C259.952 109.973 257.792 111.92 254.966 113.68C252.192 115.387 248.566 116.773 244.086 117.84C239.606 118.853 234.646 119.36 229.206 119.36C229.099 119.36 228.992 119.36 228.886 119.36C227.126 123.573 225.339 127.44 223.526 130.96C221.712 134.427 219.712 137.707 217.526 140.8C215.339 143.947 213.019 146.373 210.566 148.08C208.166 149.84 205.766 150.72 203.366 150.72C199.259 150.72 195.286 148.053 191.446 142.72C189.366 139.787 188.326 136.027 188.326 131.44C188.326 130.427 188.406 129.547 188.566 128.8C188.779 128 189.046 127.6 189.366 127.6C189.792 127.6 190.059 128.347 190.166 129.84C190.166 130.587 190.326 131.627 190.646 132.96C190.966 134.293 191.499 135.84 192.246 137.6C192.992 139.307 193.899 140.907 194.966 142.4C196.032 143.947 197.419 145.227 199.126 146.24C200.886 147.307 202.752 147.84 204.726 147.84C205.099 147.84 205.446 147.813 205.766 147.76C211.952 147.173 218.512 137.68 225.446 119.28C225.019 119.12 224.646 118.907 224.326 118.64C224.006 118.32 223.846 118.027 223.846 117.76C223.846 117.44 224.059 117.28 224.486 117.28ZM259.164 138V113.109H262.961V116.883C263.93 115.117 264.82 113.953 265.633 113.391C266.461 112.828 267.367 112.547 268.352 112.547C269.773 112.547 271.219 113 272.688 113.906L271.234 117.82C270.203 117.211 269.172 116.906 268.141 116.906C267.219 116.906 266.391 117.188 265.656 117.75C264.922 118.297 264.398 119.062 264.086 120.047C263.617 121.547 263.383 123.188 263.383 124.969V138H259.164ZM273.625 125.555C273.625 120.945 274.906 117.531 277.469 115.312C279.609 113.469 282.219 112.547 285.297 112.547C288.719 112.547 291.516 113.672 293.688 115.922C295.859 118.156 296.945 121.25 296.945 125.203C296.945 128.406 296.461 130.93 295.492 132.773C294.539 134.602 293.141 136.023 291.297 137.039C289.469 138.055 287.469 138.562 285.297 138.562C281.812 138.562 278.992 137.445 276.836 135.211C274.695 132.977 273.625 129.758 273.625 125.555ZM277.961 125.555C277.961 128.742 278.656 131.133 280.047 132.727C281.438 134.305 283.188 135.094 285.297 135.094C287.391 135.094 289.133 134.297 290.523 132.703C291.914 131.109 292.609 128.68 292.609 125.414C292.609 122.336 291.906 120.008 290.5 118.43C289.109 116.836 287.375 116.039 285.297 116.039C283.188 116.039 281.438 116.828 280.047 118.406C278.656 119.984 277.961 122.367 277.961 125.555ZM301.891 108.539V103.641H306.109V108.539H301.891ZM296.547 147.656L297.344 144.07C298.188 144.289 298.852 144.398 299.336 144.398C300.195 144.398 300.836 144.109 301.258 143.531C301.68 142.969 301.891 141.547 301.891 139.266V113.109H306.109V139.359C306.109 142.422 305.711 144.555 304.914 145.758C303.898 147.32 302.211 148.102 299.852 148.102C298.711 148.102 297.609 147.953 296.547 147.656ZM329.641 129.984L334 130.523C333.312 133.07 332.039 135.047 330.18 136.453C328.32 137.859 325.945 138.562 323.055 138.562C319.414 138.562 316.523 137.445 314.383 135.211C312.258 132.961 311.195 129.812 311.195 125.766C311.195 121.578 312.273 118.328 314.43 116.016C316.586 113.703 319.383 112.547 322.82 112.547C326.148 112.547 328.867 113.68 330.977 115.945C333.086 118.211 334.141 121.398 334.141 125.508C334.141 125.758 334.133 126.133 334.117 126.633H315.555C315.711 129.367 316.484 131.461 317.875 132.914C319.266 134.367 321 135.094 323.078 135.094C324.625 135.094 325.945 134.688 327.039 133.875C328.133 133.062 329 131.766 329.641 129.984ZM315.789 123.164H329.688C329.5 121.07 328.969 119.5 328.094 118.453C326.75 116.828 325.008 116.016 322.867 116.016C320.93 116.016 319.297 116.664 317.969 117.961C316.656 119.258 315.93 120.992 315.789 123.164ZM348.531 134.227L349.141 137.953C347.953 138.203 346.891 138.328 345.953 138.328C344.422 138.328 343.234 138.086 342.391 137.602C341.547 137.117 340.953 136.484 340.609 135.703C340.266 134.906 340.094 133.242 340.094 130.711V116.391H337V113.109H340.094V106.945L344.289 104.414V113.109H348.531V116.391H344.289V130.945C344.289 132.148 344.359 132.922 344.5 133.266C344.656 133.609 344.898 133.883 345.227 134.086C345.57 134.289 346.055 134.391 346.68 134.391C347.148 134.391 347.766 134.336 348.531 134.227ZM351.109 125.555C351.109 120.945 352.391 117.531 354.953 115.312C357.094 113.469 359.703 112.547 362.781 112.547C366.203 112.547 369 113.672 371.172 115.922C373.344 118.156 374.43 121.25 374.43 125.203C374.43 128.406 373.945 130.93 372.977 132.773C372.023 134.602 370.625 136.023 368.781 137.039C366.953 138.055 364.953 138.562 362.781 138.562C359.297 138.562 356.477 137.445 354.32 135.211C352.18 132.977 351.109 129.758 351.109 125.555ZM355.445 125.555C355.445 128.742 356.141 131.133 357.531 132.727C358.922 134.305 360.672 135.094 362.781 135.094C364.875 135.094 366.617 134.297 368.008 132.703C369.398 131.109 370.094 128.68 370.094 125.414C370.094 122.336 369.391 120.008 367.984 118.43C366.594 116.836 364.859 116.039 362.781 116.039C360.672 116.039 358.922 116.828 357.531 118.406C356.141 119.984 355.445 122.367 355.445 125.555ZM377.711 130.57L381.883 129.914C382.117 131.586 382.766 132.867 383.828 133.758C384.906 134.648 386.406 135.094 388.328 135.094C390.266 135.094 391.703 134.703 392.641 133.922C393.578 133.125 394.047 132.195 394.047 131.133C394.047 130.18 393.633 129.43 392.805 128.883C392.227 128.508 390.789 128.031 388.492 127.453C385.398 126.672 383.25 126 382.047 125.438C380.859 124.859 379.953 124.07 379.328 123.07C378.719 122.055 378.414 120.938 378.414 119.719C378.414 118.609 378.664 117.586 379.164 116.648C379.68 115.695 380.375 114.906 381.25 114.281C381.906 113.797 382.797 113.391 383.922 113.062C385.062 112.719 386.281 112.547 387.578 112.547C389.531 112.547 391.242 112.828 392.711 113.391C394.195 113.953 395.289 114.719 395.992 115.688C396.695 116.641 397.18 117.922 397.445 119.531L393.32 120.094C393.133 118.812 392.586 117.812 391.68 117.094C390.789 116.375 389.523 116.016 387.883 116.016C385.945 116.016 384.562 116.336 383.734 116.977C382.906 117.617 382.492 118.367 382.492 119.227C382.492 119.773 382.664 120.266 383.008 120.703C383.352 121.156 383.891 121.531 384.625 121.828C385.047 121.984 386.289 122.344 388.352 122.906C391.336 123.703 393.414 124.359 394.586 124.875C395.773 125.375 396.703 126.109 397.375 127.078C398.047 128.047 398.383 129.25 398.383 130.688C398.383 132.094 397.969 133.422 397.141 134.672C396.328 135.906 395.148 136.867 393.602 137.555C392.055 138.227 390.305 138.562 388.352 138.562C385.117 138.562 382.648 137.891 380.945 136.547C379.258 135.203 378.18 133.211 377.711 130.57Z" fill="white"/>
<path d="M476.501 40.794L503.983 94.2608L578.968 89.5902L520.968 127.305L548.45 180.772L485.122 150.614L427.123 188.329L445.984 131.976L382.656 101.818L457.64 97.1473L476.501 40.794Z" fill="#5C0E0A"/>
<path d="M425.254 59.2369L482.769 88.1036L540.351 45.0655L518.316 105.944L575.831 134.811L504.697 143.569L482.661 204.448L460.734 148.982L389.6 157.741L447.182 114.703L425.254 59.2369Z" fill="#5C0E0A"/>
<path d="M453.759 138.935L450.823 126.395L448.816 127.331L448.366 125.429L450.374 124.493L449.885 122.443C449.648 121.417 449.537 120.649 449.551 120.14C449.573 119.627 449.758 119.128 450.105 118.644C450.457 118.148 451.042 117.709 451.86 117.328C452.43 117.062 453.312 116.797 454.506 116.532L455.01 118.68C454.157 118.836 453.475 119.034 452.963 119.273C452.525 119.477 452.243 119.744 452.115 120.075C451.992 120.394 452.039 121.001 452.255 121.896L452.616 123.447L455.119 122.28L455.569 124.182L453.066 125.349L456.002 137.889L453.759 138.935ZM460.512 135.786L457.127 121.344L459.109 120.419L459.806 123.368C460.009 122.036 460.319 120.976 460.737 120.189C461.162 119.397 461.713 118.843 462.391 118.527C462.837 118.319 463.461 118.224 464.264 118.242L464.318 120.751C463.798 120.651 463.308 120.709 462.845 120.925C462.06 121.291 461.459 122.104 461.041 123.365C460.623 124.626 460.709 126.502 461.297 128.993L462.643 134.792L460.512 135.786ZM467.031 126.667C465.833 124.098 465.597 121.618 466.323 119.228C466.923 117.259 468.235 115.802 470.259 114.858C471.845 114.119 473.352 114.019 474.781 114.56C476.218 115.096 477.329 116.207 478.115 117.893C478.82 119.404 479.171 120.955 479.168 122.545C479.162 124.127 478.755 125.529 477.947 126.751C477.147 127.969 476.123 128.868 474.876 129.45C473.851 129.928 472.816 130.144 471.769 130.099C470.731 130.05 469.802 129.729 468.982 129.136C468.17 128.539 467.52 127.716 467.031 126.667ZM469.17 125.398C469.747 126.637 470.484 127.44 471.379 127.807C472.27 128.166 473.175 128.131 474.092 127.704C474.571 127.48 475.001 127.164 475.384 126.754C475.762 126.336 476.061 125.835 476.281 125.25C476.501 124.664 476.634 124.054 476.68 123.419C476.73 122.772 476.705 122.115 476.605 121.448C476.48 120.511 476.242 119.666 475.891 118.914C475.337 117.725 474.606 116.944 473.698 116.573C472.795 116.19 471.89 116.21 470.981 116.633C470.279 116.961 469.718 117.429 469.297 118.037C468.873 118.637 468.576 119.369 468.405 120.233C468.243 121.093 468.251 122.005 468.429 122.968C468.611 123.919 468.858 124.729 469.17 125.398ZM483.088 125.258L479.703 110.816L481.735 109.869L482.321 112.386C482.785 111.074 483.305 110.032 483.88 109.261C484.456 108.489 485.144 107.917 485.946 107.543C487.011 107.046 487.98 106.946 488.853 107.243C489.734 107.537 490.4 108.167 490.851 109.133C491.078 109.62 491.329 110.439 491.603 111.588L493.646 120.335L491.403 121.381L489.261 112.227C489.057 111.337 488.865 110.698 488.684 110.309C488.48 109.872 488.161 109.588 487.728 109.458C487.304 109.324 486.807 109.39 486.237 109.655C485.088 110.191 484.257 111.081 483.741 112.327C483.235 113.569 483.238 115.292 483.753 117.496L485.331 124.212L483.088 125.258ZM501.606 114.406L502.09 116.413C501.618 116.804 501.13 117.117 500.627 117.352C499.734 117.768 498.922 117.88 498.189 117.689C497.638 117.543 497.23 117.185 496.964 116.615C496.83 116.326 496.627 115.611 496.356 114.47L494.39 106.08L492.618 106.906L492.168 105.004L493.94 104.177L493.114 100.626L494.956 97.8807L496.183 103.132L498.389 102.103L498.826 104.011L496.633 105.034L498.5 113.018C498.742 114.032 498.905 114.63 498.989 114.811C499.113 115.076 499.281 115.243 499.496 115.314C499.718 115.382 500.003 115.334 500.35 115.173C500.845 114.942 501.264 114.686 501.606 114.406ZM504.134 109.863L500.91 99.3584L499.957 95.2771L502.671 94.0117L503.706 98.4317L505.534 109.21L504.134 109.863ZM504.859 115.106L504.208 112.318L506.735 111.139L507.387 113.928L504.859 115.106Z" fill="white"/>
</svg>
