<svg width="93" height="125" viewBox="0 0 93 125" fill="none" xmlns="http://www.w3.org/2000/svg">
<rect width="93" height="95" rx="20" fill="#5C0E0A"/>
<path d="M17.2578 108.242V109.278H14.5978V118H13.3238V109.278H10.6498V108.242H17.2578ZM25.434 110.328L20.814 121.612H19.498L21.01 117.916L17.916 110.328H19.33L21.738 116.544L24.118 110.328H25.434ZM27.9887 111.742C28.2407 111.303 28.6141 110.939 29.1087 110.65C29.6127 110.351 30.1961 110.202 30.8587 110.202C31.5401 110.202 32.1561 110.365 32.7067 110.692C33.2667 111.019 33.7054 111.481 34.0227 112.078C34.3401 112.666 34.4987 113.352 34.4987 114.136C34.4987 114.911 34.3401 115.601 34.0227 116.208C33.7054 116.815 33.2667 117.286 32.7067 117.622C32.1561 117.958 31.5401 118.126 30.8587 118.126C30.2054 118.126 29.6267 117.981 29.1227 117.692C28.6281 117.393 28.2501 117.025 27.9887 116.586V121.64H26.7147V110.328H27.9887V111.742ZM33.1967 114.136C33.1967 113.557 33.0801 113.053 32.8467 112.624C32.6134 112.195 32.2961 111.868 31.8947 111.644C31.5027 111.42 31.0687 111.308 30.5927 111.308C30.1261 111.308 29.6921 111.425 29.2907 111.658C28.8987 111.882 28.5814 112.213 28.3387 112.652C28.1054 113.081 27.9887 113.581 27.9887 114.15C27.9887 114.729 28.1054 115.237 28.3387 115.676C28.5814 116.105 28.8987 116.437 29.2907 116.67C29.6921 116.894 30.1261 117.006 30.5927 117.006C31.0687 117.006 31.5027 116.894 31.8947 116.67C32.2961 116.437 32.6134 116.105 32.8467 115.676C33.0801 115.237 33.1967 114.724 33.1967 114.136ZM43.1757 113.87C43.1757 114.113 43.1617 114.369 43.1337 114.64H37.0017C37.0483 115.396 37.305 115.989 37.7717 116.418C38.2477 116.838 38.8217 117.048 39.4937 117.048C40.0443 117.048 40.5017 116.922 40.8657 116.67C41.239 116.409 41.5003 116.063 41.6497 115.634H43.0217C42.8163 116.371 42.4057 116.973 41.7897 117.44C41.1737 117.897 40.4083 118.126 39.4937 118.126C38.7657 118.126 38.1123 117.963 37.5337 117.636C36.9643 117.309 36.5163 116.847 36.1897 116.25C35.863 115.643 35.6997 114.943 35.6997 114.15C35.6997 113.357 35.8583 112.661 36.1757 112.064C36.493 111.467 36.9363 111.009 37.5057 110.692C38.0843 110.365 38.747 110.202 39.4937 110.202C40.2217 110.202 40.8657 110.361 41.4257 110.678C41.9857 110.995 42.415 111.434 42.7137 111.994C43.0217 112.545 43.1757 113.17 43.1757 113.87ZM41.8597 113.604C41.8597 113.119 41.7523 112.703 41.5377 112.358C41.323 112.003 41.029 111.737 40.6557 111.56C40.2917 111.373 39.8857 111.28 39.4377 111.28C38.7937 111.28 38.243 111.485 37.7857 111.896C37.3377 112.307 37.081 112.876 37.0157 113.604H41.8597ZM47.5733 118.126C46.9853 118.126 46.458 118.028 45.9913 117.832C45.5246 117.627 45.156 117.347 44.8853 116.992C44.6146 116.628 44.4653 116.213 44.4373 115.746H45.7533C45.7906 116.129 45.968 116.441 46.2853 116.684C46.612 116.927 47.0366 117.048 47.5593 117.048C48.0446 117.048 48.4273 116.941 48.7073 116.726C48.9873 116.511 49.1273 116.241 49.1273 115.914C49.1273 115.578 48.978 115.331 48.6793 115.172C48.3806 115.004 47.9186 114.841 47.2933 114.682C46.724 114.533 46.2573 114.383 45.8933 114.234C45.5386 114.075 45.2306 113.847 44.9693 113.548C44.7173 113.24 44.5913 112.839 44.5913 112.344C44.5913 111.952 44.708 111.593 44.9413 111.266C45.1746 110.939 45.506 110.683 45.9353 110.496C46.3646 110.3 46.8546 110.202 47.4053 110.202C48.2546 110.202 48.9406 110.417 49.4633 110.846C49.986 111.275 50.266 111.863 50.3033 112.61H49.0293C49.0013 112.209 48.838 111.887 48.5393 111.644C48.25 111.401 47.858 111.28 47.3633 111.28C46.906 111.28 46.542 111.378 46.2713 111.574C46.0006 111.77 45.8653 112.027 45.8653 112.344C45.8653 112.596 45.9446 112.806 46.1033 112.974C46.2713 113.133 46.4766 113.263 46.7193 113.366C46.9713 113.459 47.3166 113.567 47.7553 113.688C48.306 113.837 48.754 113.987 49.0993 114.136C49.4446 114.276 49.7386 114.491 49.9813 114.78C50.2333 115.069 50.364 115.447 50.3733 115.914C50.3733 116.334 50.2566 116.712 50.0233 117.048C49.79 117.384 49.4586 117.65 49.0293 117.846C48.6093 118.033 48.124 118.126 47.5733 118.126ZM51.6958 114.15C51.6958 113.357 51.8544 112.666 52.1718 112.078C52.4891 111.481 52.9278 111.019 53.4878 110.692C54.0571 110.365 54.7058 110.202 55.4338 110.202C56.3764 110.202 57.1511 110.431 57.7578 110.888C58.3738 111.345 58.7798 111.98 58.9758 112.792H57.6038C57.4731 112.325 57.2164 111.957 56.8338 111.686C56.4604 111.415 55.9938 111.28 55.4338 111.28C54.7058 111.28 54.1178 111.532 53.6698 112.036C53.2218 112.531 52.9978 113.235 52.9978 114.15C52.9978 115.074 53.2218 115.788 53.6698 116.292C54.1178 116.796 54.7058 117.048 55.4338 117.048C55.9938 117.048 56.4604 116.917 56.8338 116.656C57.2071 116.395 57.4638 116.021 57.6038 115.536H58.9758C58.7704 116.32 58.3598 116.95 57.7438 117.426C57.1278 117.893 56.3578 118.126 55.4338 118.126C54.7058 118.126 54.0571 117.963 53.4878 117.636C52.9278 117.309 52.4891 116.847 52.1718 116.25C51.8544 115.653 51.6958 114.953 51.6958 114.15ZM61.9497 111.574C62.1737 111.135 62.491 110.795 62.9017 110.552C63.3217 110.309 63.8303 110.188 64.4277 110.188V111.504H64.0917C62.6637 111.504 61.9497 112.279 61.9497 113.828V118H60.6757V110.328H61.9497V111.574ZM66.5563 109.082C66.3136 109.082 66.1083 108.998 65.9403 108.83C65.7723 108.662 65.6883 108.457 65.6883 108.214C65.6883 107.971 65.7723 107.766 65.9403 107.598C66.1083 107.43 66.3136 107.346 66.5563 107.346C66.7896 107.346 66.9856 107.43 67.1443 107.598C67.3123 107.766 67.3963 107.971 67.3963 108.214C67.3963 108.457 67.3123 108.662 67.1443 108.83C66.9856 108.998 66.7896 109.082 66.5563 109.082ZM67.1723 110.328V118H65.8983V110.328H67.1723ZM70.6176 111.742C70.8696 111.303 71.243 110.939 71.7376 110.65C72.2416 110.351 72.825 110.202 73.4876 110.202C74.169 110.202 74.785 110.365 75.3356 110.692C75.8956 111.019 76.3343 111.481 76.6516 112.078C76.969 112.666 77.1276 113.352 77.1276 114.136C77.1276 114.911 76.969 115.601 76.6516 116.208C76.3343 116.815 75.8956 117.286 75.3356 117.622C74.785 117.958 74.169 118.126 73.4876 118.126C72.8343 118.126 72.2556 117.981 71.7516 117.692C71.257 117.393 70.879 117.025 70.6176 116.586V121.64H69.3436V110.328H70.6176V111.742ZM75.8256 114.136C75.8256 113.557 75.709 113.053 75.4756 112.624C75.2423 112.195 74.925 111.868 74.5236 111.644C74.1316 111.42 73.6976 111.308 73.2216 111.308C72.755 111.308 72.321 111.425 71.9196 111.658C71.5276 111.882 71.2103 112.213 70.9676 112.652C70.7343 113.081 70.6176 113.581 70.6176 114.15C70.6176 114.729 70.7343 115.237 70.9676 115.676C71.2103 116.105 71.5276 116.437 71.9196 116.67C72.321 116.894 72.755 117.006 73.2216 117.006C73.6976 117.006 74.1316 116.894 74.5236 116.67C74.925 116.437 75.2423 116.105 75.4756 115.676C75.709 115.237 75.8256 114.724 75.8256 114.136ZM80.3586 111.378V115.9C80.3586 116.273 80.4379 116.539 80.5966 116.698C80.7552 116.847 81.0306 116.922 81.4226 116.922H82.3606V118H81.2126C80.5032 118 79.9712 117.837 79.6166 117.51C79.2619 117.183 79.0846 116.647 79.0846 115.9V111.378H78.0906V110.328H79.0846V108.396H80.3586V110.328H82.3606V111.378H80.3586Z" fill="white"/>
<path d="M69.5244 21H24.4756C23.0233 21 21.6306 21.5563 20.6038 22.5465C19.5769 23.5367 19 24.8797 19 26.28V69.72C19 71.1203 19.5769 72.4633 20.6038 73.4535C21.6306 74.4437 23.0233 75 24.4756 75H69.5244C70.2435 75 70.9555 74.8634 71.6198 74.5981C72.2842 74.3327 72.8878 73.9438 73.3962 73.4535C73.9047 72.9632 74.308 72.3812 74.5832 71.7406C74.8584 71.1 75 70.4134 75 69.72V26.28C75 25.5866 74.8584 24.9 74.5832 24.2594C74.308 23.6188 73.9047 23.0368 73.3962 22.5465C72.8878 22.0562 72.2842 21.6673 71.6198 21.4019C70.9555 21.1366 70.2435 21 69.5244 21ZM51.48 51H44.48V70.32H38.9111V51H31.9111V46.62H51.48V51ZM69.5244 66.84C69.0757 67.7645 68.3495 68.5378 67.44 69.06C66.4843 69.6272 65.4304 70.0235 64.3289 70.23C63.1001 70.4706 61.8494 70.5912 60.5956 70.59C59.3124 70.5889 58.0319 70.4785 56.7689 70.26C55.6952 70.0485 54.6511 69.7163 53.6578 69.27V64.14L53.4711 63.96H53.6578V64.17C54.5932 64.8745 55.6449 65.4221 56.7689 65.79C57.8918 66.1992 59.0841 66.4027 60.2844 66.39C60.9118 66.4 61.5382 66.3396 62.1511 66.21C62.6109 66.1048 63.0515 65.9328 63.4578 65.7C63.7753 65.5133 64.042 65.2562 64.2356 64.95C64.4271 64.6013 64.5113 64.207 64.4783 63.8137C64.4452 63.4204 64.2962 63.0444 64.0489 62.73C63.7589 62.3325 63.3885 61.9957 62.96 61.74C62.4435 61.3868 61.891 61.0853 61.3111 60.84L59.2267 60C57.5784 59.3416 56.1171 58.3131 54.9644 57C54.0019 55.8811 53.4933 54.4633 53.5333 53.01C53.4971 51.906 53.7541 50.8113 54.28 49.83C54.7828 48.9753 55.486 48.2459 56.3333 47.7C57.279 47.0951 58.3345 46.6676 59.4444 46.44C60.6579 46.1675 61.9009 46.0366 63.1467 46.05C64.281 46.0347 65.4148 46.1049 66.5378 46.26C67.4722 46.4002 68.3895 46.6314 69.2756 46.95V51.9C68.8663 51.6182 68.4285 51.377 67.9689 51.18C67.4727 50.9784 66.9635 50.808 66.4444 50.67C65.9458 50.5293 65.4359 50.4289 64.92 50.37C64.444 50.3276 63.9649 50.3276 63.4889 50.37C62.9027 50.361 62.3176 50.4214 61.7467 50.55C61.2779 50.6429 60.8266 50.8048 60.4089 51.03C60.0836 51.2174 59.8069 51.4739 59.6 51.78C59.4138 52.0788 59.3169 52.4214 59.32 52.77C59.3084 53.1426 59.4172 53.5095 59.6311 53.82C59.8871 54.1603 60.203 54.4548 60.5644 54.69C61.004 55.0255 61.4846 55.3076 61.9956 55.53L63.9556 56.37C64.8549 56.7331 65.728 57.1541 66.5689 57.63C67.3051 58.0212 67.9763 58.5167 68.56 59.1C69.1296 59.6335 69.575 60.2778 69.8667 60.99C70.1638 61.8093 70.3111 62.6721 70.3022 63.54C70.2782 64.6603 70.0133 65.7635 69.5244 66.78V66.84Z" fill="white"/>
</svg>
