<svg width="93" height="125" viewBox="0 0 93 125" fill="none" xmlns="http://www.w3.org/2000/svg">
<rect width="93" height="95" rx="20" fill="#5C0E0A"/>
<path d="M22.8733 108.242L20.0453 118H18.6173L16.3493 110.146L13.9973 118L12.5833 118.014L9.85325 108.242H11.2113L13.3393 116.516L15.6913 108.242H17.1193L19.3593 116.488L21.5013 108.242H22.8733ZM27.6135 118.126C26.8948 118.126 26.2415 117.963 25.6535 117.636C25.0748 117.309 24.6175 116.847 24.2815 116.25C23.9548 115.643 23.7915 114.943 23.7915 114.15C23.7915 113.366 23.9595 112.675 24.2955 112.078C24.6408 111.471 25.1075 111.009 25.6955 110.692C26.2835 110.365 26.9415 110.202 27.6695 110.202C28.3975 110.202 29.0555 110.365 29.6435 110.692C30.2315 111.009 30.6935 111.467 31.0295 112.064C31.3748 112.661 31.5475 113.357 31.5475 114.15C31.5475 114.943 31.3701 115.643 31.0155 116.25C30.6701 116.847 30.1988 117.309 29.6015 117.636C29.0041 117.963 28.3415 118.126 27.6135 118.126ZM27.6135 117.006C28.0708 117.006 28.5001 116.899 28.9015 116.684C29.3028 116.469 29.6248 116.147 29.8675 115.718C30.1195 115.289 30.2455 114.766 30.2455 114.15C30.2455 113.534 30.1241 113.011 29.8815 112.582C29.6388 112.153 29.3215 111.835 28.9295 111.63C28.5375 111.415 28.1128 111.308 27.6555 111.308C27.1888 111.308 26.7595 111.415 26.3675 111.63C25.9848 111.835 25.6768 112.153 25.4435 112.582C25.2101 113.011 25.0935 113.534 25.0935 114.15C25.0935 114.775 25.2055 115.303 25.4295 115.732C25.6628 116.161 25.9708 116.483 26.3535 116.698C26.7361 116.903 27.1561 117.006 27.6135 117.006ZM34.4965 111.574C34.7205 111.135 35.0379 110.795 35.4485 110.552C35.8685 110.309 36.3772 110.188 36.9745 110.188V111.504H36.6385C35.2105 111.504 34.4965 112.279 34.4965 113.828V118H33.2225V110.328H34.4965V111.574ZM37.9692 114.136C37.9692 113.352 38.1279 112.666 38.4452 112.078C38.7625 111.481 39.1965 111.019 39.7472 110.692C40.3072 110.365 40.9325 110.202 41.6232 110.202C42.2205 110.202 42.7759 110.342 43.2892 110.622C43.8025 110.893 44.1945 111.252 44.4652 111.7V107.64H45.7532V118H44.4652V116.558C44.2132 117.015 43.8399 117.393 43.3452 117.692C42.8505 117.981 42.2719 118.126 41.6092 118.126C40.9279 118.126 40.3072 117.958 39.7472 117.622C39.1965 117.286 38.7625 116.815 38.4452 116.208C38.1279 115.601 37.9692 114.911 37.9692 114.136ZM44.4652 114.15C44.4652 113.571 44.3485 113.067 44.1152 112.638C43.8819 112.209 43.5645 111.882 43.1632 111.658C42.7712 111.425 42.3372 111.308 41.8612 111.308C41.3852 111.308 40.9512 111.42 40.5592 111.644C40.1672 111.868 39.8545 112.195 39.6212 112.624C39.3879 113.053 39.2712 113.557 39.2712 114.136C39.2712 114.724 39.3879 115.237 39.6212 115.676C39.8545 116.105 40.1672 116.437 40.5592 116.67C40.9512 116.894 41.3852 117.006 41.8612 117.006C42.3372 117.006 42.7712 116.894 43.1632 116.67C43.5645 116.437 43.8819 116.105 44.1152 115.676C44.3485 115.237 44.4652 114.729 44.4652 114.15ZM54.4301 111.098C54.4301 111.91 54.1501 112.587 53.5901 113.128C53.0395 113.66 52.1948 113.926 51.0561 113.926H49.1801V118H47.9061V108.242H51.0561C52.1575 108.242 52.9928 108.508 53.5621 109.04C54.1408 109.572 54.4301 110.258 54.4301 111.098ZM51.0561 112.876C51.7655 112.876 52.2881 112.722 52.6241 112.414C52.9601 112.106 53.1281 111.667 53.1281 111.098C53.1281 109.894 52.4375 109.292 51.0561 109.292H49.1801V112.876H51.0561ZM57.2875 111.574C57.5115 111.135 57.8289 110.795 58.2395 110.552C58.6595 110.309 59.1682 110.188 59.7655 110.188V111.504H59.4295C58.0015 111.504 57.2875 112.279 57.2875 113.828V118H56.0135V110.328H57.2875V111.574ZM68.2362 113.87C68.2362 114.113 68.2222 114.369 68.1942 114.64H62.0622C62.1089 115.396 62.3655 115.989 62.8322 116.418C63.3082 116.838 63.8822 117.048 64.5542 117.048C65.1049 117.048 65.5622 116.922 65.9262 116.67C66.2995 116.409 66.5609 116.063 66.7102 115.634H68.0822C67.8769 116.371 67.4662 116.973 66.8502 117.44C66.2342 117.897 65.4689 118.126 64.5542 118.126C63.8262 118.126 63.1729 117.963 62.5942 117.636C62.0249 117.309 61.5769 116.847 61.2502 116.25C60.9235 115.643 60.7602 114.943 60.7602 114.15C60.7602 113.357 60.9189 112.661 61.2362 112.064C61.5535 111.467 61.9969 111.009 62.5662 110.692C63.1449 110.365 63.8075 110.202 64.5542 110.202C65.2822 110.202 65.9262 110.361 66.4862 110.678C67.0462 110.995 67.4755 111.434 67.7742 111.994C68.0822 112.545 68.2362 113.17 68.2362 113.87ZM66.9202 113.604C66.9202 113.119 66.8129 112.703 66.5982 112.358C66.3835 112.003 66.0895 111.737 65.7162 111.56C65.3522 111.373 64.9462 111.28 64.4982 111.28C63.8542 111.28 63.3035 111.485 62.8462 111.896C62.3982 112.307 62.1415 112.876 62.0762 113.604H66.9202ZM72.6338 118.126C72.0458 118.126 71.5185 118.028 71.0518 117.832C70.5852 117.627 70.2165 117.347 69.9458 116.992C69.6752 116.628 69.5258 116.213 69.4978 115.746H70.8138C70.8512 116.129 71.0285 116.441 71.3458 116.684C71.6725 116.927 72.0972 117.048 72.6198 117.048C73.1052 117.048 73.4878 116.941 73.7678 116.726C74.0478 116.511 74.1878 116.241 74.1878 115.914C74.1878 115.578 74.0385 115.331 73.7398 115.172C73.4412 115.004 72.9792 114.841 72.3538 114.682C71.7845 114.533 71.3178 114.383 70.9538 114.234C70.5992 114.075 70.2912 113.847 70.0298 113.548C69.7778 113.24 69.6518 112.839 69.6518 112.344C69.6518 111.952 69.7685 111.593 70.0018 111.266C70.2352 110.939 70.5665 110.683 70.9958 110.496C71.4252 110.3 71.9152 110.202 72.4658 110.202C73.3152 110.202 74.0012 110.417 74.5238 110.846C75.0465 111.275 75.3265 111.863 75.3638 112.61H74.0898C74.0618 112.209 73.8985 111.887 73.5998 111.644C73.3105 111.401 72.9185 111.28 72.4238 111.28C71.9665 111.28 71.6025 111.378 71.3318 111.574C71.0612 111.77 70.9258 112.027 70.9258 112.344C70.9258 112.596 71.0052 112.806 71.1638 112.974C71.3318 113.133 71.5372 113.263 71.7798 113.366C72.0318 113.459 72.3772 113.567 72.8158 113.688C73.3665 113.837 73.8145 113.987 74.1598 114.136C74.5052 114.276 74.7992 114.491 75.0418 114.78C75.2938 115.069 75.4245 115.447 75.4338 115.914C75.4338 116.334 75.3172 116.712 75.0838 117.048C74.8505 117.384 74.5192 117.65 74.0898 117.846C73.6698 118.033 73.1845 118.126 72.6338 118.126ZM79.9483 118.126C79.3603 118.126 78.833 118.028 78.3663 117.832C77.8996 117.627 77.531 117.347 77.2603 116.992C76.9896 116.628 76.8403 116.213 76.8123 115.746H78.1283C78.1656 116.129 78.343 116.441 78.6603 116.684C78.987 116.927 79.4116 117.048 79.9343 117.048C80.4196 117.048 80.8023 116.941 81.0823 116.726C81.3623 116.511 81.5023 116.241 81.5023 115.914C81.5023 115.578 81.353 115.331 81.0543 115.172C80.7556 115.004 80.2936 114.841 79.6683 114.682C79.099 114.533 78.6323 114.383 78.2683 114.234C77.9136 114.075 77.6056 113.847 77.3443 113.548C77.0923 113.24 76.9663 112.839 76.9663 112.344C76.9663 111.952 77.083 111.593 77.3163 111.266C77.5496 110.939 77.881 110.683 78.3103 110.496C78.7396 110.3 79.2296 110.202 79.7803 110.202C80.6296 110.202 81.3156 110.417 81.8383 110.846C82.361 111.275 82.641 111.863 82.6783 112.61H81.4043C81.3763 112.209 81.213 111.887 80.9143 111.644C80.625 111.401 80.233 111.28 79.7383 111.28C79.281 111.28 78.917 111.378 78.6463 111.574C78.3756 111.77 78.2403 112.027 78.2403 112.344C78.2403 112.596 78.3196 112.806 78.4783 112.974C78.6463 113.133 78.8516 113.263 79.0943 113.366C79.3463 113.459 79.6916 113.567 80.1303 113.688C80.681 113.837 81.129 113.987 81.4743 114.136C81.8196 114.276 82.1136 114.491 82.3563 114.78C82.6083 115.069 82.739 115.447 82.7483 115.914C82.7483 116.334 82.6316 116.712 82.3983 117.048C82.165 117.384 81.8336 117.65 81.4043 117.846C80.9843 118.033 80.499 118.126 79.9483 118.126Z" fill="white"/>
<path d="M62.6364 46.8289C62.6364 43.9669 61.607 41.9858 60.7261 40.4434L60.4561 40.0047C59.3862 38.2834 58.4514 36.7714 58.4514 35.0097C58.4514 32.8834 60.0646 30.8989 62.3394 30.8989C62.4069 30.8989 62.4721 30.9023 62.5351 30.909L62.6397 30.9192C58.3739 27.0018 52.7915 24.831 47 24.8374C43.1618 24.837 39.3836 25.7907 36.0056 27.6129C32.6275 29.4351 29.7554 32.0685 27.6477 35.2763C28.1877 35.2932 28.7041 35.3067 29.1395 35.3067C31.5593 35.3067 35.309 35.013 35.309 35.013C36.5577 34.9388 36.7062 36.7714 35.4575 36.9199C35.4575 36.9199 34.2053 37.0684 32.8081 37.1393L41.2456 62.229L46.3081 47.0213L42.6968 37.1359C41.4515 37.0617 40.2702 36.9165 40.2702 36.9165C39.0215 36.8423 39.17 34.932 40.4153 35.0063C40.4153 35.0063 44.2426 35.2999 46.5173 35.2999C48.9406 35.2999 52.6936 35.0063 52.6936 35.0063C53.9424 34.932 54.0875 36.768 52.8387 36.9165C52.8387 36.9165 51.5832 37.0617 50.1893 37.1359L58.5594 62.0333L60.8679 54.3147L61.0501 53.7308C61.9613 50.8283 62.633 48.6852 62.633 46.8255L62.6364 46.8289ZM23.8373 48C23.8355 52.3499 25.0591 56.6123 27.368 60.2988C29.6768 63.9853 32.9775 66.9468 36.8919 68.844L25.8387 38.5703C24.5115 41.5364 23.8294 44.7505 23.8373 48Z" fill="white"/>
<path d="M40.4559 70.2176L47.4084 50.025L54.5262 69.5325C54.5712 69.645 54.6264 69.7507 54.6916 69.8497C50.1033 71.4672 45.1216 71.5959 40.4559 70.2176ZM67.3209 36.8861C67.4244 37.6241 67.4772 38.4184 67.4795 39.2689C67.4795 41.6179 67.0407 44.2605 65.7177 47.5646L58.6437 68.0171C63.8639 64.9842 67.6929 60.0322 69.3144 54.2168C70.936 48.4014 70.2218 42.1826 67.3242 36.8861H67.3209Z" fill="white"/>
<path fill-rule="evenodd" clip-rule="evenodd" d="M20 48C20 33.1129 32.1129 21 47 21C61.8871 21 74 33.1129 74 48C74 62.8871 61.8838 75 47 75C32.1163 75 20 62.8871 20 48ZM21.2386 48C21.2386 62.2054 32.7946 73.7614 47 73.7614C61.2054 73.7614 72.758 62.2054 72.758 48C72.758 33.7913 61.202 22.2386 47 22.2386C32.7913 22.2386 21.2386 33.7913 21.2386 48Z" fill="white"/>
</svg>
